<?xml version="1.0" encoding="UTF-8" standalone="no"?>
<svg
   width="64"
   height="64"
   version="1.1"
   id="svg138"
   sodipodi:docname="dev.geopjr.Tuba.svg"
   xml:space="preserve"
   inkscape:version="1.4.2 (ebf0e940d0, 2025-05-08)"
   xmlns:inkscape="http://www.inkscape.org/namespaces/inkscape"
   xmlns:sodipodi="http://sodipodi.sourceforge.net/DTD/sodipodi-0.dtd"
   xmlns:xlink="http://www.w3.org/1999/xlink"
   xmlns="http://www.w3.org/2000/svg"
   xmlns:svg="http://www.w3.org/2000/svg"><sodipodi:namedview
     id="namedview138"
     pagecolor="#505050"
     bordercolor="#eeeeee"
     borderopacity="1"
     inkscape:showpageshadow="0"
     inkscape:pageopacity="0"
     inkscape:pagecheckerboard="0"
     inkscape:deskcolor="#505050"
     inkscape:zoom="4.1929222"
     inkscape:cx="68.448682"
     inkscape:cy="12.5211"
     inkscape:window-width="1920"
     inkscape:window-height="996"
     inkscape:window-x="0"
     inkscape:window-y="0"
     inkscape:window-maximized="1"
     inkscape:current-layer="svg138" /><defs
     id="defs92"><linearGradient
       id="k"
       x1="6.136"
       x2="13.874"
       y1="6.528"
       y2="14.036"
       gradientTransform="matrix(3.7796,0,0,3.7796,-36.251567,-78.227065)"
       gradientUnits="userSpaceOnUse"><stop
         offset="0"
         id="stop1" /><stop
         offset="1"
         stop-color="#f5c312"
         id="stop2" /></linearGradient><linearGradient
       id="b"
       gradientUnits="userSpaceOnUse"><stop
         offset="0"
         stop-color="#f51111"
         id="stop3" /><stop
         offset=".044"
         stop-color="#f5c211"
         id="stop4" /><stop
         offset=".332"
         stop-color="#e5a50a"
         id="stop5" /><stop
         offset=".619"
         stop-color="#f9f06b"
         id="stop6" /><stop
         offset=".81"
         stop-color="#f5c211"
         id="stop7" /><stop
         offset="1"
         stop-color="#d1960a"
         id="stop8" /></linearGradient><linearGradient
       id="o"
       x1="122"
       x2="122"
       y1="178"
       y2="283.73"
       gradientTransform="rotate(-90 -28 156)"
       gradientUnits="userSpaceOnUse"><stop
         offset="0"
         stop-color="#f51111"
         id="stop9" /><stop
         offset=".044"
         stop-color="#f5c211"
         id="stop10" /><stop
         offset=".332"
         stop-color="#f5c211"
         id="stop11" /><stop
         offset=".523"
         stop-color="#f9f06b"
         id="stop12" /><stop
         offset=".714"
         stop-color="#f6d32d"
         id="stop13" /><stop
         offset="1"
         stop-color="#e5a50a"
         id="stop14" /></linearGradient><linearGradient
       id="h"
       gradientUnits="userSpaceOnUse"><stop
         offset="0"
         stop-color="#f51111"
         id="stop15" /><stop
         offset=".044"
         stop-color="#f5c211"
         id="stop16" /><stop
         offset=".182"
         stop-color="#e5a50a"
         id="stop17" /><stop
         offset=".455"
         stop-color="#f9f06b"
         id="stop18" /><stop
         offset=".667"
         stop-color="#f5c211"
         id="stop19" /><stop
         offset="1"
         stop-color="#d1960a"
         id="stop20" /></linearGradient><linearGradient
       xlink:href="#a"
       id="t"
       x1="81"
       x2="114"
       y1="262"
       y2="262"
       gradientTransform="matrix(0 1 -.92105 0 318.08 -5.09)" /><linearGradient
       id="a"
       gradientUnits="userSpaceOnUse"><stop
         offset="0"
         stop-color="#f51111"
         id="stop21" /><stop
         offset=".044"
         stop-color="#f5c211"
         id="stop22" /><stop
         offset=".355"
         stop-color="#e5a50a"
         id="stop23" /><stop
         offset=".641"
         stop-color="#f9f06b"
         id="stop24" /><stop
         offset=".839"
         stop-color="#f5c211"
         id="stop25" /><stop
         offset="1"
         stop-color="#d1960a"
         id="stop26" /></linearGradient><linearGradient
       xlink:href="#a"
       id="w"
       x1="81"
       x2="114"
       y1="262"
       y2="262"
       gradientTransform="matrix(0 -1 .92105 0 -148.08 154.91)" /><linearGradient
       xlink:href="#b"
       id="x"
       x1="254"
       x2="254"
       y1="-20"
       y2="-62"
       gradientTransform="matrix(0 .7252 1 0 94 -106.45)" /><linearGradient
       id="y"
       x1="95.8"
       x2="110.2"
       y1="262.05"
       y2="262.05"
       gradientTransform="matrix(0 -.83333 -3.9619 0 1072.9 150.74)"
       gradientUnits="userSpaceOnUse"><stop
         offset="0"
         stop-color="#f51111"
         id="stop27" /><stop
         offset=".065"
         stop-color="#e5a50a"
         id="stop28" /><stop
         offset=".583"
         stop-color="#f9f06b"
         id="stop29" /><stop
         offset=".75"
         stop-color="#f5c211"
         id="stop30" /><stop
         offset="1"
         stop-color="#d1960a"
         id="stop31" /></linearGradient><linearGradient
       xlink:href="#a"
       id="A"
       x1="81"
       x2="114"
       y1="262"
       y2="262"
       gradientTransform="matrix(1 0 0 .9209 9 -156.21)" /><linearGradient
       xlink:href="#c"
       id="E"
       x1="16.602"
       x2="16.602"
       y1="234"
       y2="226"
       gradientTransform="matrix(1 0 0 -1 2 294.91)" /><linearGradient
       id="c"
       gradientUnits="userSpaceOnUse"><stop
         offset="0"
         stop-color="#c0bfbc"
         id="stop32" /><stop
         offset="1"
         stop-color="#f6f5f4"
         id="stop33" /></linearGradient><linearGradient
       xlink:href="#c"
       id="F"
       x1="-11.09"
       x2="-11.09"
       y1="236"
       y2="224"
       gradientTransform="rotate(180 1 147.46)" /><linearGradient
       xlink:href="#d"
       id="G"
       x1="-7"
       x2="-7"
       y1="240"
       y2="220"
       gradientTransform="rotate(180 1 147.46)" /><linearGradient
       id="d"
       gradientUnits="userSpaceOnUse"><stop
         offset="0"
         stop-color="#77767b"
         id="stop34" /><stop
         offset=".6"
         stop-color="#c0bfbc"
         id="stop35" /><stop
         offset="1"
         stop-color="#77767b"
         id="stop36" /></linearGradient><linearGradient
       id="H"
       x1="20"
       x2="20"
       y1="240.04"
       y2="222.19"
       gradientTransform="matrix(1 0 0 -1 2 294.91)"
       gradientUnits="userSpaceOnUse"><stop
         offset="0"
         stop-color="#f51111"
         id="stop37" /><stop
         offset=".044"
         stop-color="#f5c211"
         id="stop38" /><stop
         offset=".103"
         stop-color="#e5a50a"
         id="stop39" /><stop
         offset=".338"
         stop-color="#f9f06b"
         id="stop40" /><stop
         offset=".839"
         stop-color="#f5c211"
         id="stop41" /><stop
         offset="1"
         stop-color="#d1960a"
         id="stop42" /></linearGradient><linearGradient
       xlink:href="#a"
       id="L"
       x1="81"
       x2="114"
       y1="262"
       y2="262"
       gradientTransform="matrix(0 -1 .92105 0 -148.08 148.91)" /><linearGradient
       xlink:href="#e"
       id="M"
       x1="46"
       x2="54"
       y1="239"
       y2="239"
       gradientTransform="matrix(1.25 0 0 .76019 12.5 -107.73)" /><linearGradient
       id="e"
       gradientUnits="userSpaceOnUse"><stop
         offset="0"
         stop-color="#e5a50a"
         id="stop43" /><stop
         offset=".3"
         stop-color="#f9f06b"
         id="stop44" /><stop
         offset=".596"
         stop-color="#f5c211"
         id="stop45" /><stop
         offset="1"
         stop-color="#d1960a"
         id="stop46" /></linearGradient><linearGradient
       id="N"
       x1="70"
       x2="80"
       y1="58.909"
       y2="58.909"
       gradientUnits="userSpaceOnUse"><stop
         offset="0"
         stop-color="#5e5c64"
         id="stop47" /><stop
         offset=".3"
         stop-color="#c0bfbc"
         id="stop48" /><stop
         offset="1"
         stop-color="#77767b"
         id="stop49" /></linearGradient><linearGradient
       xlink:href="#c"
       id="Q"
       x1="43"
       x2="49"
       y1="201"
       y2="201"
       gradientTransform="matrix(.55556 0 0 .6 49.444 -65.19)" /><linearGradient
       xlink:href="#d"
       id="T"
       x1="70"
       x2="80"
       y1="50.909"
       y2="50.909" /><linearGradient
       xlink:href="#f"
       id="V"
       x1="70"
       x2="80"
       y1="48.909"
       y2="48.909" /><linearGradient
       id="f"
       gradientUnits="userSpaceOnUse"><stop
         offset="0"
         stop-color="#f6f5f4"
         id="stop50" /><stop
         offset="1"
         stop-color="#deddda"
         id="stop51" /></linearGradient><linearGradient
       xlink:href="#e"
       id="W"
       x1="46"
       x2="54"
       y1="239"
       y2="239"
       gradientTransform="matrix(1.25 0 0 .76019 24.5 -107.73)" /><linearGradient
       xlink:href="#g"
       id="X"
       x1="82"
       x2="92"
       y1="58.909"
       y2="58.909" /><linearGradient
       id="g"
       gradientUnits="userSpaceOnUse"><stop
         offset="0"
         stop-color="#77767b"
         id="stop52" /><stop
         offset=".3"
         stop-color="#c0bfbc"
         id="stop53" /><stop
         offset="1"
         stop-color="#77767b"
         id="stop54" /></linearGradient><linearGradient
       xlink:href="#c"
       id="Y"
       x1="43"
       x2="49"
       y1="201"
       y2="201"
       gradientTransform="matrix(.55556 0 0 .6 61.444 -65.19)" /><linearGradient
       xlink:href="#d"
       id="Z"
       x1="82"
       x2="92"
       y1="50.909"
       y2="50.909" /><linearGradient
       xlink:href="#f"
       id="aa"
       x1="82"
       x2="92"
       y1="48.909"
       y2="48.909" /><linearGradient
       xlink:href="#e"
       id="ab"
       x1="46"
       x2="54"
       y1="239"
       y2="239"
       gradientTransform="matrix(1.25 0 0 .76019 36.5 -107.73)" /><linearGradient
       xlink:href="#g"
       id="ac"
       x1="94"
       x2="104"
       y1="58.909"
       y2="58.909" /><linearGradient
       xlink:href="#c"
       id="af"
       x1="43"
       x2="49"
       y1="201"
       y2="201"
       gradientTransform="matrix(.55556 0 0 .6 73.444 -65.19)" /><linearGradient
       xlink:href="#d"
       id="ah"
       x1="94"
       x2="104"
       y1="50.909"
       y2="50.909" /><linearGradient
       xlink:href="#f"
       id="ai"
       x1="94"
       x2="104"
       y1="48.909"
       y2="48.909" /><linearGradient
       id="aj"
       x1="81"
       x2="114"
       y1="262"
       y2="262"
       gradientTransform="matrix(0 1.1667 .64474 0 -80.855 -7.258)"
       gradientUnits="userSpaceOnUse"><stop
         offset="0"
         stop-color="#f51111"
         id="stop55" /><stop
         offset=".044"
         stop-color="#f5c211"
         id="stop56" /><stop
         offset=".407"
         stop-color="#edab0a"
         id="stop57" /><stop
         offset=".667"
         stop-color="#f9f06b"
         id="stop58" /><stop
         offset=".839"
         stop-color="#f5c211"
         id="stop59" /><stop
         offset="1"
         stop-color="#d1960a"
         id="stop60" /></linearGradient><linearGradient
       xlink:href="#h"
       id="ak"
       x1="50"
       x2="76"
       y1="244"
       y2="244"
       gradientTransform="matrix(-1 0 0 1 125 -180.09)" /><linearGradient
       id="i"
       gradientUnits="userSpaceOnUse"><stop
         offset="0"
         stop-color="#f51111"
         id="stop61" /><stop
         offset="0"
         stop-color="#f5c211"
         id="stop62" /><stop
         offset="0"
         stop-color="#e5a50a"
         id="stop63" /><stop
         offset=".327"
         stop-color="#f9f06b"
         id="stop64" /><stop
         offset=".596"
         stop-color="#f5c211"
         id="stop65" /><stop
         offset="1"
         stop-color="#d1960a"
         id="stop66" /></linearGradient><linearGradient
       id="am"
       x1="88.6"
       x2="113.8"
       y1="262.49"
       y2="262.49"
       gradientTransform="matrix(0 .83333 -.78825 0 292.91 -.924)"
       gradientUnits="userSpaceOnUse"><stop
         offset="0"
         stop-color="#f51111"
         id="stop67" /><stop
         offset=".044"
         stop-color="#f5c211"
         id="stop68" /><stop
         offset=".2"
         stop-color="#e5a50a"
         id="stop69" /><stop
         offset=".567"
         stop-color="#f9f06b"
         id="stop70" /><stop
         offset=".803"
         stop-color="#f5c211"
         id="stop71" /><stop
         offset="1"
         stop-color="#d1960a"
         id="stop72" /></linearGradient><radialGradient
       xlink:href="#b"
       id="l"
       cx="-96.222"
       cy="219.32"
       r="42"
       gradientTransform="matrix(-1 0 0 -1.8648 -22.222 464.89)" /><radialGradient
       id="n"
       cx="82.78"
       cy="202.7"
       r="42"
       gradientTransform="matrix(.56523 .34748 -.5509 .89613 146.99 -179)"
       gradientUnits="userSpaceOnUse"><stop
         offset="0"
         stop-color="#e5a50a"
         id="stop73" /><stop
         offset="1"
         stop-color="#e5a50a"
         stop-opacity="0"
         id="stop74" /></radialGradient><radialGradient
       xlink:href="#h"
       id="p"
       cx="83.593"
       cy="246.44"
       r="11"
       gradientTransform="matrix(-3 0 0 -3 324.78 821.22)" /><radialGradient
       xlink:href="#h"
       id="q"
       cx="83.593"
       cy="246.44"
       r="11"
       gradientTransform="matrix(2.7273 0 0 -3 -134.98 821.22)" /><radialGradient
       xlink:href="#h"
       id="u"
       cx="96"
       cy="67.909"
       r="33" /><radialGradient
       xlink:href="#h"
       id="v"
       cx="83.593"
       cy="246.44"
       r="11"
       gradientTransform="matrix(-2.7273 0 0 3 304.98 -671.4)" /><radialGradient
       id="B"
       cx="68.302"
       cy="281.16"
       r="29.631"
       gradientTransform="matrix(-.42704 .91783 -1.0492 -.48814 397.15 170.47)"
       gradientUnits="userSpaceOnUse"><stop
         offset="0"
         stop-color="#f51111"
         id="stop75" /><stop
         offset="0"
         stop-color="#f5c211"
         id="stop76" /><stop
         offset=".138"
         stop-color="#e5a50a"
         id="stop77" /><stop
         offset=".541"
         stop-color="#f9f06b"
         id="stop78" /><stop
         offset=".817"
         stop-color="#f5c211"
         id="stop79" /><stop
         offset="1"
         stop-color="#d1960a"
         id="stop80" /></radialGradient><radialGradient
       id="D"
       cx="272"
       cy="81.173"
       r="14"
       gradientTransform="matrix(2.3571 0 0 -2.3571 -551.14 283.25)"
       gradientUnits="userSpaceOnUse"><stop
         offset="0"
         stop-color="#f51111"
         id="stop81" /><stop
         offset=".044"
         stop-color="#f5c211"
         id="stop82" /><stop
         offset=".327"
         stop-color="#e5a50a"
         id="stop83" /><stop
         offset=".636"
         stop-color="#f9f06b"
         id="stop84" /><stop
         offset=".839"
         stop-color="#f5c211"
         id="stop85" /><stop
         offset="1"
         stop-color="#d1960a"
         id="stop86" /></radialGradient><radialGradient
       xlink:href="#h"
       id="I"
       cx="96"
       cy="61.909"
       r="33" /><radialGradient
       xlink:href="#h"
       id="J"
       cx="83.593"
       cy="246.44"
       r="11"
       gradientTransform="matrix(-2.7273 0 0 3 304.98 -677.4)" /><radialGradient
       xlink:href="#i"
       id="al"
       cx="99"
       cy="267.22"
       r="13"
       gradientTransform="matrix(-1.8125 0 0 -1.8121 -77.564 583.22)" /><radialGradient
       xlink:href="#i"
       id="an"
       cx="70"
       cy="255"
       r="6.5"
       gradientTransform="matrix(-3.2308 0 0 -3.629 296.15 1002.3)" /><radialGradient
       id="ao"
       cx="79.357"
       cy="260.5"
       r="23.5"
       gradientTransform="matrix(-1.5319 0 0 -1.7571 189.57 545.63)"
       gradientUnits="userSpaceOnUse"><stop
         offset="0"
         stop-color="#f51111"
         id="stop87" /><stop
         offset=".044"
         stop-color="#f5c211"
         id="stop88" /><stop
         offset=".216"
         stop-color="#e5a50a"
         id="stop89" /><stop
         offset=".556"
         stop-color="#f9f06b"
         id="stop90" /><stop
         offset=".778"
         stop-color="#f5c211"
         id="stop91" /><stop
         offset="1"
         stop-color="#d1960a"
         id="stop92" /></radialGradient></defs><g
     id="g138"><path
       fill="url(#l)"
       d="M88 8c-20 8-28 32-28 48-3.371 8.332-24.5 7.91-28 0 0-16-8-40-28-48V4h84z"
       transform="matrix(.5001 0 0 .4845 .959 1.992)"
       id="path92" /><path
       fill="url(#n)"
       d="M88 8c-20 8-28 32-28 48-3.371 8.332-24.5 7.91-28 0 0-16-8-40-28-48V4h84z"
       transform="matrix(.5001 0 0 .4845 .959 1.992)"
       id="path93" /><path
       fill="url(#o)"
       d="M4 8V4h84v4z"
       transform="matrix(.5001 0 0 .4845 .959 1.992)"
       id="path94" /><path
       fill="url(#p)"
       d="M74 103.91c1-4.773 1.367-7.726 0-12-5.523 0-10-4.476-10-10-3.3-3-7.98-2.98-12 0 0 12.149 9.852 22 22 22"
       transform="matrix(.5001 0 0 .4845 .959 1.992)"
       id="path95" /><path
       fill="url(#q)"
       d="M93 103.91c11.047 0 20-9.851 20-22h-11v2a8 8 0 0 1-8 8v-.07l-.125.02c-.29.03-.582.05-.875.05-1.305 5.04-1 9.215 0 12m0 0"
       transform="matrix(.5001 0 0 .4845 .959 1.992)"
       id="path96" /><path
       fill="url(#t)"
       d="M93 91.91H74v12h19z"
       transform="matrix(.5001 0 0 .4845 .959 1.992)"
       id="path97" /><path
       fill="url(#u)"
       d="M96 45.91c-1 4.77-1.367 7.723 0 12 5.523 0 8 4.477 8 10 3.3 3 9.98 2.977 14 0 0-12.152-9.852-22-22-22"
       transform="matrix(.5001 0 0 .4845 .959 1.992)"
       id="path98" /><path
       fill="url(#v)"
       d="M77 45.91c-11.047 0-20 9.848-20 22h11v-2a8 8 0 0 1 8-8v.07l.125-.023q.435-.047.875-.047c1.305-5.043 1-9.219 0-12m0 0"
       transform="matrix(.5001 0 0 .4845 .959 1.992)"
       id="path99" /><path
       fill="url(#w)"
       d="M77 57.91h19v-12H77z"
       transform="matrix(.5001 0 0 .4845 .959 1.992)"
       id="path100" /><path
       fill="url(#x)"
       d="M32 56v31.91h28V56z"
       transform="matrix(.5001 0 0 .4845 .959 1.992)"
       id="path101" /><path
       fill="url(#y)"
       d="M98.277 69.91H23v-10h75.277c7.282 4.012 1.98 6.852 0 10m0 0"
       transform="matrix(.5001 0 0 .4845 .959 1.992)"
       id="path102" /><path
       fill="url(#A)"
       d="M106 61.91v28.156q-.005.925-.14 1.844c3.214 3.121 6.054 7.653 12.14 0v-30z"
       transform="matrix(.5001 0 0 .4845 .959 1.992)"
       id="path103" /><path
       fill="url(#B)"
       d="M32 87.91c0 17.672 14.328 32 32 32h25c3.031-3.465 3-11 0-14H76a16 16 0 0 1-12-5.457 16 16 0 0 1-3.95-9.543H60v-3c-4-5-23-5-28 0"
       transform="matrix(.5001 0 0 .4845 .959 1.992)"
       id="path104" /><path
       fill="url(#D)"
       d="M105.86 91.91c-1.008 7.992-7.801 13.992-15.86 14v14c15.465 0 28-12.535 28-28z"
       transform="matrix(.5001 0 0 .4845 .959 1.992)"
       id="path105" /><path
       fill="url(#E)"
       d="M8 68.91h16v-8H8z"
       transform="matrix(.5001 0 0 .4845 .959 1.992)"
       id="path106" /><path
       fill="#9a9996"
       d="M8.96 31.503v3.876h1v-3.876z"
       id="path107" /><path
       fill="url(#F)"
       d="M13.5 70.91H11a3 3 0 0 1-3-3v-6a3 3 0 0 1 3-3h2.5a3 3 0 0 1 3 3v6a3 3 0 0 1-3 3"
       transform="matrix(.5001 0 0 .4845 .959 1.992)"
       id="path108" /><path
       fill="url(#G)"
       d="M9 74.91a3 3 0 0 1-3-3v-14a3 3 0 0 1 6 0v14a3 3 0 0 1-3 3"
       transform="matrix(.5001 0 0 .4845 .959 1.992)"
       id="path109" /><path
       fill-opacity=".078"
       d="M13.461 31.018v4.845h1v-4.845z"
       id="path110" /><path
       fill="url(#H)"
       d="M23 72.91c1.105 0 2-.898 2-2v-12a1.999 1.999 0 1 0-4 0v12c0 1.102.895 2 2 2"
       transform="matrix(.5001 0 0 .4845 .959 1.992)"
       id="path111" /><path
       fill="url(#I)"
       d="M96 39.91c-1 4.77-1.367 7.723 0 12 5.523 0 10 4.477 10 10 3.3 3 7.98 2.977 12 0 0-12.152-9.852-22-22-22"
       transform="matrix(.5001 0 0 .4845 .959 1.992)"
       id="path112" /><path
       fill="url(#J)"
       d="M77 39.91c-11.047 0-20 9.848-20 22h11v-2a8 8 0 0 1 8-8v.07l.125-.023q.435-.047.875-.047c1.305-5.043 1-9.219 0-12m0 0"
       transform="matrix(.5001 0 0 .4845 .959 1.992)"
       id="path113" /><path
       fill="url(#L)"
       d="M77 51.91h19v-12H77z"
       transform="matrix(.5001 0 0 .4845 .959 1.992)"
       id="path114" /><path
       fill="url(#M)"
       d="M75 51.91a5 5 0 0 1 5 5V91a5 5 0 1 1-10 0V56.91a5 5 0 0 1 5-5"
       transform="matrix(.5001 0 0 .4845 .959 1.992)"
       id="path115" /><path
       fill="url(#N)"
       d="M75 53.91a5 5 0 0 0-4.578 3H70v2a5 5 0 1 0 10 0v-2h-.422a4.99 4.99 0 0 0-4.578-3m0 0"
       transform="matrix(.5001 0 0 .4845 .959 1.992)"
       id="path116" /><path
       fill="#9a9996"
       d="M40.966 29.565c0 1.338-1.12 2.422-2.5 2.422-1.381 0-2.5-1.084-2.5-2.422s1.119-2.423 2.5-2.423c1.38 0 2.5 1.085 2.5 2.423"
       id="path117" /><path
       fill="url(#Q)"
       d="M75 52.41c.922 0 1.668.746 1.668 1.664v2.668a1.667 1.667 0 1 1-3.336 0v-2.668c0-.918.746-1.664 1.668-1.664m0 0"
       transform="matrix(.5001 0 0 .4845 .959 1.992)"
       id="path118" /><path
       fill="url(#T)"
       d="M75 45.91a5 5 0 0 0-4.578 3H70v2a5 5 0 1 0 10 0v-2h-.422a4.99 4.99 0 0 0-4.578-3m0 0"
       transform="matrix(.5001 0 0 .4845 .959 1.992)"
       id="path119" /><path
       fill="url(#V)"
       d="M80 48.91a5 5 0 1 1-10 0 5 5 0 0 1 10 0"
       transform="matrix(.5001 0 0 .4845 .959 1.992)"
       id="path120" /><path
       fill="url(#W)"
       d="M87 51.91a5 5 0 0 1 5 5V91a5 5 0 1 1-10 0V56.91a5 5 0 0 1 5-5"
       transform="matrix(.5001 0 0 .4845 .959 1.992)"
       id="path121" /><path
       fill="url(#X)"
       d="M87 53.91a5 5 0 0 0-4.578 3H82v2a5 5 0 1 0 10 0v-2h-.422a4.99 4.99 0 0 0-4.578-3m0 0"
       transform="matrix(.5001 0 0 .4845 .959 1.992)"
       id="path122" /><path
       fill="#9a9996"
       d="M46.967 29.565c0 1.338-1.12 2.422-2.5 2.422-1.381 0-2.5-1.084-2.5-2.422s1.119-2.423 2.5-2.423c1.38 0 2.5 1.085 2.5 2.423"
       id="path123" /><path
       fill="url(#Y)"
       d="M87 52.41c.922 0 1.668.746 1.668 1.664v2.668a1.667 1.667 0 1 1-3.336 0v-2.668c0-.918.746-1.664 1.668-1.664m0 0"
       transform="matrix(.5001 0 0 .4845 .959 1.992)"
       id="path124" /><path
       fill="url(#Z)"
       d="M87 45.91a5 5 0 0 0-4.578 3H82v2a5 5 0 1 0 10 0v-2h-.422a4.99 4.99 0 0 0-4.578-3m0 0"
       transform="matrix(.5001 0 0 .4845 .959 1.992)"
       id="path125" /><path
       fill="url(#aa)"
       d="M92 48.91a5 5 0 1 1-10 0 5 5 0 0 1 10 0"
       transform="matrix(.5001 0 0 .4845 .959 1.992)"
       id="path126" /><path
       fill="url(#ab)"
       d="M99 51.91a5 5 0 0 1 5 5V91a5 5 0 1 1-10 0V56.91a5 5 0 0 1 5-5"
       transform="matrix(.5001 0 0 .4845 .959 1.992)"
       id="path127" /><path
       fill="url(#ac)"
       d="M99 53.91a5 5 0 0 0-4.578 3H94v2a5 5 0 1 0 10 0v-2h-.422a4.99 4.99 0 0 0-4.578-3m0 0"
       transform="matrix(.5001 0 0 .4845 .959 1.992)"
       id="path128" /><path
       fill="#9a9996"
       d="M52.968 29.565c0 1.338-1.119 2.422-2.5 2.422s-2.5-1.084-2.5-2.422 1.119-2.423 2.5-2.423 2.5 1.085 2.5 2.423"
       id="path129" /><path
       fill="url(#af)"
       d="M99 52.41c.922 0 1.668.746 1.668 1.664v2.668a1.667 1.667 0 1 1-3.336 0v-2.668c0-.918.746-1.664 1.668-1.664m0 0"
       transform="matrix(.5001 0 0 .4845 .959 1.992)"
       id="path130" /><path
       fill="url(#ah)"
       d="M99 45.91a5 5 0 0 0-4.578 3H94v2a5 5 0 1 0 10 0v-2h-.422a4.99 4.99 0 0 0-4.578-3m0 0"
       transform="matrix(.5001 0 0 .4845 .959 1.992)"
       id="path131" /><path
       fill="url(#ai)"
       d="M104 48.91a5 5 0 1 1-10 0 5 5 0 0 1 10 0"
       transform="matrix(.5001 0 0 .4845 .959 1.992)"
       id="path132" /><path
       fill="url(#aj)"
       d="M76 105.91h14v14H76z"
       transform="matrix(.5001 0 0 .4845 .959 1.992)"
       id="path133" /><path
       fill="url(#ak)"
       d="M68 61.91c-2.004-1.816-8.773-1.816-11 0v15c2.543 1.68 9.047 1.403 11 0z"
       transform="matrix(.5001 0 0 .4845 .959 1.992)"
       id="path134" /><path
       fill="none"
       stroke="url(#al)"
       stroke-linecap="round"
       stroke-width="10"
       d="M-249.27 101.07a7.99 7.99 0 0 1-8.77 5.86 8 8 0 0 1-6.957-7.93"
       transform="matrix(0 -.4845 .5001 0 .959 -85.263)"
       id="path135" /><path
       fill="url(#am)"
       d="M99 79.91H70c-2.566 4-1.797 7.317 0 10h29c.934-2.832 1.914-6.668 0-10"
       transform="matrix(.5001 0 0 .4845 .959 1.992)"
       id="path136" /><path
       fill="url(#an)"
       d="M57 76.91c0 3.445 1.367 6.754 3.809 9.192A13 13 0 0 0 70 89.91v-10a2 2 0 0 1-2-2v-1z"
       transform="matrix(.5001 0 0 .4845 .959 1.992)"
       id="path137" /><path
       fill="url(#ao)"
       d="M46.375 84.16C40.5 84.16 34.5 85.41 32 87.91c0 17.656 14.3 31.969 31.953 31.996l4.262-16.043c-1.57-.883-3-2.023-4.215-3.41a16 16 0 0 1-3.95-9.543H60v-3c-2-2.5-7.75-3.75-13.625-3.75m0 0"
       transform="matrix(.5001 0 0 .4845 .959 1.992)"
       id="path138" /></g></svg>
