<?xml version="1.0" encoding="UTF-8" standalone="no"?>
<svg
   width="64"
   height="64"
   version="1.1"
   id="svg3"
   sodipodi:docname="distributor-logo-freebsd.svg"
   inkscape:version="1.4.2 (ebf0e940d0, 2025-05-08)"
   xmlns:inkscape="http://www.inkscape.org/namespaces/inkscape"
   xmlns:sodipodi="http://sodipodi.sourceforge.net/DTD/sodipodi-0.dtd"
   xmlns="http://www.w3.org/2000/svg"
   xmlns:svg="http://www.w3.org/2000/svg">
  <sodipodi:namedview
     id="namedview3"
     pagecolor="#505050"
     bordercolor="#eeeeee"
     borderopacity="1"
     inkscape:showpageshadow="0"
     inkscape:pageopacity="0"
     inkscape:pagecheckerboard="0"
     inkscape:deskcolor="#505050"
     inkscape:zoom="5.9296875"
     inkscape:cx="-29.681159"
     inkscape:cy="34.150198"
     inkscape:window-width="1920"
     inkscape:window-height="996"
     inkscape:window-x="0"
     inkscape:window-y="0"
     inkscape:window-maximized="1"
     inkscape:current-layer="svg3" />
  <defs
     id="defs2">
    <linearGradient
       id="a"
       x1="7.937"
       x2="7.937"
       y1="15.081"
       y2="1.852"
       gradientTransform="scale(3.7796)"
       gradientUnits="userSpaceOnUse">
      <stop
         offset="0"
         stop-color="#0e71de"
         id="stop1" />
      <stop
         offset="1"
         stop-color="#25c9ff"
         id="stop2" />
    </linearGradient>
    <filter
       id="b"
       width="1.2940263"
       height="1.2940303"
       x="-0.14701313"
       y="-0.14701515"
       style="color-interpolation-filters:sRGB">
      <feGaussianBlur
         stdDeviation="2.45"
         id="feGaussianBlur2" />
    </filter>
  </defs>
  <g
     id="g3"
     transform="translate(-84.087471,-1.5000405)">
    <path
       style="opacity:0.2"
       d="m 97.038768,6.0448054 c -2.341581,0.1944631 -5.853388,1.870701 -7.475797,4.4409516 -2.011989,3.188022 -1.544998,4.808663 -1.445165,6.339195 0.09983,1.530532 0.401446,2.902608 0.882723,4.323777 0.729641,2.154649 1.932712,3.862784 2.980163,5.741598 -1.107585,2.916563 -1.882904,5.946679 -1.890431,9.092818 -8e-6,0.0066 -8e-6,0.013 0,0.0196 -2e-6,14.263186 11.734149,25.997338 25.997339,25.997336 14.26319,2e-6 25.99734,-11.73415 25.99734,-25.997338 v -0.0118 c -0.005,-3.150652 -0.78208,-6.183511 -1.89044,-9.104538 1.04724,-1.877554 2.25033,-3.582381 2.98017,-5.737692 0.48134,-1.421211 0.78291,-2.793214 0.88272,-4.323695 0.0998,-1.530549 0.56585,-3.151791 -1.44516,-6.339263 -1.07985,-1.7103588 -3.05193,-3.2489619 -4.89404,-3.8980364 -1.83756,-0.6474733 -3.39897,-0.6437969 -4.6792,-0.5272896 -0.79417,0.070243 -1.57609,0.2087298 -2.35523,0.4023024 -3.53048,0.853386 -6.63068,2.4994992 -9.76072,4.4761046 -1.61129,-0.313919 -3.16315,-0.929039 -4.81201,-0.933498 -0.009,-1.6e-5 -0.0182,-1.6e-5 -0.0273,0 -1.65703,10e-4 -3.21973,0.61596 -4.83935,0.929592 -3.12748,-1.9743554 -6.2252,-3.6194911 -9.7529,-4.4721986 C 100.71001,6.2685925 99.925377,6.1304668 99.128397,6.060429 98.465935,6.0006963 97.774178,5.9837309 97.038768,6.0448054 Z"
       id="path1" />
    <path
       style="fill:#fb5140"
       d="m 97.038768,5.0450782 c -2.341581,0.1944631 -5.853388,1.870701 -7.475797,4.4409516 -2.011989,3.1880212 -1.544998,4.8086632 -1.445165,6.3391952 0.09983,1.530532 0.401446,2.902608 0.882723,4.323776 0.729641,2.15465 1.932712,3.862785 2.980163,5.741598 -1.107585,2.916564 -1.882904,5.946679 -1.890431,9.092819 -8e-6,0.0066 -8e-6,0.013 0,0.0196 -2e-6,14.263187 11.734149,25.99734 25.997339,25.997338 14.26319,2e-6 25.99734,-11.734151 25.99734,-25.997338 v -0.01187 c -0.005,-3.150651 -0.78208,-6.18351 -1.89044,-9.104537 1.04724,-1.877554 2.25033,-3.582381 2.98017,-5.737693 0.48134,-1.42121 0.78291,-2.793214 0.88272,-4.323694 0.0998,-1.530481 0.56585,-3.151723 -1.44516,-6.3391952 -1.07985,-1.7103598 -3.05193,-3.2489629 -4.89404,-3.8980374 -1.83756,-0.6474733 -3.39897,-0.6437969 -4.6792,-0.5272896 -0.79417,0.070243 -1.57609,0.2087298 -2.35523,0.4023024 -3.53048,0.853386 -6.63068,2.4994992 -9.76072,4.4761042 -1.61129,-0.3139187 -3.16315,-0.9290391 -4.81201,-0.9334982 -0.009,-1.56e-5 -0.0182,-1.56e-5 -0.0273,0 -1.65703,0.00105 -3.21973,0.6159603 -4.83935,0.9295924 -3.12748,-1.9743552 -6.2252,-3.6194909 -9.7529,-4.4721984 -0.78143,-0.1941389 -1.566063,-0.3322646 -2.363043,-0.4023024 -0.662462,-0.059733 -1.354219,-0.076698 -2.089629,-0.015624 z"
       id="path2-3" />
    <path
       style="opacity:0.2"
       d="m 97.698856,14.016646 c -0.648668,0.05387 -1.09364,0.29888 -1.370953,0.738205 -0.395298,0.626355 -0.290972,2.230366 0.249974,3.827733 0.537609,1.587573 1.821875,4.095364 3.023128,6.132185 1.984415,-2.887944 4.712615,-5.216441 7.897625,-6.741497 -2.83432,-1.789313 -5.88168,-3.256329 -7.897625,-3.741805 -0.439514,-0.111106 -0.832617,-0.176777 -1.183472,-0.20701 -0.263147,-0.02409 -0.502454,-0.02577 -0.718677,-0.0078 z m 36.777484,0 c -0.21622,-0.01796 -0.45553,-0.01628 -0.71868,0.0078 -0.35078,0.03023 -0.74396,0.0959 -1.18347,0.20701 -2.23466,0.538142 -5.75188,2.257837 -8.82332,4.315957 -1.5632,1.047426 -1.66435,1.184303 -1.66389,2.245863 3.7e-4,0.7587 0.0623,1.010203 0.44527,1.804503 1.06006,2.198251 3.42923,4.444239 5.45647,5.171345 0.89933,0.322741 2.05014,0.312158 2.47631,-0.02344 1.07022,-0.83912 4.21451,-6.452801 5.13229,-9.163125 0.54094,-1.597291 0.64519,-3.201302 0.24997,-3.827733 -0.27737,-0.439321 -0.72231,-0.684331 -1.37095,-0.738201 z M 116.0876,18.004519 A 17.998155,17.998155 0 0 0 98.089441,36.002675 17.998155,17.998155 0 0 0 116.0876,54.000832 17.998155,17.998155 0 0 0 134.08575,36.002675 17.998155,17.998155 0 0 0 132.45311,28.562031 c -0.20875,0.255322 -0.42837,0.501135 -0.74992,0.753829 -0.89334,0.703428 -1.58406,0.68123 -2.28102,0.68743 -0.69696,0.0062 -1.39805,-0.09633 -2.10916,-0.351526 -2.7931,-1.001796 -5.24643,-3.418622 -6.58136,-6.186867 -0.41849,-0.867951 -0.64404,-1.806201 -0.64446,-2.671602 -2.5e-4,-0.560495 0.0873,-1.447712 0.56244,-2.179464 a 17.998155,17.998155 0 0 0 -4.56203,-0.609312 z"
       id="path3-6" />
    <path
       style="fill:#ffffff"
       d="m 97.698856,13.016919 c -0.648668,0.05387 -1.09364,0.29888 -1.370953,0.738205 -0.395298,0.626355 -0.290972,2.230366 0.249974,3.827733 0.537609,1.587572 1.821875,4.095364 3.023128,6.132185 1.984415,-2.887945 4.712615,-5.216442 7.897625,-6.741497 -2.83432,-1.789314 -5.88168,-3.256329 -7.897625,-3.741805 -0.439514,-0.111106 -0.832617,-0.176777 -1.183472,-0.20701 -0.263147,-0.02409 -0.502454,-0.02577 -0.718677,-0.0078 z m 36.777484,0 c -0.21622,-0.01796 -0.45553,-0.01628 -0.71868,0.0078 -0.35078,0.03023 -0.74396,0.0959 -1.18347,0.20701 -2.23466,0.538142 -5.75188,2.257837 -8.82332,4.315957 -1.5632,1.047426 -1.66435,1.184303 -1.66389,2.245863 3.7e-4,0.758701 0.0623,1.010203 0.44527,1.804503 1.06006,2.198251 3.42923,4.444239 5.45647,5.171344 0.89933,0.322741 2.05014,0.312158 2.47631,-0.02344 1.07022,-0.83912 4.21451,-6.452801 5.13229,-9.163125 0.54094,-1.597287 0.64519,-3.201299 0.24997,-3.827729 -0.27737,-0.439325 -0.72231,-0.684335 -1.37095,-0.738205 z M 116.0876,17.004791 A 17.998155,17.998155 0 0 0 98.089441,35.002948 17.998155,17.998155 0 0 0 116.0876,53.001105 17.998155,17.998155 0 0 0 134.08575,35.002948 17.998155,17.998155 0 0 0 132.45311,27.562304 c -0.20875,0.255322 -0.42837,0.501135 -0.74992,0.753829 -0.89334,0.703428 -1.58406,0.68123 -2.28102,0.68743 -0.69696,0.0062 -1.39805,-0.09634 -2.10916,-0.351526 -2.7931,-1.001796 -5.24643,-3.418622 -6.58136,-6.186867 -0.41849,-0.867951 -0.64404,-1.806201 -0.64446,-2.671602 -2.5e-4,-0.560495 0.0873,-1.447712 0.56244,-2.179464 a 17.998155,17.998155 0 0 0 -4.56203,-0.609313 z"
       id="path4" />
    <path
       style="opacity:0.2;fill:#ffffff"
       d="m 134.05232,5.0020337 c -0.35513,0.00661 -0.69362,0.029467 -1.01368,0.058594 -0.79416,0.070243 -1.57633,0.2087711 -2.35546,0.4023437 -3.53049,0.853386 -6.62973,2.4999575 -9.75977,4.4765625 -1.61129,-0.3139187 -3.16364,-0.9291346 -4.8125,-0.9335937 -0.009,-1.56e-5 -0.0182,-1.56e-5 -0.0273,0 -1.65704,0.00105 -3.22023,0.6160554 -4.83984,0.9296875 -3.12749,-1.9743554 -6.22426,-3.619949 -9.75196,-4.4726565 -0.78143,-0.1941389 -1.566301,-0.3323059 -2.363281,-0.4023437 -0.662462,-0.059733 -1.354434,-0.0767 -2.089844,-0.015625 -2.341581,0.1944631 -5.854153,1.8711556 -7.476563,4.4414062 -1.524738,2.4159663 -1.622988,3.9288903 -1.539062,5.1875003 0.06317,-1.072157 0.392442,-2.370666 1.539062,-4.1875 1.62241,-2.5702509 5.134982,-4.2469434 7.476563,-4.4414065 0.73541,-0.061075 1.427382,-0.044108 2.089844,0.015625 0.79698,0.070038 1.581851,0.2082048 2.363281,0.4023437 3.5277,0.8527075 6.62447,2.4983011 9.75195,4.4726568 1.61962,-0.313633 3.18281,-0.928638 4.83985,-0.929688 0.009,-1.6e-5 0.0181,-1.6e-5 0.0273,0 1.64886,0.0045 3.20121,0.619675 4.8125,0.933594 3.13003,-1.9766053 6.22928,-3.6231768 9.75976,-4.4765628 0.77914,-0.1935726 1.56131,-0.3321003 2.35547,-0.4023437 1.28023,-0.1165073 2.84213,-0.1201296 4.67969,0.5273437 1.8421,0.6490745 3.81468,2.1880777 4.89453,3.8984378 1.14606,1.816521 1.47572,3.115243 1.53906,4.1875 0.0837,-1.258731 -0.0151,-2.771947 -1.53906,-5.1875003 -1.07985,-1.7103598 -3.05243,-3.249363 -4.89453,-3.8984375 -1.37817,-0.485605 -2.60064,-0.6057727 -3.66602,-0.5859375 z m 6.35937,21.5136723 c -0.0716,0.124722 -0.14647,0.245003 -0.2168,0.371094 1.05543,2.781531 1.80293,5.664808 1.87696,8.654297 0.004,-0.179425 0.0137,-0.356858 0.0137,-0.53711 v -0.01367 c -0.005,-2.926585 -0.69014,-5.746515 -1.67383,-8.474609 z m -48.648436,0.002 c -0.983117,2.724544 -1.666835,5.542004 -1.673828,8.464844 -8e-6,0.0066 -8e-6,0.01488 0,0.02148 0,0.182872 0.0098,0.362901 0.01367,0.544922 0.07392,-2.99071 0.820505,-5.876341 1.876953,-8.658246 -0.07058,-0.126605 -0.144993,-0.247803 -0.216797,-0.373047 z"
       id="path5" />
  </g>
</svg>
