<?xml version="1.0" encoding="UTF-8" standalone="no"?>
<svg
   width="64"
   height="64"
   version="1.1"
   id="svg3"
   sodipodi:docname="distributor-logo-alpine.svg"
   xml:space="preserve"
   inkscape:version="1.4.2 (ebf0e940d0, 2025-05-08)"
   xmlns:inkscape="http://www.inkscape.org/namespaces/inkscape"
   xmlns:sodipodi="http://sodipodi.sourceforge.net/DTD/sodipodi-0.dtd"
   xmlns="http://www.w3.org/2000/svg"
   xmlns:svg="http://www.w3.org/2000/svg"><sodipodi:namedview
     id="namedview3"
     pagecolor="#505050"
     bordercolor="#eeeeee"
     borderopacity="1"
     inkscape:showpageshadow="0"
     inkscape:pageopacity="0"
     inkscape:pagecheckerboard="0"
     inkscape:deskcolor="#505050"
     showguides="true"
     inkscape:zoom="2.9648438"
     inkscape:cx="54.640316"
     inkscape:cy="33.222661"
     inkscape:window-width="1920"
     inkscape:window-height="996"
     inkscape:window-x="0"
     inkscape:window-y="0"
     inkscape:window-maximized="1"
     inkscape:current-layer="svg3" /><defs
     id="defs2"><linearGradient
       id="a"
       x1="7.937"
       x2="7.937"
       y1="15.081"
       y2="1.852"
       gradientTransform="scale(3.7796)"
       gradientUnits="userSpaceOnUse"><stop
         offset="0"
         stop-color="#0e71de"
         id="stop1" /><stop
         offset="1"
         stop-color="#25c9ff"
         id="stop2" /></linearGradient><filter
       id="b"
       width="1.20256"
       height="1.5361882"
       x="-0.10128"
       y="-0.26809412"
       style="color-interpolation-filters:sRGB"><feGaussianBlur
         stdDeviation="1.899"
         id="feGaussianBlur2" /></filter></defs><path
     style="fill:#0d597f;fill-opacity:1;stroke:none;stroke-width:0.623106;stroke-linecap:round;stroke-linejoin:round"
     d="M 17.816585,6.8740816 3,32.093803 17.606422,57.208441 H 46.819271 L 61,32.093803 46.609381,6.7915589 Z"
     id="path4"
     sodipodi:nodetypes="ccccccc" /><g
     id="g4"
     transform="translate(1.5575999,1.4929671)"><path
       d="M 26,23 10,40 h 7 l 9,-10 8,10 h 7 l -5,-5 4,-3 8,8 h 7 L 40,25 33,31 Z m -2,12 -4,5 h 4 z"
       style="opacity:0.2;filter:url(#b)"
       id="path2"
       transform="matrix(0.92395486,0,0,0.92395486,0.41386807,1.4024548)" /><path
       d="M 24.436694,21.729462 9.6534167,37.436694 h 6.4676843 l 8.315593,-9.239548 7.391639,9.239548 h 6.467684 l -4.619774,-4.619774 3.69582,-2.771864 7.391638,7.391638 h 6.467684 L 37.372063,23.577372 30.904379,29.121101 Z m -1.847909,11.087458 -3.69582,4.619774 h 3.69582 z"
       style="fill:#ffffff;stroke-width:0.923955"
       id="path3" /></g></svg>
