<?xml version="1.0" encoding="UTF-8" standalone="no"?>
<svg
   width="64"
   height="64"
   version="1"
   id="svg8"
   sodipodi:docname="distributor-logo-puppy-linux.svg"
   xml:space="preserve"
   inkscape:version="1.4.2 (ebf0e940d0, 2025-05-08)"
   xmlns:inkscape="http://www.inkscape.org/namespaces/inkscape"
   xmlns:sodipodi="http://sodipodi.sourceforge.net/DTD/sodipodi-0.dtd"
   xmlns:xlink="http://www.w3.org/1999/xlink"
   xmlns="http://www.w3.org/2000/svg"
   xmlns:svg="http://www.w3.org/2000/svg"><sodipodi:namedview
     id="namedview8"
     pagecolor="#505050"
     bordercolor="#eeeeee"
     borderopacity="1"
     inkscape:showpageshadow="0"
     inkscape:pageopacity="0"
     inkscape:pagecheckerboard="0"
     inkscape:deskcolor="#505050"
     inkscape:zoom="4.2315921"
     inkscape:cx="76.566925"
     inkscape:cy="37.338192"
     inkscape:window-width="1920"
     inkscape:window-height="1003"
     inkscape:window-x="0"
     inkscape:window-y="0"
     inkscape:window-maximized="1"
     inkscape:current-layer="svg8" /><defs
     id="defs4"><linearGradient
       id="linearGradient8"
       inkscape:collect="always"><stop
         style="stop-color:#f8fafc;stop-opacity:1"
         offset="0"
         id="stop8" /><stop
         style="stop-color:#889099;stop-opacity:1"
         offset="1"
         id="stop9" /></linearGradient><filter
       id="c"
       width="1.3578976"
       height="1.5488"
       x="-0.1789488"
       y="-0.2744"
       style="color-interpolation-filters:sRGB"><feGaussianBlur
         stdDeviation="3.43"
         id="feGaussianBlur1" /></filter><filter
       id="b"
       width="1.294"
       height="1.294"
       x="-0.147"
       y="-0.147"
       style="color-interpolation-filters:sRGB"><feGaussianBlur
         stdDeviation="3.43"
         id="feGaussianBlur2" /></filter><filter
       id="d"
       width="1.1910757"
       height="1.6370036"
       x="-0.095537857"
       y="-0.31850182"
       style="color-interpolation-filters:sRGB"><feGaussianBlur
         stdDeviation="2.07"
         id="feGaussianBlur3" /></filter><linearGradient
       id="a"
       x1="7.937"
       x2="7.937"
       y1="15.081"
       y2="1.852"
       gradientTransform="scale(3.7796)"
       gradientUnits="userSpaceOnUse"><stop
         offset="0"
         stop-color="#0e71de"
         id="stop3" /><stop
         offset="1"
         stop-color="#25c9ff"
         id="stop4" /></linearGradient><linearGradient
       inkscape:collect="always"
       xlink:href="#linearGradient8"
       id="linearGradient9"
       x1="30.533964"
       y1="8.319665"
       x2="30.533964"
       y2="59.232002"
       gradientUnits="userSpaceOnUse" /></defs><g
     transform="matrix(0.90190712,0,0,0.90190712,3.7092428,4.0264607)"
     id="g8"><circle
       cx="32"
       cy="32"
       r="28"
       style="fill:url(#linearGradient9);stroke:#000000;stroke-opacity:1;stroke-width:1.10876162;stroke-dasharray:none;stroke-linecap:butt;stroke-linejoin:round;fill-opacity:1"
       id="circle5" /><path
       d="M 49,21 A 5.0010001,5.0010001 0 1 0 49.002,31.002 5.0010001,5.0010001 0 0 0 49,21 M 18,23 C 12.478,23 8,27.478 8,33 8,38.522 12.478,43 18,43 23.522,43 28,38.522 28,33 28,27.478 23.522,23 18,23 m 2,6 c 2.208,0 4,1.792 4,4 0,2.208 -1.792,4 -4,4 -2.208,0 -4,-1.792 -4,-4 0,-2.208 1.792,-4 4,-4 m 24.934,4 c -0.125,0 -0.241,0.024 -0.352,0.063 l -14.105,4 -0.079,0.023 h -0.004 l -0.007,0.004 h -0.004 c -0.407,0.14 -0.7,0.517 -0.7,0.96 0,0.423 0.265,0.787 0.641,0.942 h 0.008 l 8.68,4.766 v 0.035 c 0,1.465 -0.668,2.795 -1.75,3.762 -1.104,0.985 -2.635,1.594 -4.332,1.594 a 6.7,6.7 0 0 1 -2.993,-0.684 5.8,5.8 0 0 1 -2.199,-1.879 0.96,0.96 0 0 0 -0.789,-0.406 0.935,0.935 0 0 0 -0.95,0.922 c 0,0.205 0.072,0.393 0.188,0.547 a 7.7,7.7 0 0 0 2.89,2.453 A 8.7,8.7 0 0 0 32.93,51 c 2.186,0 4.17,-0.797 5.613,-2.086 1.048,-0.936 1.812,-2.13 2.16,-3.469 1.416,1.141 3.28,1.828 5.313,1.828 2.186,0 4.174,-0.793 5.617,-2.082 C 53.096,43.885 54,42.074 54,40.071 A 6,6 0 0 0 53.992,39.77 v -0.016 a 0.94,0.94 0 0 0 -0.949,-0.926 0.94,0.94 0 0 0 -0.95,0.926 v 0.023 l 0.005,0.043 q 0.004,0.101 0.004,0.25 c 0,1.466 -0.672,2.795 -1.754,3.762 -1.103,0.985 -2.635,1.594 -4.332,1.594 -1.63,0 -3.108,-0.563 -4.203,-1.485 A 6,6 0 0 1 41.188,43.328 L 45.84,34.531 A 1,1 0 0 0 45.985,34.02 C 45.985,33.456 45.513,33 44.934,33"
       style="opacity:0.1;fill-rule:evenodd;filter:url(#c)"
       id="path5" /><path
       d="m 16.96,7 a 16,16 0 0 0 -4.405,0.61 c -2.55,0.721 -4.213,1.819 -4.5,2.191 A 0.7,0.7 0 0 1 7.898,9.946 c -0.87,0.587 -1.322,2.505 -1.527,4.808 -0.249,2.792 -0.509,5.13 -0.289,7.465 q 0.001,0.011 0.004,0.024 c 0.007,0.106 0.02,0.24 0.027,0.355 1.149,-1.275 2.568,-1.943 3.719,-2.86 3.84,-3.055 6.778,-2.362 9.902,-1.378 2.005,0.631 3.756,1.185 5.004,0.289 0.712,-0.512 1.066,-1.275 1.137,-2.168 0.068,-0.852 -0.106,-1.422 -0.469,-2.418 -0.372,-1.022 -0.942,-2.068 -1.644,-3.05 -1.7,-2.381 -3.353,-3.781 -5.653,-3.966 Q 17.525,7.002 16.961,7 m 30.728,0 q -0.288,0.001 -0.57,0.004 c -1.406,0.01 -2.72,0.067 -3.821,0.16 h -0.012 c -0.163,0.023 -0.338,0.052 -0.508,0.075 5.353,1.88 6.136,6.314 8.324,10.054 1.416,2.296 1.46,3.952 3.215,3.68 0.796,-0.123 1.448,-0.515 1.97,-1.078 0.765,-0.829 1.257,-2.034 1.51,-3.352 0.261,-1.354 0.263,-2.814 0.044,-4.117 C 57.601,11.002 57.111,9.794 56.415,9.184 55.098,8.293 53.268,7.378 50.009,7.149 48.637,7.052 49.03,7.004 47.689,7"
       style="opacity:0.2;fill-rule:evenodd;filter:url(#d)"
       id="path6" /><path
       d="m 47.687,6 q -0.288,0 -0.57,0.003 a 50,50 0 0 0 -3.82,0.16 l -0.01,0.002 c -0.164,0.022 -0.339,0.051 -0.508,0.074 5.353,1.88 6.135,6.313 8.324,10.053 1.415,2.295 1.456,3.95 3.212,3.679 0.795,-0.123 1.45,-0.512 1.97,-1.075 0.766,-0.83 1.259,-2.036 1.512,-3.354 0.261,-1.355 0.263,-2.815 0.044,-4.118 C 57.601,10 57.109,8.794 56.414,8.183 55.096,7.292 53.269,6.377 50.009,6.147 48.637,6.05 49.029,6.003 47.687,6 M 16.961,6 A 16,16 0 0 0 12.556,6.608 C 10.006,7.329 8.342,8.428 8.054,8.801 A 0.7,0.7 0 0 1 7.899,8.944 c -0.87,0.588 -1.322,2.506 -1.527,4.81 -0.249,2.79 -0.509,5.128 -0.29,7.464 l 0.003,0.024 c 0.007,0.106 0.02,0.243 0.029,0.357 1.148,-1.275 2.567,-1.946 3.719,-2.862 3.84,-3.055 6.78,-2.36 9.903,-1.376 2.005,0.632 3.755,1.183 5.003,0.287 0.712,-0.512 1.065,-1.273 1.137,-2.167 0.068,-0.851 -0.108,-1.422 -0.47,-2.418 -0.372,-1.022 -0.941,-2.068 -1.643,-3.051 -1.7,-2.38 -3.352,-3.78 -5.652,-3.965 A 15,15 0 0 0 16.961,6"
       style="fill:#e4e4e4;fill-rule:evenodd;stroke:#000000;stroke-opacity:1;stroke-width:1.10876162;stroke-dasharray:none;stroke-linecap:butt;stroke-linejoin:round"
       id="path7" /><path
       d="M 49,20 A 5.0010001,5.0010001 0 1 0 49.002,30.002 5.0010001,5.0010001 0 0 0 49,20 M 18,22 C 12.478,22 8,26.478 8,32 8,37.522 12.478,42 18,42 23.522,42 28,37.522 28,32 28,26.478 23.522,22 18,22 m 2,6 c 2.208,0 4,1.792 4,4 0,2.208 -1.792,4 -4,4 -2.208,0 -4,-1.792 -4,-4 0,-2.208 1.792,-4 4,-4 m 24.934,4 q -0.187,0.002 -0.354,0.062 l -14.102,4 -0.08,0.023 -0.005,0.002 -0.008,0.002 -0.002,0.001 c -0.406,0.14 -0.698,0.517 -0.698,0.96 0,0.423 0.263,0.785 0.639,0.94 l 0.008,0.002 8.68,4.764 v 0.037 c 0,1.465 -0.67,2.796 -1.752,3.763 -1.103,0.985 -2.635,1.594 -4.332,1.594 a 6.7,6.7 0 0 1 -2.99,-0.687 5.8,5.8 0 0 1 -2.177,-1.842 Q 27.75,45.603 27.737,45.586 A 0.96,0.96 0 0 0 26.95,45.178 0.937,0.937 0 0 0 26,46.102 a 0.9,0.9 0 0 0 0.186,0.547 7.7,7.7 0 0 0 2.891,2.452 8.7,8.7 0 0 0 3.851,0.899 c 2.187,0 4.174,-0.798 5.616,-2.087 1.049,-0.936 1.81,-2.13 2.157,-3.468 1.416,1.14 3.283,1.83 5.316,1.83 2.187,0 4.173,-0.796 5.616,-2.084 C 53.096,42.884 54,41.074 54,39.07 54,38.985 53.998,38.881 53.992,38.769 v -0.017 a 0.937,0.937 0 0 0 -0.95,-0.924 0.937,0.937 0 0 0 -0.95,0.924 v 0.025 q 0.001,0.021 0.004,0.042 0.004,0.101 0.004,0.25 c 0,1.466 -0.669,2.797 -1.751,3.763 -1.103,0.986 -2.635,1.594 -4.332,1.594 -1.63,0 -3.11,-0.562 -4.205,-1.484 a 6,6 0 0 1 -0.626,-0.614 l 4.655,-8.797 a 1,1 0 0 0 0.142,-0.512 c 0,-0.563 -0.47,-1.02 -1.049,-1.02"
       style="fill:#000000;fill-rule:evenodd;fill-opacity:1"
       id="path8" /></g></svg>
