<?xml version="1.0" encoding="UTF-8" standalone="no"?>
<svg
   width="64"
   height="64"
   version="1.1"
   id="svg5"
   sodipodi:docname="distributor-logo-kaos.svg"
   xml:space="preserve"
   inkscape:version="1.4.2 (ebf0e940d0, 2025-05-08)"
   xmlns:inkscape="http://www.inkscape.org/namespaces/inkscape"
   xmlns:sodipodi="http://sodipodi.sourceforge.net/DTD/sodipodi-0.dtd"
   xmlns="http://www.w3.org/2000/svg"
   xmlns:svg="http://www.w3.org/2000/svg"><sodipodi:namedview
     id="namedview5"
     pagecolor="#505050"
     bordercolor="#eeeeee"
     borderopacity="1"
     inkscape:showpageshadow="0"
     inkscape:pageopacity="0"
     inkscape:pagecheckerboard="0"
     inkscape:deskcolor="#505050"
     inkscape:zoom="2.9648438"
     inkscape:cx="74.540184"
     inkscape:cy="44.01581"
     inkscape:window-width="1920"
     inkscape:window-height="996"
     inkscape:window-x="0"
     inkscape:window-y="0"
     inkscape:window-maximized="1"
     inkscape:current-layer="svg5" /><defs
     id="defs2"><linearGradient
       id="a"
       x1="7.937"
       x2="7.937"
       y1="15.081"
       y2="1.852"
       gradientTransform="scale(3.7796)"
       gradientUnits="userSpaceOnUse"><stop
         offset="0"
         stop-color="#0e71de"
         id="stop1" /><stop
         offset="1"
         stop-color="#25c9ff"
         id="stop2" /></linearGradient><filter
       id="b"
       width="1.2684935"
       height="1.3249816"
       x="-0.13424675"
       y="-0.16249078"
       style="color-interpolation-filters:sRGB"><feGaussianBlur
         stdDeviation="2.573"
         id="feGaussianBlur2" /></filter></defs><path
     d="m 42.239,14 c -0.68,0.016 -1.39,0.093 -2.117,0.238 C 29.714,16.318 23.065,31.998 20.309,40.801 27.727,28.429 33.822,26.127 45.227,19.543 50.121,16.718 46.994,13.885 42.239,14 M 18.442,16 C 16.785,15.998 14.428,17.927 13.005,20.898 8.479,30.348 17.027,44.712 22.407,52 16.952,38.948 18.741,32.784 20.27,19.93 20.598,17.172 19.731,16.002 18.442,16 m 14.395,18.113 c -2.053,-0.087 -4.032,0.198 -5.864,0.973 -5.46,2.311 -7.78,7.905 -1.394,7.512 13.023,-0.802 19.329,-2.286 32.148,4.203 C 52.02,41.881 41.733,34.493 32.837,34.113"
     style="opacity:0.2;filter:url(#b)"
     id="path2"
     transform="matrix(1.2034832,0,0,1.2034832,-9.5448146,-6.7146005)" /><g
     id="g5"
     transform="matrix(1.0989039,0,0,1.0989039,-2.8619658,-3.2636599)"><path
       d="M 57.139325,47.018298 C 49.446872,40.388157 34.159437,29.664283 23.459656,34.191703 c -5.979612,2.529835 -8.520399,8.654009 -1.527758,8.223608 14.262359,-0.878324 21.168482,-2.502456 35.207427,4.602987"
       style="fill:#3eb9ff;stroke-width:1.09517"
       id="path3" /><path
       d="m 16.159273,40.447296 c 3.017185,-9.639659 10.300045,-26.811877 21.698543,-29.089824 6.369491,-1.272584 11.718286,2.273567 5.594113,5.808765 -12.491475,7.21058 -19.168708,9.733844 -27.292656,23.281059"
       style="fill:#007ae0;stroke-width:1.09517"
       id="path4" /><path
       d="M 18.458029,52.713166 C 12.56603,44.731589 3.2034482,29.001707 8.1601738,18.652379 c 2.7707722,-5.784672 8.7766682,-7.964054 7.9552922,-1.062312 -1.673415,14.077276 -3.632668,20.82898 2.342563,35.123099"
       style="fill:#0055b2;stroke-width:1.09517"
       id="path5" /></g></svg>
