<?xml version="1.0" encoding="UTF-8" standalone="no"?>
<svg
   width="64"
   height="64"
   version="1.1"
   id="svg11"
   sodipodi:docname="distributor-logo-vanilla-os.svg"
   xml:space="preserve"
   inkscape:version="1.4.2 (ebf0e940d0, 2025-05-08)"
   xmlns:inkscape="http://www.inkscape.org/namespaces/inkscape"
   xmlns:sodipodi="http://sodipodi.sourceforge.net/DTD/sodipodi-0.dtd"
   xmlns="http://www.w3.org/2000/svg"
   xmlns:svg="http://www.w3.org/2000/svg"><sodipodi:namedview
     id="namedview11"
     pagecolor="#505050"
     bordercolor="#eeeeee"
     borderopacity="1"
     inkscape:showpageshadow="0"
     inkscape:pageopacity="0"
     inkscape:pagecheckerboard="0"
     inkscape:deskcolor="#505050"
     inkscape:zoom="4.2315921"
     inkscape:cx="64.042089"
     inkscape:cy="31.43025"
     inkscape:window-width="1920"
     inkscape:window-height="1003"
     inkscape:window-x="0"
     inkscape:window-y="0"
     inkscape:window-maximized="1"
     inkscape:current-layer="svg11" /><defs
     id="defs4"><linearGradient
       id="a"
       x1="7.937"
       x2="7.937"
       y1="15.081"
       y2="1.852"
       gradientTransform="matrix(3.7796,0,0,3.7796,-7.5426016,-21.032273)"
       gradientUnits="userSpaceOnUse"><stop
         offset="0"
         stop-color="#ffda66"
         id="stop1" /><stop
         offset="1"
         stop-color="#fff670"
         id="stop2" /></linearGradient><linearGradient
       id="b"
       x1="278.26"
       x2="258.8"
       y1="71.187"
       y2="318.24"
       gradientUnits="userSpaceOnUse"><stop
         offset="0"
         stop-color="#ffb74d"
         id="stop3" /><stop
         offset="1"
         stop-color="#ff9000"
         id="stop4" /></linearGradient></defs><g
     id="g11"
     transform="matrix(1.39288,0,0,1.39288,-12.569645,-8.9425916)"><path
       fill="url(#b)"
       d="m 289.11,12.419 c -16.619,14.106 -29.473,26.874 -38.791,38.285 -17.372,21.275 -24.655,45.731 -26.293,52.66 -0.773,3.27 -0.862,11.276 0.922,22.292 -23.312,-22.558 -54.851,-24.502 -90.122,-20.747 -11.147,1.187 -22.307,3.772 -33.033,2.234 3.889,21.447 8.66,36.313 13.873,50.092 9.718,25.69 27.243,44.24 32.421,49.127 3.558,3.36 16.444,10.326 36.724,15.422 -2.653,0.601 -5.695,0.933 -8.068,1.74 -31.684,10.772 -47.37,38.894 -59.516,72.985 -3.762,10.559 -7.38,20.734 -13.415,29.734 21.015,5.79 37.58,8.933 52.258,10.209 27.365,2.377 51.689,-5.37 58.338,-7.917 6.65,-2.548 28.427,-18.295 48.459,-52.928 2.781,-4.809 4.866,-10.012 6.744,-15.441 6.503,25.389 13.9,44.777 22.593,56.648 19.769,27 51.296,33.552 87.46,34.926 11.202,0.425 19.645,1.972 30.04,5.034 -0.771,-21.785 -0.388,-39.68 -3.57,-54.065 -5.93,-26.82 -20.614,-47.697 -25.037,-53.278 -2.912,-3.674 -14.005,-11.855 -31.868,-19.532 11.076,0.75 21.062,0.75 28.75,-1.247 32.389,-8.411 50.114,-35.305 64.734,-68.409 4.528,-10.254 9.877,-16.428 16.558,-24.96 -20.532,-7.32 -37.826,-15.37 -52.37,-17.722 -27.116,-4.384 -51.935,1.547 -58.754,3.599 -2.84,0.854 -8.857,4.421 -16.08,9.955 8.787,-32.141 -5.584,-60.877 -26.864,-90.03 C 298.594,32.031 293.15,22.472 289.11,12.417 Z m -20.785,199.35 c 1.179,1.305 2.029,2.486 3.27,3.82 -0.622,0.024 -1.27,0.08 -1.897,0.109 -0.459,-1.363 -0.915,-2.59 -1.373,-3.93 z"
       transform="matrix(0.11377,-0.00894,0.00896,0.11348,-1.004,11.57)"
       id="path4"
       style="fill:url(#b)" /><path
       fill="none"
       stroke="#ffe57f"
       stroke-linecap="round"
       stroke-miterlimit="1"
       stroke-width="12.823"
       d="M 379.8,328.67 C 331.603,289.804 317.583,266.174 272.97,217.22"
       transform="matrix(0.11377,-0.00894,0.00896,0.11348,-1.004,11.57)"
       id="path5" /><path
       fill="none"
       stroke="#ffe57f"
       stroke-linecap="round"
       stroke-miterlimit="1"
       stroke-width="12.823"
       d="m 260.27,212.28 c 51.135,-20.009 87.478,-32.821 148.27,-45.073"
       transform="matrix(0.11125,-0.02541,0.02548,0.11095,-2.364,16.84)"
       id="path6" /><path
       fill="none"
       stroke="#ffe57f"
       stroke-linecap="round"
       stroke-miterlimit="1"
       stroke-width="12.823"
       d="m 259.32,215.41 c 5.836,-53.577 11.504,-105.83 29.592,-157.88"
       transform="matrix(0.11125,-0.02541,0.02548,0.11095,-2.337,16.468)"
       id="path7" /><path
       fill="none"
       stroke="#ffe57f"
       stroke-linecap="round"
       stroke-miterlimit="1"
       stroke-width="12.823"
       d="m 140.48,106.61 c 38.372,39.706 73.692,75.196 120.11,106.54"
       transform="matrix(0.11125,-0.02541,0.02548,0.11095,-2.421,16.751)"
       id="path8" /><path
       fill="none"
       stroke="#ffe57f"
       stroke-linecap="round"
       stroke-miterlimit="1"
       stroke-width="12.823"
       d="m 107.72,265.66 c 58.955,-13.16 91.924,-28.917 144.75,-55.859"
       transform="matrix(0.10899,-0.03378,0.03387,0.1087,-2.623,19.501)"
       id="path9" /><path
       fill="#ffe57f"
       d="m 37.845,33.125 c 0.046,1.105 -1.548,1.181 -1.56,2.531 -0.009,1.173 -0.232,2.206 -1.137,2.799 -0.905,0.593 -2.067,-0.032 -3.09,0.013 -1.023,0.044 -1.782,0.754 -2.732,0.242 -0.95,-0.512 -0.964,-1.331 -1.513,-2.223 -0.55,-0.892 -1.612,-1.542 -1.658,-2.647 -0.046,-1.105 1.021,-1.633 1.495,-2.57 0.474,-0.937 0.343,-2.372 1.248,-2.965 0.905,-0.593 1.893,0.125 2.916,0.08 1.023,-0.044 2.137,-0.784 3.088,-0.272 0.95,0.512 0.785,1.823 1.334,2.714 0.55,0.892 1.564,1.193 1.61,2.298 z"
       id="path10" /><path
       fill="#fff8e1"
       d="m 36.028,35.77 c -0.458,0.897 -2.032,0.003 -2.544,0.751 -0.523,0.765 -0.593,1.694 -1.546,1.64 -0.87,-0.048 -0.605,-1.603 -1.326,-2.018 -0.721,-0.415 -2.326,0.626 -2.73,-0.324 -0.422,-0.988 1.288,-1.016 1.264,-2.095 -0.023,-1.08 -1.898,-1.685 -1.466,-2.444 0.433,-0.76 2.005,0.057 2.723,-0.363 0.719,-0.42 0.82,-2.25 1.69,-2.253 0.87,-0.003 0.67,1.862 1.391,2.277 0.722,0.415 2.407,-0.507 2.845,0.25 0.438,0.755 -1.868,1.376 -1.865,2.211 0.003,0.835 1.962,1.59 1.564,2.368"
       id="path11" /></g></svg>
