<?xml version="1.0" encoding="UTF-8" standalone="no"?>
<svg
   xml:space="preserve"
   width="64"
   height="64"
   version="1.1"
   id="svg4"
   sodipodi:docname="doom-2016.svg"
   inkscape:version="1.4.2 (ebf0e940d0, 2025-05-08)"
   xmlns:inkscape="http://www.inkscape.org/namespaces/inkscape"
   xmlns:sodipodi="http://sodipodi.sourceforge.net/DTD/sodipodi-0.dtd"
   xmlns:xlink="http://www.w3.org/1999/xlink"
   xmlns="http://www.w3.org/2000/svg"
   xmlns:svg="http://www.w3.org/2000/svg"><sodipodi:namedview
     id="namedview4"
     pagecolor="#505050"
     bordercolor="#eeeeee"
     borderopacity="1"
     inkscape:showpageshadow="0"
     inkscape:pageopacity="0"
     inkscape:pagecheckerboard="0"
     inkscape:deskcolor="#505050"
     inkscape:zoom="4.2315921"
     inkscape:cx="40.882957"
     inkscape:cy="29.303391"
     inkscape:window-width="1920"
     inkscape:window-height="1003"
     inkscape:window-x="0"
     inkscape:window-y="0"
     inkscape:window-maximized="1"
     inkscape:current-layer="svg4" /><defs
     id="defs4"><linearGradient
       id="b"><stop
         offset="0"
         style="stop-color:#fff;stop-opacity:.72158299"
         id="stop1" /><stop
         offset="1"
         style="stop-color:#fff;stop-opacity:1"
         id="stop2" /></linearGradient><linearGradient
       id="a"
       x1="7.937"
       x2="7.937"
       y1="15.081"
       y2="1.852"
       gradientTransform="scale(3.7796)"
       gradientUnits="userSpaceOnUse"><stop
         offset="0"
         stop-color="#363636"
         style="stop-color:#1a1a1a;stop-opacity:1"
         id="stop3" /><stop
         offset="1"
         stop-color="#6c6c6c"
         style="stop-color:#333;stop-opacity:1"
         id="stop4" /></linearGradient><linearGradient
       xlink:href="#a"
       id="c"
       x1="7.937"
       x2="7.937"
       y1="15.081"
       y2="1.852"
       gradientTransform="matrix(3.7796,0,0,3.7796,-3.2719989,-15.327947)"
       gradientUnits="userSpaceOnUse" /><linearGradient
       xlink:href="#b"
       id="d"
       x1="30.287"
       x2="30.287"
       y1="18.54"
       y2="46.121"
       gradientUnits="userSpaceOnUse" /><linearGradient
       gradientUnits="userSpaceOnUse"
       y2="43.96891"
       x2="44.996239"
       y1="6.0181603"
       x1="7.0454888"
       id="linearGradient1590"
       xlink:href="#linearGradient1588"
       inkscape:collect="always"
       gradientTransform="matrix(1.0026348,0,0,1.0026348,0.088014,0.489462)" /><linearGradient
       id="linearGradient1588"
       inkscape:collect="always"><stop
         id="stop1584"
         offset="0"
         style="stop-color:#141414;stop-opacity:1" /><stop
         id="stop1586"
         offset="1"
         style="stop-color:#323232;stop-opacity:1" /></linearGradient></defs><path
     d="M 7.50007,4.500001 C 5.838085,4.500001 4.5,5.8380871 4.5,7.500073 v 48.999856 c 0,1.661981 1.338085,3.00007 3.00007,3.00007 h 48.99985 c 1.66199,0 3.00008,-1.338089 3.00008,-3.00007 V 7.500073 c 0,-1.6619859 -1.33809,-3.000072 -3.00008,-3.000072 z"
     style="fill:url(#linearGradient1590);fill-opacity:1;stroke:none;stroke-width:0.210553;stroke-linecap:round"
     id="rect1572" /><path
     d="M9.092 44.625c-.071-.071-.03-.25.092-.397.122-.146.155-.267.073-.267-.081 0-.043-.126.085-.28.162-.195.168-.32.021-.412-.116-.072-.158-.218-.092-.325.066-.106.017-.317-.109-.469s-.195-.573-.153-.936c.07-.612.35-.89 1.243-1.227.11-.042.14-.14.067-.218-.073-.079-.33-.037-.573.092-.35.188-.475.18-.612-.033-.095-.148-.155-4.558-.134-9.799l.04-9.53-.886-.763-.886-.764h5.62c4.862 0 5.619.04 5.619.297 0 .165.095.299.21.299.116 0 .15-.099.076-.219-.098-.158-.033-.16.237-.003 1.13.654 1.058.056 1.072 8.883l.013 8.126-2.01 1.455-2.01 1.454-1.192-.698c-.655-.384-1.227-.698-1.27-.698s-.874-.433-1.847-.961c-2.026-1.101-2.505-1.31-2.325-1.02.069.111.934.608 1.923 1.105.989.496 1.9.992 2.023 1.101.125.11.713.473 1.308.808 1.007.567 1.056.627.706.883-.206.15-.536.223-.733.16-.262-.083-.358-.01-.358.273q-.001.388-1.94 1.838l-2.554 1.913c-.337.254-.672.404-.744.332m4.243-4.244a.2.2 0 0 0-.199-.199.2.2 0 0 0-.199.199.2.2 0 0 0 .199.199.2.2 0 0 0 .199-.199m-.681-1.416c.168-.273-.196-.206-.624.113-.372.278-.37.285.065.175.248-.062.5-.192.559-.288m1.972-.969c.07-.112-.01-.146-.187-.078-.344.132-.407.275-.121.275.103 0 .242-.089.308-.197m.203-3.728 1.283-.948.014-1.99c.038-5.355-.032-7.352-.265-7.504-.131-.085-.932-.143-1.78-.128-1.429.025-1.835.167-1.343.472.125.077.2 2.197.2 5.702 0 6.359-.185 5.931 1.89 4.396m4.159-3.385a184 184 0 0 0-.071-1.504c-.007-.088-.11-.1-.23-.026-.205.126-.136 1.209.154 2.425.175.732.209.523.147-.895m-6.84-.834c-.284-.53-.548-.663-.72-.363-.08.139-.073.185.017.104s.288.03.441.249c.356.508.532.515.261.01m-.802-6.576c0-.11-.04-.199-.088-.199s-.143.09-.21.2c-.068.109-.029.198.087.198s.21-.09.21-.199m2.785-.199c0-.109-.068-.205-.15-.214a9 9 0 0 1-.508-.083c-.29-.055-.314-.014-.125.214.27.324.783.379.783.083m-4.489-2.366c.06-.098-.019-.227-.177-.288q-.287-.11-.176.178c.128.334.2.357.353.11m.71-.418c0-.11-.202-.2-.448-.202-.265-.002-.355-.063-.221-.15.161-.103.136-.23-.088-.438-.278-.258-.3-.253-.183.05.08.207.035.345-.111.349-.134.004-.019.135.255.291.595.34.795.366.795.1m-1.393-.476c0-.043-.14-.132-.309-.197-.177-.068-.257-.035-.187.078.117.19.496.28.496.119m9.096-.44c-.066-.066-.238-.073-.381-.016-.159.064-.112.11.12.12.21.009.327-.038.261-.104m35.255 24.18c-.242-.153-.23-.185.068-.187.198-.002.304-.094.235-.206-.069-.11-.202-.154-.296-.096-.095.059-.226.02-.291-.087-.066-.107-.24-.147-.388-.09-.147.056-.452-.132-.677-.418-.225-.285-.46-.515-.521-.509-.407.037-.51-.027-.51-.313 0-.276.046-.284.327-.05.292.242.31.22.176-.204-.146-.462-.127-.471.772-.37.768.086.884.058.694-.17-.125-.152-.374-.277-.552-.278-.276-.003-.28-.03-.03-.188.16-.102.232-.245.159-.318s-.451.063-.84.303l-.706.437-.031-3.945c-.017-2.17-.014-4.146.007-4.392s-.034-.447-.124-.447c-.158 0-.592 1.322-1.063 3.245-.26 1.057-.405 1.025-.731-.162-.683-2.48-.89-3.083-1.056-3.083-.107 0-.185 1.546-.185 3.68v3.68l-2.002-1.445-2.001-1.443.018-5.361c.014-3.973.082-5.406.262-5.534.19-.135.188-.194-.007-.273-.182-.074-.248-.867-.248-3.002 0-1.595.06-2.84.133-2.767s.342-.003.597-.17c.56-.367.584-.296.095.268-.203.233-.42.372-.484.309-.063-.064-.062.088.003.337l.118.453.16-.43q.157-.432.48-.306c.206.079.306.025.282-.153-.1-.712.008-.773 1.374-.773h1.367l.335 1.195c.184.658.272 1.298.194 1.423-.081.133-.053.174.067.1.122-.075.26.145.332.531.068.363.243.823.389 1.022.239.328.288.27.505-.611.492-1.988 1.074-3.752 1.159-3.51.048.136.175.248.282.248s.139-.09.071-.199c-.074-.12.191-.199.668-.199.451 0 .83.107.882.249.073.199.144.199.355 0 .167-.158.87-.249 1.932-.249h1.669l-1.017.804-1.016.803.008 7.999c.014 13.268.017 13.074-.215 13.02-.118-.027-.364.17-.547.44-.182.268-.22.42-.083.336.172-.106.248-.004.248.332 0 .61-.405.975-.802.724m-.192-3.572c0-.11-.04-.199-.088-.199s-.143.09-.21.2c-.068.108-.029.198.087.198s.21-.09.21-.199m.392-4.649c.01-.299-.476.213-.856.904l-.364.662.607-.696c.334-.383.61-.775.613-.87m.702.074c.067-.11.028-.199-.088-.199s-.21.09-.21.2c0 .108.039.198.087.198s.143-.09.21-.199m-.742-4.935c.043-.13-.063-.237-.236-.237a.316.316 0 0 0-.315.315c0 .352.428.29.551-.078m-1.41-1.666c-.063-.16-.11-.112-.12.12-.009.21.038.327.104.26.067-.065.074-.237.016-.38m.461-5.135a.2.2 0 0 0-.199-.199.2.2 0 0 0-.199.2.2.2 0 0 0 .2.198.2.2 0 0 0 .198-.199m1.591-1.193a.2.2 0 0 0-.199-.2.2.2 0 0 0-.199.2.2.2 0 0 0 .2.199.2.2 0 0 0 .198-.2m-9.204-1.314c-.066-.066-.237-.073-.38-.016-.16.064-.112.11.12.12.209.01.326-.038.26-.104m9.503-.079c.067-.11.028-.199-.088-.199s-.21.09-.21.2c0 .109.039.198.087.198s.143-.09.21-.199m-7.36-.596c-.068-.11-.207-.2-.31-.2s-.187.09-.187.2c0 .109.14.198.31.198s.254-.09.187-.198m4.678-.296c.108.066.197.003.198-.14.003-.211.035-.21.172.005.129.203.192.173.271-.13.098-.374.069-.38-.563-.116-.809.339-.943.347-.759.049.088-.142.055-.176-.088-.088a.56.56 0 0 0-.23.436c0 .233.084.249.403.078.22-.118.49-.16.596-.094m1.783-.207c-.139-.166-.304-.251-.367-.188-.063.064.016.199.177.3.421.267.476.234.19-.112m1.396.105a.2.2 0 0 0-.199-.2.2.2 0 0 0-.199.2.2.2 0 0 0 .199.199.2.2 0 0 0 .199-.2m.796-.597c0-.11-.04-.199-.088-.199s-.143.09-.21.199c-.068.11-.029.199.087.199s.21-.09.21-.199m-1.322 23.97c.164-.165.36-.3.437-.3.076 0 .026.135-.11.3-.136.163-.333.297-.436.297-.104 0-.055-.134.11-.298m-30.353-5.46-3.434-2.51V28.04c0-6.246.049-7.643.264-7.598.145.03.21-.03.147-.134-.065-.104.144-.375.463-.602.528-.376.86-.413 3.704-.413 2.581 0 3.105.048 3.017.276-.076.198.01.245.308.168.295-.077.37-.038.263.136-.114.184-.05.181.26-.011.294-.184.342-.3.17-.41q-.247-.154.121-.156c.2-.001.497.131.66.296.18.178.209.298.074.298-.123 0-.166.095-.094.21.083.135.22.09.376-.125.23-.316.28-.315.777.01.644.423.767 1.604.182 1.757-.332.087-.332.092 0 .114.324.021.348.467.348 6.375 0 5.872-.026 6.36-.348 6.468-.192.064-.572.299-.845.522-.493.402-.49.402.348-.008l.845-.413-.007 1.645-.006 1.645-1.628 1.194c-.896.656-1.699 1.171-1.784 1.144-.086-.028-.156.025-.156.116 0 .465-.892-.054-4.025-2.343m5.22 1.282c.268-.324.204-.364-.283-.178-.173.067-.315.2-.315.299 0 .275.323.21.597-.121m-2.388-.1c0-.109-.095-.198-.21-.198-.116 0-.156.089-.088.198.067.11.162.2.21.2.049 0 .088-.09.088-.2m.796-.087c0-.049-.09-.143-.2-.211-.109-.068-.198-.028-.198.088s.09.21.199.21.199-.04.199-.087m-1.691-1.703c.068-.11-.022-.199-.199-.199s-.266.09-.199.2c.068.109.157.198.2.198.04 0 .13-.09.198-.199m1.646-6.119c.032-2.193.13-3.628.248-3.628.107 0 .195-.094.195-.21s-.087-.158-.192-.092c-.117.072-.214-.645-.249-1.829l-.057-1.946-1.26-.06c-.758-.036-1.373.033-1.542.174-.227.188-.28 1.106-.28 4.785 0 5.124-.173 4.521 1.69 5.92 1.368 1.026 1.385.988 1.447-3.114m-5.728-2.936c-.138-.167-.303-.252-.366-.188-.064.063.016.198.177.3.421.266.476.234.19-.112m.203-4.559c0-.048-.09-.143-.199-.21-.11-.068-.199-.028-.199.087 0 .116.09.211.2.211.109 0 .198-.04.198-.088m-.398-1.503c0-.11-.094-.2-.21-.2s-.156.09-.088.2.162.199.21.199c.049 0 .088-.09.088-.2m5.57-.796a.205.205 0 0 0-.21-.199c-.117 0-.156.09-.088.2.067.108.162.198.21.198s.088-.09.088-.199m-2.685-1.989c.067-.11.028-.199-.088-.199s-.21.09-.21.199.039.199.087.199.143-.09.21-.199m9.3 19.626-1.64-1.227-.001-8.874-.001-8.875.791-.524c.79-.523.797-.524 4.88-.524 4.054 0 4.09.004 4.268.448.1.246.186.324.193.174.01-.219.07-.224.309-.027.162.135.245.327.184.427-.062.1.005.157.148.127.21-.044.272 1.395.32 7.468l.058 7.523-.572.535c-.315.294-.966.801-1.448 1.128s-1.713 1.216-2.736 1.977c-1.681 1.25-1.88 1.349-2.062 1.022-.151-.27-.242-.298-.356-.113-.227.366-.488.126-1.41-1.301-.89-1.377-1.314-1.781-.565-.54.776 1.287 1.416 2.437 1.347 2.42-.037-.01-.805-.569-1.707-1.244m4.275-5.117 1.244-.993V28.66c0-3.673-.054-4.59-.281-4.778-.17-.14-.784-.21-1.542-.174l-1.26.06-.054 5.467c-.029 3.007-.01 5.58.044 5.719.166.433.567.27 1.85-.755m4.006-3.782c-.32-.197-.465-.092-.282.203a.25.25 0 0 0 .34.088c.133-.083.113-.185-.058-.29m-5.945-9.245c0-.235-.376-.234-.466 0q-.11.288.178.177c.158-.06.288-.14.288-.177m1.392.11c0-.11-.039-.2-.087-.2-.049 0-.143.09-.21.2-.069.109-.03.198.087.198s.21-.09.21-.199m-3.427-1.033a.47.47 0 0 0-.32-.283c-.132-.026-.148-.002-.036.054.113.056.155.184.093.284s-.01.182.115.182.192-.107.148-.237m.976-.101c-.203-.053-.317-.213-.26-.363.065-.167-.03-.257-.254-.24-.577.043-.268.654.342.677.31.012.382-.02.172-.074m5.52-.237c.193-.31-.72-.41-1.02-.11-.25.25-.21.287.312.287.33 0 .649-.08.709-.177m1.13-.28c-.256-.255-.515-.058-.326.248.073.118.224.159.336.09q.203-.125-.01-.338"
     style="fill:url(#d);stroke-width:.198914"
     id="path4" /></svg>
