<?xml version="1.0" encoding="UTF-8" standalone="no"?>
<svg
   width="64"
   height="64"
   viewBox="0 0 16.933 16.933"
   version="1.1"
   id="svg10"
   sodipodi:docname="dynamic-wallpaper.svg"
   xml:space="preserve"
   inkscape:version="1.4.2 (ebf0e940d0, 2025-05-08)"
   xmlns:inkscape="http://www.inkscape.org/namespaces/inkscape"
   xmlns:sodipodi="http://sodipodi.sourceforge.net/DTD/sodipodi-0.dtd"
   xmlns:xlink="http://www.w3.org/1999/xlink"
   xmlns="http://www.w3.org/2000/svg"
   xmlns:svg="http://www.w3.org/2000/svg"><sodipodi:namedview
     id="namedview10"
     pagecolor="#505050"
     bordercolor="#eeeeee"
     borderopacity="1"
     inkscape:showpageshadow="0"
     inkscape:pageopacity="0"
     inkscape:pagecheckerboard="0"
     inkscape:deskcolor="#505050"
     showgrid="false"
     inkscape:zoom="8.4631843"
     inkscape:cx="43.009816"
     inkscape:cy="25.40415"
     inkscape:window-width="1920"
     inkscape:window-height="1003"
     inkscape:window-x="0"
     inkscape:window-y="0"
     inkscape:window-maximized="1"
     inkscape:current-layer="svg10"><inkscape:grid
       id="grid10"
       units="px"
       originx="0"
       originy="0"
       spacingx="0.26457812"
       spacingy="0.26457812"
       empcolor="#0099e5"
       empopacity="0.30196078"
       color="#0099e5"
       opacity="0.14901961"
       empspacing="5"
       enabled="true"
       visible="false" /></sodipodi:namedview><defs
     id="defs7"><linearGradient
       id="linearGradient18"
       inkscape:collect="always"><stop
         style="stop-color:#4b258d;stop-opacity:1"
         offset="0"
         id="stop18" /><stop
         style="stop-color:#cc5eb9;stop-opacity:1"
         offset="1"
         id="stop19" /></linearGradient><linearGradient
       id="linearGradient15"
       inkscape:collect="always"><stop
         style="stop-color:#f39060;stop-opacity:1"
         offset="0"
         id="stop15" /><stop
         style="stop-color:#feb90a;stop-opacity:1"
         offset="1"
         id="stop16" /></linearGradient><linearGradient
       id="d"
       x1="-896.07"
       x2="-895.11"
       y1="-476.09"
       y2="-475.27"
       gradientTransform="matrix(-7.6995,13.034,9.0054,11.144,-2599.3,16965.067)"
       gradientUnits="userSpaceOnUse"><stop
         offset="0"
         stop-color="#251480"
         id="stop1" /><stop
         offset="1"
         stop-color="#e96bc3"
         id="stop2" /></linearGradient><linearGradient
       id="c"
       x1="-895.8"
       x2="-895.14"
       y1="-475.97"
       y2="-475.37"
       gradientTransform="matrix(8.2643,-13.07,-9.0299,-11.961,3110.4,-17400.933)"
       gradientUnits="userSpaceOnUse"><stop
         offset="0"
         stop-color="#ffbe00"
         id="stop3" /><stop
         offset="1"
         stop-color="#f39060"
         id="stop4" /></linearGradient><linearGradient
       id="a"
       x1="7.937"
       x2="7.937"
       y1="15.081"
       y2="1.852"
       gradientTransform="translate(.002 .002)scale(.99977)"
       gradientUnits="userSpaceOnUse"><stop
         offset="0"
         stop-color="#767574"
         id="stop5" /><stop
         offset="1"
         stop-color="#d1e7ee"
         id="stop6" /></linearGradient><linearGradient
       xlink:href="#a"
       id="b"
       x1="7.937"
       x2="7.937"
       y1="15.081"
       y2="1.852"
       gradientTransform="translate(.002 .002)scale(.99977)"
       gradientUnits="userSpaceOnUse" /><clipPath
       id="g"><rect
         width="14.814"
         height="14.814"
         x="1.06"
         y="1.052"
         fill="url(#b)"
         rx="3.439"
         ry="3.439"
         id="rect6" /></clipPath><clipPath
       id="e"><rect
         width="14.814"
         height="14.814"
         x="1.06"
         y="1.052"
         fill="url(#b)"
         rx="3.439"
         ry="3.439"
         id="rect7" /></clipPath><filter
       id="f"
       width="1.2097997"
       height="1.4899027"
       x="-0.10489987"
       y="-0.24495134"
       color-interpolation-filters="sRGB"><feGaussianBlur
         stdDeviation=".553"
         id="feGaussianBlur7" /></filter><linearGradient
       id="linearGradient873"
       x1="-41.43"
       x2="-41.43"
       y1="-6.3007002"
       y2="9.5742998"
       gradientTransform="matrix(0.93330396,0,0,0.74997637,46.45971,7.3710822)"
       gradientUnits="userSpaceOnUse"><stop
         stop-color="#333"
         offset="0"
         id="stop3-3" /><stop
         stop-color="#484848"
         offset="1"
         id="stop4-6" /></linearGradient><filter
       id="filter1046"
       x="-0.39750709"
       y="-0.39752041"
       width="1.7950142"
       height="1.9148042"
       color-interpolation-filters="sRGB"><feFlood
         flood-color="rgb(0,0,0)"
         flood-opacity=".81109"
         result="flood"
         id="feFlood2" /><feComposite
         in="flood"
         in2="SourceGraphic"
         operator="in"
         result="composite1"
         id="feComposite2" /><feGaussianBlur
         in="composite1"
         result="blur"
         stdDeviation="2.4793367866847822"
         id="feGaussianBlur2" /><feOffset
         dx="0"
         dy="2.3952680811036746"
         result="offset"
         id="feOffset2" /><feComposite
         in="SourceGraphic"
         in2="offset"
         result="composite2"
         id="feComposite3" /></filter><linearGradient
       inkscape:collect="always"
       xlink:href="#linearGradient15"
       id="linearGradient16"
       x1="6.0380139"
       y1="3.9686718"
       x2="6.0380139"
       y2="12.964328"
       gradientUnits="userSpaceOnUse" /><linearGradient
       inkscape:collect="always"
       xlink:href="#linearGradient18"
       id="linearGradient19"
       x1="11.454114"
       y1="3.9686718"
       x2="11.454114"
       y2="12.964328"
       gradientUnits="userSpaceOnUse" /></defs><g
     id="g19"
     transform="matrix(1.0178572,0,0,1.0178572,-0.15118803,-0.15118803)"><rect
       x="1.0583127"
       y="2.5134923"
       width="14.816375"
       height="11.906015"
       ry="1.3228908"
       fill="url(#linearGradient873)"
       stroke-width="0.836633"
       id="rect5"
       style="fill:#deddda;fill-opacity:1"
       rx="1.3228908" /><rect
       x="2.248914"
       y="3.4395158"
       width="12.435172"
       height="10.053968"
       ry="0.53424937"
       fill="#202020"
       stroke-width="0.704329"
       id="rect6-7"
       rx="0.53098565"
       style="fill:#000000;fill-opacity:1" /><path
       id="rect10"
       style="fill:url(#linearGradient19);fill-opacity:1"
       d="M 9.0323458,3.9686719 8.2153575,12.964328 h 5.3106825 0.363278 c 0.14713,0 0.265612,-0.116704 0.265612,-0.261477 V 11.264207 5.1401535 4.2301495 c 0,-0.1447733 -0.118482,-0.2614776 -0.265612,-0.2614776 h -0.01344 z" /><path
       id="path14"
       style="fill:url(#linearGradient16);fill-opacity:1"
       d="M 9.0323458,3.9686719 H 3.0436819 c -0.1471303,0 -0.2656116,0.1167043 -0.2656116,0.2614776 v 8.4727015 c 0,0.144773 0.1184813,0.261477 0.2656116,0.261477 h 5.1716756 z" /><path
       fill="#ffffff"
       d="M 14.793,9.925 14.76,9.908 c -0.24,0.035 -0.48,0 -0.72,-0.052 A 1.92,1.92 0 0 1 12.7,7.507 1.9,1.9 0 0 1 13.027,6.856 V 6.82 L 12.992,6.803 a 1.98,1.98 0 0 0 -1.698,1.44 2.02,2.02 0 0 0 0.189,1.51 1.92,1.92 0 0 0 1.2,0.925 c 0.173,0.053 0.361,0.069 0.533,0.069 A 1.98,1.98 0 0 0 14.792,9.959 Z M 4.06,10.131 a 0.24,0.24 0 0 0 -0.291,0.068 l -0.257,0.463 a 0.24,0.24 0 0 0 0.068,0.29 0.25,0.25 0 0 0 0.104,0.036 0.24,0.24 0 0 0 0.188,-0.103 l 0.257,-0.462 c 0.07,-0.104 0.035,-0.242 -0.07,-0.292 z M 2.74,7.816 3.203,8.073 C 3.238,8.09 3.273,8.108 3.306,8.108 A 0.24,0.24 0 0 0 3.495,8.004 0.24,0.24 0 0 0 3.426,7.712 L 2.963,7.456 A 0.24,0.24 0 0 0 2.673,7.525 C 2.621,7.627 2.655,7.765 2.741,7.815 Z M 5.621,7.422 C 5.655,7.438 5.689,7.457 5.724,7.457 A 0.24,0.24 0 0 0 5.913,7.352 L 6.169,6.891 A 0.24,0.24 0 0 0 6.102,6.599 0.24,0.24 0 0 0 5.81,6.667 L 5.552,7.13 C 5.484,7.25 5.518,7.37 5.622,7.42 Z M 6.924,9.736 6.46,9.48 a 0.24,0.24 0 0 0 -0.29,0.068 0.24,0.24 0 0 0 0.068,0.29 l 0.464,0.257 A 0.2,0.2 0 0 0 6.804,10.13 0.24,0.24 0 0 0 6.993,10.028 C 7.061,9.925 7.027,9.805 6.923,9.736 Z M 3.494,9.565 C 3.444,9.462 3.306,9.428 3.204,9.495 L 2.758,9.736 c -0.103,0.052 -0.137,0.19 -0.07,0.292 0.035,0.068 0.104,0.103 0.19,0.103 A 0.2,0.2 0 0 0 2.98,10.096 L 3.443,9.84 C 3.513,9.788 3.546,9.651 3.495,9.565 Z M 3.769,7.353 c 0.035,0.069 0.103,0.103 0.19,0.103 a 0.2,0.2 0 0 0 0.1,-0.035 C 4.164,7.371 4.197,7.233 4.129,7.13 L 3.872,6.667 C 3.822,6.564 3.684,6.529 3.581,6.599 3.477,6.651 3.443,6.787 3.511,6.891 Z m 2.418,0.652 c 0.035,0.07 0.102,0.102 0.188,0.102 0.035,0 0.07,-0.017 0.103,-0.034 L 6.941,7.817 C 7.044,7.765 7.078,7.627 7.011,7.525 A 0.203,0.203 0 0 0 6.719,7.455 L 6.255,7.712 C 6.169,7.765 6.135,7.902 6.187,8.004 Z M 5.913,10.199 A 0.2,0.2 0 0 0 5.621,10.131 c -0.103,0.05 -0.137,0.188 -0.07,0.292 l 0.258,0.462 c 0.035,0.068 0.104,0.103 0.189,0.103 0.035,0 0.069,-0.018 0.104,-0.035 0.102,-0.05 0.136,-0.188 0.067,-0.291 z M 3.289,8.776 A 0.2,0.2 0 0 0 3.083,8.571 H 2.346 A 0.2,0.2 0 0 0 2.141,8.776 0.2,0.2 0 0 0 2.346,8.981 H 3.083 A 0.21,0.21 0 0 0 3.289,8.776 M 4.833,7.216 A 0.2,0.2 0 0 0 5.038,7.01 V 6.273 A 0.2,0.2 0 0 0 4.833,6.067 0.2,0.2 0 0 0 4.626,6.273 V 7.01 A 0.21,0.21 0 0 0 4.833,7.216 M 7.336,8.57 H 6.598 A 0.2,0.2 0 0 0 6.393,8.775 0.2,0.2 0 0 0 6.598,8.98 H 7.336 A 0.2,0.2 0 0 0 7.541,8.775 C 7.558,8.655 7.456,8.57 7.336,8.57 M 4.85,10.336 a 0.2,0.2 0 0 0 -0.206,0.207 v 0.736 A 0.2,0.2 0 0 0 4.85,11.485 0.2,0.2 0 0 0 5.055,11.279 V 10.543 A 0.21,0.21 0 0 0 4.85,10.336 m 0,-2.691 A 1.14,1.14 0 0 0 3.717,8.776 c 0,0.618 0.515,1.132 1.133,1.132 A 1.14,1.14 0 0 0 5.98,8.776 1.14,1.14 0 0 0 4.85,7.646 Z"
       clip-path="url(#g)"
       id="path18"
       transform="matrix(0.73191491,0,0,0.73191491,2.2693999,2.0432268)" /></g></svg>
