<?xml version="1.0" encoding="UTF-8" standalone="no"?>
<svg
   width="64"
   height="64"
   version="1"
   id="svg2"
   sodipodi:docname="enpass.svg"
   xml:space="preserve"
   inkscape:version="1.4.2 (ebf0e940d0, 2025-05-08)"
   xmlns:inkscape="http://www.inkscape.org/namespaces/inkscape"
   xmlns:sodipodi="http://sodipodi.sourceforge.net/DTD/sodipodi-0.dtd"
   xmlns="http://www.w3.org/2000/svg"
   xmlns:svg="http://www.w3.org/2000/svg"><sodipodi:namedview
     id="namedview2"
     pagecolor="#505050"
     bordercolor="#eeeeee"
     borderopacity="1"
     inkscape:showpageshadow="0"
     inkscape:pageopacity="0"
     inkscape:pagecheckerboard="0"
     inkscape:deskcolor="#505050"
     inkscape:zoom="4.2315921"
     inkscape:cx="43.009816"
     inkscape:cy="9.4527068"
     inkscape:window-width="1920"
     inkscape:window-height="1003"
     inkscape:window-x="0"
     inkscape:window-y="0"
     inkscape:window-maximized="1"
     inkscape:current-layer="svg2" /><defs
     id="defs2"><linearGradient
       id="a"
       x1="7.937"
       x2="7.937"
       y1="15.081"
       y2="1.852"
       gradientTransform="scale(3.7796)"
       gradientUnits="userSpaceOnUse"><stop
         offset="0"
         stop-color="#124aa0"
         id="stop1" /><stop
         offset="1"
         stop-color="#008bd1"
         id="stop2" /></linearGradient></defs><circle
     style="opacity:1;fill:#114aa1;stroke-width:29.8701;stroke-linejoin:round;fill-opacity:1"
     id="path3"
     cx="32"
     cy="32"
     r="30" /><path
     fill="#fff"
     d="M20.537 18c-3.036 0-5.992 2.477-5.479 5.455l3.288 19.09C18.859 45.524 20.79 48 23.826 48h15.348c3.036 0 4.967-2.476 5.48-5.455l3.288-19.09C48.455 20.477 45.499 18 42.463 18zM31.5 25a5.5 5.5 0 0 1 5.5 5.5 5.5 5.5 0 0 1-3 4.898V40.5c0 .831-.669 1.5-1.5 1.5h-2c-.831 0-1.5-.669-1.5-1.5v-5.107a5.5 5.5 0 0 1-3-4.893 5.5 5.5 0 0 1 5.5-5.5"
     id="path2" /></svg>
