<?xml version="1.0" encoding="UTF-8" standalone="no"?>
<svg
   xml:space="preserve"
   width="64"
   height="64"
   version="1.1"
   id="svg5"
   sodipodi:docname="eudic.svg"
   inkscape:version="1.4.2 (ebf0e940d0, 2025-05-08)"
   xmlns:inkscape="http://www.inkscape.org/namespaces/inkscape"
   xmlns:sodipodi="http://sodipodi.sourceforge.net/DTD/sodipodi-0.dtd"
   xmlns="http://www.w3.org/2000/svg"
   xmlns:svg="http://www.w3.org/2000/svg"><sodipodi:namedview
     id="namedview5"
     pagecolor="#505050"
     bordercolor="#eeeeee"
     borderopacity="1"
     inkscape:showpageshadow="0"
     inkscape:pageopacity="0"
     inkscape:pagecheckerboard="0"
     inkscape:deskcolor="#505050"
     inkscape:zoom="4.2315921"
     inkscape:cx="-4.4900357"
     inkscape:cy="7.5621655"
     inkscape:window-width="1920"
     inkscape:window-height="1003"
     inkscape:window-x="0"
     inkscape:window-y="0"
     inkscape:window-maximized="1"
     inkscape:current-layer="svg5" /><defs
     id="defs2"><linearGradient
       id="a"
       x1="7.937"
       x2="7.937"
       y1="15.081"
       y2="1.852"
       gradientTransform="matrix(3.7796,0,0,3.7796,0,-77.512196)"
       gradientUnits="userSpaceOnUse"><stop
         offset="0"
         stop-color="#0e71de"
         id="stop1" /><stop
         offset="1"
         stop-color="#25c9ff"
         id="stop2" /></linearGradient></defs><rect
     width="57"
     height="57"
     x="3.5"
     y="3.5"
     fill="#ffcc00"
     fill-rule="evenodd"
     rx="8.7708244"
     ry="8.7708244"
     id="rect1-3"
     style="fill:#1682e9;fill-opacity:1;stroke-width:4.14304" /><g
     id="g6"
     transform="translate(10.877473,0.99714851)"><rect
       style="opacity:1;fill:#dceeff;fill-opacity:1;stroke:none;stroke-width:6.49471;stroke-linejoin:round;stroke-dasharray:none;stroke-opacity:1"
       id="rect6"
       width="11.774817"
       height="8.2824383"
       x="46.518383"
       y="11.472251"
       rx="4.1412191"
       ry="4.1412191"
       transform="rotate(30)" /><circle
       style="opacity:0.2;fill:none;fill-opacity:1;stroke:#000000;stroke-width:5.00022;stroke-linejoin:round;stroke-dasharray:none;stroke-opacity:1"
       id="circle6"
       cx="20.920406"
       cy="32.546066"
       r="14.999891" /><circle
       style="opacity:1;fill:none;fill-opacity:1;stroke:#e2f1ff;stroke-width:5.00022;stroke-linejoin:round;stroke-dasharray:none;stroke-opacity:1"
       id="path5"
       cx="21.000002"
       cy="31.002851"
       r="14.999891" /></g><path
     d="m 31.805782,36.738683 -1.152967,-2.96262 h -3.793413 l -1.139715,2.96262 H 24.5 l 3.739946,-9.611261 h 1.085791 l 3.726695,9.611261 z M 29.218347,29.80854 c -0.02681,-0.07159 -0.07145,-0.201225 -0.133896,-0.388893 -0.06245,-0.187667 -0.124909,-0.379752 -0.187364,-0.576255 -0.05392,-0.205642 -0.09871,-0.362082 -0.134353,-0.469321 -0.06245,0.277236 -0.134048,0.549903 -0.214782,0.817999 -0.08012,0.258957 -0.147148,0.464447 -0.201072,0.61647 l -1.085334,2.895442 h 3.029339 z m 7.707927,-0.37564 c 0.875883,0 1.523732,0.192237 1.943547,0.576712 C 39.28994,30.393782 39.5,31.005834 39.5,31.845769 v 4.892913 H 38.642244 L 38.414209,35.71961 h -0.05347 c -0.312881,0.393311 -0.643584,0.683799 -0.99211,0.871467 -0.33969,0.187668 -0.813429,0.281501 -1.421215,0.281501 -0.651963,0 -1.192574,-0.169693 -1.621832,-0.509079 -0.428955,-0.348525 -0.643432,-0.889288 -0.643432,-1.622289 0,-0.71472 0.281501,-1.264318 0.844504,-1.648793 0.563002,-0.393005 1.429899,-0.607483 2.600688,-0.643432 l 1.220144,-0.04021 v -0.428646 c 0,-0.598953 -0.12963,-1.014502 -0.388892,-1.246649 -0.259261,-0.232147 -0.625761,-0.348373 -1.0995,-0.348678 -0.375335,0 -0.732696,0.05804 -1.072081,0.17411 -0.339691,0.107239 -0.65699,0.232452 -0.951896,0.37564 l -0.36193,-0.884721 c 0.312881,-0.169997 0.683799,-0.313033 1.112753,-0.429106 0.428955,-0.124909 0.875731,-0.187363 1.340331,-0.187363 m 0.348677,3.834085 c -0.893857,0.03565 -1.51505,0.178527 -1.863575,0.428649 -0.339387,0.250427 -0.509078,0.603522 -0.509078,1.059286 0,0.402145 0.120642,0.697051 0.361929,0.884718 0.250122,0.187668 0.567268,0.281501 0.951438,0.281501 0.607788,0 1.112754,-0.165427 1.514898,-0.496282 0.402145,-0.339386 0.603217,-0.857605 0.603217,-1.554656 v -0.643431 z"
     style="fill:#e2f1ff;stroke-width:0.456982;fill-opacity:1"
     id="path2"
     sodipodi:nodetypes="ccccccccccscccccccccscccccscscccssccccccccscscscc" /></svg>
