<?xml version="1.0" encoding="UTF-8" standalone="no"?>
<svg
   width="64"
   height="64"
   version="1.1"
   id="svg84"
   sodipodi:docname="eyedropper.svg"
   xml:space="preserve"
   inkscape:version="1.4.2 (ebf0e940d0, 2025-05-08)"
   xmlns:inkscape="http://www.inkscape.org/namespaces/inkscape"
   xmlns:sodipodi="http://sodipodi.sourceforge.net/DTD/sodipodi-0.dtd"
   xmlns:xlink="http://www.w3.org/1999/xlink"
   xmlns="http://www.w3.org/2000/svg"
   xmlns:svg="http://www.w3.org/2000/svg"><sodipodi:namedview
     id="namedview84"
     pagecolor="#505050"
     bordercolor="#eeeeee"
     borderopacity="1"
     inkscape:showpageshadow="0"
     inkscape:pageopacity="0"
     inkscape:pagecheckerboard="0"
     inkscape:deskcolor="#505050"
     inkscape:zoom="2.9921875"
     inkscape:cx="69.180157"
     inkscape:cy="8.3550914"
     inkscape:window-width="1920"
     inkscape:window-height="1003"
     inkscape:window-x="0"
     inkscape:window-y="0"
     inkscape:window-maximized="1"
     inkscape:current-layer="svg84" /><defs
     id="defs60"><linearGradient
       id="b"><stop
         offset="0"
         style="stop-color:#74717b;stop-opacity:1"
         id="stop1" /><stop
         offset="1"
         style="stop-color:#9d9d9f;stop-opacity:1"
         id="stop2" /></linearGradient><linearGradient
       id="e"
       x1="7.937"
       x2="7.937"
       y1="15.081"
       y2="1.852"
       gradientTransform="scale(3.7796)"
       gradientUnits="userSpaceOnUse"><stop
         offset="0"
         stop-color="#f54800"
         id="stop3" /><stop
         offset="1"
         stop-color="#ffb200"
         id="stop4" /></linearGradient><linearGradient
       id="h"
       x1="16"
       x2="128"
       y1="74"
       y2="74"
       gradientTransform="matrix(1 0 0 .76924 -44 4.077)"
       gradientUnits="userSpaceOnUse"><stop
         offset="0"
         stop-color="#63452c"
         id="stop5" /><stop
         offset=".036"
         stop-color="#865e3c"
         id="stop6" /><stop
         offset=".071"
         stop-color="#63452c"
         id="stop7" /><stop
         offset=".929"
         stop-color="#63452c"
         id="stop8" /><stop
         offset=".964"
         stop-color="#865e3c"
         id="stop9" /><stop
         offset="1"
         stop-color="#63452c"
         id="stop10" /></linearGradient><linearGradient
       id="j"
       x1="23"
       x2="23"
       y1="238"
       y2="222"
       gradientTransform="rotate(90 184 149)scale(1.5)"
       gradientUnits="userSpaceOnUse"><stop
         offset="0"
         stop-color="#2ec27e"
         id="stop11" /><stop
         offset=".5"
         stop-color="#8ff0a4"
         id="stop12" /><stop
         offset="1"
         stop-color="#2ec27e"
         id="stop13" /></linearGradient><linearGradient
       id="o"
       x1="15"
       x2="33"
       y1="58"
       y2="58"
       gradientTransform="translate(-36 -35)"
       gradientUnits="userSpaceOnUse"><stop
         offset="0"
         stop-color="#2ec27e"
         id="stop14" /><stop
         offset=".5"
         stop-color="#57e389"
         id="stop15" /><stop
         offset="1"
         stop-color="#2ec27e"
         id="stop16" /></linearGradient><linearGradient
       id="q"
       x1="46"
       x2="46"
       y1="232"
       y2="228"
       gradientTransform="matrix(0 -1.1875 -2 0 448 108.5)"
       gradientUnits="userSpaceOnUse"><stop
         offset="0"
         stop-color="#9a9996"
         id="stop17" /><stop
         offset=".5"
         stop-color="#fff"
         id="stop18" /><stop
         offset="1"
         stop-color="#c0bfbc"
         id="stop19" /></linearGradient><linearGradient
       xlink:href="#a"
       id="w"
       x1="81"
       x2="81"
       y1="47"
       y2="65"
       gradientTransform="matrix(1.5 0 0 1.55556 -98 -94.11)" /><linearGradient
       id="a"
       gradientUnits="userSpaceOnUse"><stop
         offset="0"
         stop-color="#c0bfbc"
         id="stop20" /><stop
         offset=".5"
         stop-color="#deddda"
         id="stop21" /><stop
         offset="1"
         stop-color="#9a9996"
         id="stop22" /></linearGradient><linearGradient
       xlink:href="#a"
       id="x"
       x1="92"
       x2="104"
       y1="244"
       y2="244"
       gradientTransform="matrix(.83333 0 0 .82143 -26.667 -178.429)" /><linearGradient
       id="i"
       x1="16"
       x2="128"
       y1="74"
       y2="74"
       gradientTransform="matrix(0.4534236,0,0,0.34879157,1.0657273,21.257733)"
       gradientUnits="userSpaceOnUse"><stop
         offset="0"
         stop-color="#3d3846"
         id="stop23" /><stop
         offset=".036"
         stop-color="#5e5c64"
         id="stop24" /><stop
         offset=".071"
         stop-color="#3d3846"
         id="stop25" /><stop
         offset=".929"
         stop-color="#3d3846"
         id="stop26" /><stop
         offset=".964"
         stop-color="#5e5c64"
         id="stop27" /><stop
         offset="1"
         stop-color="#3d3846"
         id="stop28" /></linearGradient><linearGradient
       id="k"
       x1="84"
       x2="104"
       y1="258"
       y2="258"
       gradientTransform="matrix(0,-0.4534236,0.4534236,0,-67.855114,70.645992)"
       gradientUnits="userSpaceOnUse"><stop
         offset="0"
         stop-color="#46a2ed"
         id="stop29" /><stop
         offset="1"
         stop-color="#41c6f1"
         id="stop30" /></linearGradient><linearGradient
       id="n"
       x1="50"
       x2="70"
       y1="258"
       y2="258"
       gradientTransform="matrix(0,-0.4534236,0.4534236,0,-83.271517,55.229589)"
       gradientUnits="userSpaceOnUse"><stop
         offset="0"
         stop-color="#c9c8c5"
         id="stop31" /><stop
         offset="1"
         stop-color="#f6f5f4"
         id="stop32" /></linearGradient><linearGradient
       id="p"
       x1="84"
       x2="104"
       y1="258"
       y2="258"
       gradientTransform="matrix(0,-0.4534236,0.4534236,0,-67.855114,86.969242)"
       gradientUnits="userSpaceOnUse"><stop
         offset="0"
         stop-color="#e5a50a"
         id="stop33" /><stop
         offset="1"
         stop-color="#f6d32d"
         id="stop34" /></linearGradient><linearGradient
       id="r"
       x1="50"
       x2="70"
       y1="258"
       y2="258"
       gradientTransform="matrix(0,-0.4534236,0.4534236,0,-83.271517,71.55284)"
       gradientUnits="userSpaceOnUse"><stop
         offset="0"
         stop-color="#576ce3"
         id="stop35" /><stop
         offset="0"
         stop-color="#bb34b1"
         id="stop36" /><stop
         offset="1"
         stop-color="#e31f9e"
         id="stop37" /></linearGradient><linearGradient
       id="z"
       x1="72.062"
       x2="40.97"
       y1="230.291"
       y2="310.562"
       gradientTransform="matrix(0.31037311,-0.27093691,0.31037435,0.27093531,-79.51045,-7.3108142)"
       gradientUnits="userSpaceOnUse"><stop
         offset="0"
         stop-color="#1ebef1"
         id="stop38" /><stop
         offset="1"
         stop-color="#2509e8"
         id="stop39" /></linearGradient><linearGradient
       id="B"
       x1="16"
       x2="30"
       y1="86"
       y2="86"
       gradientTransform="matrix(0.38316,0,0,0.38316,2.1069684,5.1245858)"
       gradientUnits="userSpaceOnUse"><stop
         offset="0"
         stop-color="#f6f5f4"
         stop-opacity=".502"
         id="stop40" /><stop
         offset="1"
         stop-color="#fff"
         stop-opacity="0"
         id="stop41" /></linearGradient><linearGradient
       id="D"
       x1="-2.958"
       x2="62.958"
       y1="42"
       y2="42"
       gradientTransform="matrix(0.38316,0,0,0.38316,2.1069684,5.1245858)"
       gradientUnits="userSpaceOnUse"><stop
         offset="0"
         stop-color="#241f31"
         id="stop42" /><stop
         offset=".288"
         stop-color="#77767b"
         id="stop43" /><stop
         offset=".652"
         stop-color="#2f2840"
         id="stop44" /><stop
         offset="1"
         stop-color="#241f31"
         id="stop45" /></linearGradient><linearGradient
       id="F"
       x1="4"
       x2="56"
       y1="38.5"
       y2="38.5"
       gradientTransform="matrix(0.38316,0,0,0.38316,2.1069684,5.1245858)"
       gradientUnits="userSpaceOnUse"><stop
         offset="0"
         stop-color="#fff"
         stop-opacity="0"
         id="stop46" /><stop
         offset=".3"
         stop-color="#fff"
         stop-opacity=".263"
         id="stop47" /><stop
         offset="1"
         stop-color="#fff"
         stop-opacity="0"
         id="stop48" /></linearGradient><linearGradient
       xlink:href="#b"
       id="f"
       x1="32.001"
       x2="32.001"
       y1="3.969"
       y2="59.971"
       gradientUnits="userSpaceOnUse"
       gradientTransform="translate(5.493164e-7,-12.646001)" /><clipPath
       id="c"><path
         d="M20 10h8v25h-8zm0 0"
         id="path48" /></clipPath><clipPath
       id="y"><path
         d="M24 10c-6.629 0-12 5.371-12 12v22c0 2.21 1.79 4 4 4a2 2 0 0 1 2 2v7a2 2 0 0 1-2 2c-2.21 0-4 1.79-4 4v2h24v-2c0-2.21-1.79-4-4-4a2 2 0 0 1-2-2v-7a2 2 0 0 1 2-2c2.21 0 4-1.79 4-4V22c0-6.629-5.371-12-12-12m0 0"
         id="path49" /></clipPath><clipPath
       id="A"><path
         d="M12 10h4v31h-4zm0 0"
         id="path50" /></clipPath><clipPath
       id="v"><path
         d="M24 10c-6.629 0-12 5.371-12 12v22c0 2.21 1.79 4 4 4a2 2 0 0 1 2 2v7a2 2 0 0 1-2 2c-2.21 0-4 1.79-4 4v2h24v-2c0-2.21-1.79-4-4-4a2 2 0 0 1-2-2v-7a2 2 0 0 1 2-2c2.21 0 4-1.79 4-4V22c0-6.629-5.371-12-12-12m0 0"
         id="path51" /></clipPath><clipPath
       id="s"><path
         d="M0 0h192v152H0z"
         id="path52" /></clipPath><radialGradient
       id="l"
       cx="24"
       cy="53"
       r="14"
       gradientTransform="translate(-36 -35)"
       gradientUnits="userSpaceOnUse"><stop
         offset="0"
         stop-color="#26a269"
         id="stop52" /><stop
         offset=".7"
         stop-color="#26a269"
         stop-opacity=".478"
         id="stop53" /><stop
         offset="1"
         stop-color="#26a269"
         stop-opacity="0"
         id="stop54" /></radialGradient><radialGradient
       id="C"
       cx="26"
       cy="190.167"
       r="14"
       gradientTransform="matrix(0.38316164,6.49075e-8,3.517009e-7,0.65684468,2.1071181,-114.42119)"
       gradientUnits="userSpaceOnUse"><stop
         offset="0"
         stop-color="#5e5c64"
         id="stop55" /><stop
         offset="1"
         stop-color="#241f31"
         id="stop56" /></radialGradient><radialGradient
       id="E"
       cx="30"
       cy="186"
       r="14"
       gradientTransform="matrix(0.45575395,-1.8949881e-6,-6.49075e-8,0.38316164,-0.07091672,-60.778727)"
       gradientUnits="userSpaceOnUse"><stop
         offset="0"
         stop-color="#9a9996"
         stop-opacity="0"
         id="stop57" /><stop
         offset=".779"
         stop-color="#9a9996"
         stop-opacity="0"
         id="stop58" /><stop
         offset="1"
         stop-color="#77767b"
         id="stop59" /></radialGradient><filter
       id="d"
       width="1"
       height="1"
       x="0"
       y="0"><feColorMatrix
         in="SourceGraphic"
         values="0 0 0 0 1 0 0 0 0 1 0 0 0 0 1 0 0 0 1 0"
         id="feColorMatrix59" /></filter><filter
       id="u"
       width="1.2420333"
       height="1.1084602"
       x="-0.12101664"
       y="-0.0542301"
       style="color-interpolation-filters:sRGB"><feGaussianBlur
         stdDeviation="2.792"
         id="feGaussianBlur59" /></filter><filter
       id="g"
       width="1.1341597"
       height="1.1700054"
       x="-0.067079866"
       y="-0.085002687"
       style="color-interpolation-filters:sRGB"><feGaussianBlur
         stdDeviation="1.186"
         id="feGaussianBlur60" /></filter><mask
       id="t"><g
         filter="url(#c)"
         style="filter:url(#d)"
         id="g60"><path
           fill-opacity=".3"
           d="M0 0h128v128H0z"
           id="path60" /></g></mask></defs><path
     fill="#5e5c64"
     d="M 13.798,16.662 H 50.17 c 1.674,0 3.031,1.5 3.031,3.349 V 46.8 c 0,1.849 -1.357,3.348 -3.031,3.348 H 13.798 c -1.674,0 -3.03,-1.5 -3.03,-3.348 V 20.01 c 0,-1.849 1.356,-3.348 3.03,-3.348 m 0,0"
     style="opacity:0.500261;fill:#000000;fill-opacity:1;stroke-width:0.398232;filter:url(#g)"
     id="path61"
     transform="matrix(1.1833792,0,0,1.1833792,-4.1570531,-3.4961182)" /><path
     fill="url(#h)"
     d="M 11.947894,37.999946 H 55.47656 a 3.6273888,3.6273888 0 0 1 3.627389,3.627389 V 52.509501 A 3.6273888,3.6273888 0 0 1 55.47656,56.13689 H 11.947894 A 3.6273888,3.6273888 0 0 1 8.3205054,52.509501 V 41.627335 a 3.6273888,3.6273888 0 0 1 3.6273886,-3.627389 m 0,0"
     style="fill:url(#i);stroke-width:0.453423"
     id="path62" /><path
     fill="#5e5c64"
     d="m 11.948739,16.235548 h 43.52824 a 3.6270575,3.6270575 0 0 1 3.627057,3.627058 v 29.017643 a 3.6270575,3.6270575 0 0 1 -3.627057,3.627057 H 11.947556 A 3.6270575,3.6270575 0 0 1 8.3204979,48.880249 V 19.863788 a 3.6270575,3.6270575 0 0 1 3.6270581,-3.627056 z m 0,0"
     id="path63"
     style="stroke-width:1.18337" /><path
     fill="url(#j)"
     d="m 49.12863,19.863002 c 3.504964,0 6.34793,2.842966 6.34793,6.347931 0,3.504964 -2.842966,6.34793 -6.34793,6.34793 -3.504965,0 -6.347931,-2.842966 -6.347931,-6.34793 0,-3.504965 2.842966,-6.347931 6.347931,-6.347931 m 0,0"
     style="fill:url(#k);stroke-width:0.453423"
     id="path64" /><path
     fill="url(#l)"
     d="m 33.712227,19.863002 c 3.504965,0 6.347931,2.842966 6.347931,6.347931 0,3.504964 -2.842966,6.34793 -6.347931,6.34793 -3.504964,0 -6.347931,-2.842966 -6.347931,-6.34793 0,-3.504965 2.842967,-6.347931 6.347931,-6.347931 m 0,0"
     style="fill:url(#n);stroke-width:0.453423"
     id="path65" /><path
     fill="url(#o)"
     d="m 49.12863,36.186252 c 3.504964,0 6.34793,2.842966 6.34793,6.34793 0,3.504964 -2.842966,6.34793 -6.34793,6.34793 -3.504965,0 -6.347931,-2.842966 -6.347931,-6.34793 0,-3.504964 2.842966,-6.34793 6.347931,-6.34793 m 0,0"
     style="fill:url(#p);stroke-width:0.453423"
     id="path66" /><path
     fill="url(#q)"
     d="m 33.712227,36.186252 c 3.504965,0 6.347931,2.842966 6.347931,6.34793 0,3.504964 -2.842966,6.34793 -6.347931,6.34793 -3.504964,0 -6.347931,-2.842966 -6.347931,-6.34793 0,-3.504964 2.842967,-6.34793 6.347931,-6.34793 m 0,0"
     style="fill:url(#r);stroke-width:0.453423"
     id="path67" /><g
     clip-path="url(#s)"
     mask="url(#t)"
     transform="matrix(0.4534236,0,0,0.4534236,1.066383,-3.7150434)"
     id="g68"><path
       d="m 72,52 c -7.73,0 -14,6.27 -14,14 q 0.045,0.756 0.172,1.5 A 13.997,13.997 0 0 1 72,55 14,14 0 0 1 85.871,67.148 Q 85.959,66.575 86,66 C 86,58.27 79.73,52 72,52 m 34,0 c -7.73,0 -14,6.27 -14,14 q 0.045,0.756 0.172,1.5 A 13.997,13.997 0 0 1 106,55 14,14 0 0 1 119.871,67.148 Q 119.959,66.575 120,66 c 0,-7.73 -6.27,-14 -14,-14 M 72,88 c -7.73,0 -14,6.27 -14,14 q 0.045,0.756 0.172,1.5 A 13.997,13.997 0 0 1 72,91 14,14 0 0 1 85.871,103.148 Q 85.959,102.575 86,102 C 86,94.27 79.73,88 72,88 m 34,0 c -7.73,0 -14,6.27 -14,14 q 0.045,0.756 0.172,1.5 A 13.997,13.997 0 0 1 106,91 14,14 0 0 1 119.871,103.148 Q 119.959,102.575 120,102 c 0,-7.73 -6.27,-14 -14,-14 m 0,0"
       id="path68" /></g><g
     id="g84"
     transform="matrix(1.1833792,0,0,1.1833792,2.4229111,-2.4154116)"><g
       style="opacity:0.498471;fill:#000000;fill-opacity:1;filter:url(#u)"
       transform="matrix(0.37010414,0.09916911,-0.09916911,0.37010414,17.59506,17.427265)"
       id="g74"><path
         fill="#fff"
         fill-opacity=".6"
         d="m -19.994,19.739 14.39,53.707 c 0.914,3.41 4.15,7.655 6.728,10.062 3.366,3.143 5.683,6.736 7.979,11.257 l 10.263,-2.75 c -0.273,-5.063 -0.063,-9.334 1.28,-13.738 1.03,-3.373 1.71,-8.667 0.796,-12.078 L 7.052,12.492 Z m 0,0"
         style="display:inline;fill:#000000;fill-opacity:1"
         id="path69" /><path
         fill="url(#v)"
         d="m -18.377,-28.317 c 7.467,-2 15.146,2.432 17.146,9.9 L 3.946,0.9 c 2,7.467 -2.433,15.146 -9.9,17.146 -7.467,2 -15.145,-2.432 -17.146,-9.9 l -5.177,-19.318 c -2,-7.467 2.433,-15.145 9.9,-17.146 z m 0,0"
         style="fill:#000000;fill-opacity:1"
         id="path70" /><path
         fill="url(#a)"
         d="M -31.276,12.41 13.157,0.502 a 3,3 0 0 1 3.674,2.122 l 1.553,5.795 a 3,3 0 0 1 -2.122,3.675 L -28.17,24 a 3,3 0 0 1 -3.674,-2.121 l -1.553,-5.796 a 3,3 0 0 1 2.121,-3.674 z m 0,0"
         style="fill:#000000;fill-opacity:1"
         id="path71" /><path
         fill-opacity=".149"
         d="m -32.362,19.947 0.518,1.932 A 2.996,2.996 0 0 0 -28.17,24 L 16.262,12.095 A 2.996,2.996 0 0 0 18.384,8.42 L 17.866,6.488 a 2.996,2.996 0 0 1 -2.121,3.675 l -44.433,11.905 a 2.996,2.996 0 0 1 -3.674,-2.12 z m 0,0"
         style="fill:#000000;fill-opacity:1"
         id="path72" /><path
         fill="url(#w)"
         d="m -28.277,-11.17 c -2,-7.468 2.433,-15.146 9.9,-17.147 7.467,-2.001 15.146,2.432 17.146,9.9"
         style="fill:#000000;fill-opacity:1"
         id="path73" /><path
         fill="url(#x)"
         d="m -32.88,18.015 -0.517,-1.932 a 2.996,2.996 0 0 1 2.121,-3.674 L 13.157,0.503 a 2.996,2.996 0 0 1 3.674,2.122 l 0.518,1.932 A 2.996,2.996 0 0 0 13.674,2.435 l -44.432,11.906 a 2.996,2.996 0 0 0 -2.122,3.674 m 0,0"
         style="fill:#000000;fill-opacity:1"
         id="path74" /></g><path
       fill="#ffffff"
       fill-opacity="0.6"
       d="m 8.2388783,22.749042 -0.00109,21.304657 c 5.63e-5,1.352086 0.7767058,3.244583 1.4924093,4.390879 0.9344264,1.496852 1.4350674,3.055538 1.8365484,4.957248 l 4.070816,-4.09e-4 c 0.401653,-1.900813 0.902355,-3.460362 1.836434,-4.956588 0.715228,-1.146967 1.49222,-3.038313 1.492422,-4.391364 l -1.37e-4,-21.30395 z m 0,0"
       id="path75" /><path
       fill="url(#y)"
       d="m 16.150635,29.664856 c -1.123807,0.151088 -1.480316,1.210683 -1.929397,2.159792 -0.853096,1.838098 -1.742133,-0.01063 -3.102344,-2.33e-4 -0.266217,0.0017 -0.546688,0.137932 -0.821773,0.351814 -0.191651,0.143812 -0.3771281,0.346003 -0.5270835,0.502971 l 2.061e-4,11.374751 c 1.919e-4,0.76762 0.6808984,2.652154 1.2601244,3.580082 0.830742,1.330514 1.312885,2.742159 1.702102,4.23561 l 1.738961,2.55e-4 c 0.389189,-1.493926 0.871329,-2.905428 1.701851,-4.235879 0.579028,-0.927776 1.260125,-2.812358 1.260402,-3.580249 l -0.0018,-14.239192 C 16.98134,29.666097 16.578712,29.643896 16.151006,29.664955 Z m 0,0"
       style="fill:url(#z);stroke-width:0.38316"
       id="path76" /><path
       fill="url(#A)"
       d="M 8.2376986,22.749963 8.237422,44.05419 c 1.086e-4,1.352695 0.7767927,3.244699 1.4922212,4.391197 0.9340818,1.497041 1.4352988,3.0566 1.8367138,4.957533 l 4.071094,-1.4e-5 c 0.401055,-1.900911 0.902328,-3.4608 1.836119,-4.957554 0.715704,-1.146217 1.492376,-3.038114 1.492367,-4.39118 l 2.77e-4,-21.304226 z m 0,0"
       style="fill:url(#B);stroke-width:0.38316"
       id="path77" /><path
       fill="none"
       stroke="#ffffff"
       stroke-linecap="round"
       stroke-opacity="0.141"
       stroke-width="6.131"
       d="m 11.303123,44.66075 3.01e-4,-20.378296"
       id="path78" /><path
       fill="none"
       stroke="#ffffff"
       stroke-linecap="round"
       stroke-opacity="0.302"
       stroke-width="1.533"
       d="M 11.303395,43.894719 11.302989,23.515198"
       id="path79" /><path
       fill="url(#v)"
       d="m 13.601828,5.124595 c 2.961905,2.875e-4 5.364418,2.4021086 5.364031,5.364384 l 3.79e-4,7.662701 c -2.87e-4,2.961905 -2.402478,5.364318 -5.364384,5.364031 -2.961906,-2.87e-4 -5.3640479,-2.402009 -5.3640314,-5.364384 L 8.2375422,10.488256 C 8.2378297,7.5263505 10.639922,5.1243076 13.601927,5.1242249 Z m 0,0"
       style="fill:url(#C);stroke-width:0.38316"
       id="path80" /><path
       fill="url(#a)"
       d="m 4.7889941,18.918644 17.6257429,-8.19e-4 a 1.14948,1.14948 45 0 1 1.149326,1.149708 l 8.7e-5,2.298763 a 1.14948,1.14948 45 0 1 -1.149808,1.149696 L 4.7891676,23.51617 A 1.14948,1.14948 45 0 1 3.6397427,22.366832 l 1.24e-5,-2.299133 a 1.14948,1.14948 45 0 1 1.1493382,-1.149425 z m 0,0"
       style="fill:url(#D);stroke-width:0.38316"
       id="path81" /><path
       fill-opacity="0.149"
       d="m 3.6396844,21.599514 6.931e-4,0.76629 c -7.619e-4,0.63649 0.5128542,1.149919 1.1486378,1.149456 L 22.414635,23.5151 c 0.636491,7.62e-4 1.149919,-0.512854 1.149715,-1.149603 l 2.73e-4,-0.766032 a 1.15,1.15 0 0 1 -1.149715,1.149604 l -17.62562,1.6e-4 A 1.15,1.15 0 0 1 3.6396844,21.599514 m 0,0"
       id="path82" /><path
       fill="url(#w)"
       d="m 8.2373439,10.488997 c 3.866e-4,-2.9622764 2.4024791,-5.3643193 5.3644841,-5.364402 2.962005,-8.26e-5 5.364418,2.4021086 5.364031,5.364384"
       style="fill:url(#E);stroke-width:0.38316"
       id="path83" /><path
       fill="url(#x)"
       d="m 3.6395042,20.83401 2.509e-4,-0.766311 a 1.1479474,1.1479474 0 0 1 1.1493382,-1.149425 l 17.6255447,-7.9e-5 a 1.1479474,1.1479474 0 0 1 1.149326,1.149708 l 1.19e-4,0.766411 A 1.1479474,1.1479474 0 0 0 22.414387,19.684507 L 4.7892125,19.684685 A 1.1479474,1.1479474 0 0 0 3.6395042,20.83401 m 0,0"
       style="fill:url(#F);stroke-width:0.38316"
       id="path84" /></g></svg>
