<?xml version="1.0" encoding="UTF-8" standalone="no"?>
<svg
   xml:space="preserve"
   width="64"
   height="64"
   version="1.1"
   id="svg2"
   sodipodi:docname="far-cry.svg"
   inkscape:version="1.4.2 (ebf0e940d0, 2025-05-08)"
   xmlns:inkscape="http://www.inkscape.org/namespaces/inkscape"
   xmlns:sodipodi="http://sodipodi.sourceforge.net/DTD/sodipodi-0.dtd"
   xmlns="http://www.w3.org/2000/svg"
   xmlns:svg="http://www.w3.org/2000/svg"><sodipodi:namedview
     id="namedview2"
     pagecolor="#505050"
     bordercolor="#eeeeee"
     borderopacity="1"
     inkscape:showpageshadow="0"
     inkscape:pageopacity="0"
     inkscape:pagecheckerboard="0"
     inkscape:deskcolor="#505050"
     inkscape:zoom="4.2315921"
     inkscape:cx="-4.9626711"
     inkscape:cy="41.59191"
     inkscape:window-width="1920"
     inkscape:window-height="1003"
     inkscape:window-x="0"
     inkscape:window-y="0"
     inkscape:window-maximized="1"
     inkscape:current-layer="svg2" /><defs
     id="defs2"><linearGradient
       id="a"
       x1="7.937"
       x2="7.937"
       y1="15.081"
       y2="1.852"
       gradientTransform="matrix(3.7796,0,0,3.7796,-108.95039,0)"
       gradientUnits="userSpaceOnUse"><stop
         offset="0"
         stop-color="#363636"
         style="stop-color:#171717;stop-opacity:1"
         id="stop1" /><stop
         offset="1"
         stop-color="#6c6c6c"
         style="stop-color:#2c2c2c;stop-opacity:1"
         id="stop2" /></linearGradient></defs><path
     d="m 48.838191,55.025959 c -1.326924,-0.257134 -3.025113,-0.660024 -3.77314,-0.896533 -9.179843,-2.901358 -15.153065,-9.725738 -16.202229,-18.50819 -0.099,-0.829156 -0.137506,-1.578559 -0.088,-1.666562 0.156756,-0.272261 9.089089,-0.13063 9.368225,0.148505 a 0.63252358,0.63252358 0 0 0 0.543145,0.165006 c 0.220008,-0.05775 0.206257,-0.0027 -0.05225,0.206258 -0.192507,0.158131 -0.352013,0.434516 -0.352013,0.616023 0,0.192507 -0.162256,0.330012 -0.38914,0.330012 -0.566521,0 -0.687525,0.336888 -0.169131,0.471643 0.242009,0.06325 0.371264,0.185632 0.284635,0.270885 -0.08525,0.08663 0.280511,0.247509 0.814031,0.361638 0.632523,0.134755 0.968036,0.309387 0.968036,0.506019 0,0.165006 -0.112754,0.277761 -0.251634,0.25026 -0.138881,-0.0275 -0.251635,0.05088 -0.251635,0.176006 0,0.144381 0.221383,0.181507 0.616023,0.101754 0.547271,-0.110004 0.602273,-0.07838 0.489518,0.27776 -0.07838,0.244759 -0.03438,0.398765 0.112755,0.398765 0.184256,0 0.184256,0.066 -0.0014,0.288761 -0.132005,0.160881 -0.363014,0.243384 -0.51152,0.187007 -0.14988,-0.05775 -0.371263,0.0825 -0.495018,0.313512 -0.215883,0.40289 -0.178757,0.418015 1.058789,0.418015 h 1.280173 l 0.937785,1.20592 c 2.95636,3.806142 8.200806,5.689962 14.901431,5.35445 l 2.638723,-0.13338 0.04813,1.240296 c 0.04125,1.042289 -0.02063,1.314549 -0.39464,1.711939 -0.243384,0.259884 -0.642149,0.471642 -0.885533,0.471642 -0.753528,0 -1.842569,0.563771 -1.960823,1.012038 a 0.82503076,0.82503076 0 0 1 -0.52802,0.534895 c -0.859407,0.224133 -0.401515,0.554146 0.990037,0.709527 0.847032,0.09488 0.618773,0.650399 -0.298386,0.724652 -0.440016,0.03575 -0.914409,0.159505 -1.053289,0.27501 a 0.63252358,0.63252358 0 0 1 -0.572021,0.08388 c -0.176007,-0.06738 -0.51427,0.01375 -0.750778,0.178757 -0.382265,0.268135 -0.38914,0.302511 -0.06463,0.302511 0.200758,0 0.622898,0.151255 0.93641,0.336887 0.489518,0.288761 0.687526,0.302512 1.392927,0.09075 0.962536,-0.288761 1.47268,-0.110004 0.893783,0.313511 -0.320387,0.235134 -0.335512,0.308012 -0.08938,0.459268 0.248884,0.154005 0.251634,0.254384 0.01513,0.695776 l -0.275011,0.515644 -3.23412,-0.0165 c -2.505328,-0.01375 -3.775875,-0.121003 -5.645945,-0.484017 m 9.148216,-8.144429 c 0,-0.110004 -0.13613,-0.202132 -0.302511,-0.202132 -0.165006,0 -0.301136,0.09075 -0.301136,0.202132 0,0.11138 0.13613,0.200758 0.302511,0.200758 0.165006,0 0.301136,-0.09075 0.301136,-0.200758 m 1.502931,8.233807 c -0.129254,-0.207632 0.603648,-0.632523 0.78378,-0.453766 0.229633,0.231008 0.132004,0.41389 -0.275011,0.521144 -0.221383,0.05775 -0.451017,0.0275 -0.508769,-0.06738 m -51.5231705,-1.75044 -3.877645,-0.05913 0.05775,-2.358213 0.05638,-2.356838 1.005163,0.055 c 0.972161,0.05363 1.73944,-0.192507 1.463054,-0.470267 -0.07425,-0.07288 -0.389139,-0.151256 -0.698526,-0.171882 -0.309386,-0.02062 -0.862157,-0.224133 -1.226546,-0.453767 l -0.664149,-0.415265 0.724652,-0.429016 c 0.558271,-0.330012 1.08354,-0.433141 2.272959,-0.448267 a 60.502256,60.502256 0 0 0 3.3551265,-0.170506 l 1.810942,-0.147131 -1.911321,-0.05775 a 86.62823,86.62823 0 0 0 -2.9151095,-0.04125 c -0.552771,0.0082 -1.524932,-0.173257 -2.160205,-0.401515 l -1.15642,-0.416637 V 10.086534 l 0.853907,-0.0275 c 2.521844,-0.07838 24.1445255,0.04538 24.2971565,0.140255 0.288761,0.178757 0.232384,8.603696 -0.05913,8.895207 -0.178757,0.178756 -1.966323,0.240634 -6.801004,0.240634 h -6.561741 l -0.973537,-0.492269 c -0.53627,-0.270885 -1.040913,-0.451017 -1.123416,-0.40014 -0.0825,0.05088 -0.379515,0.0041 -0.660025,-0.103129 -0.508769,-0.192507 -0.935035,0.04125 -0.53077,0.290136 0.112754,0.06875 0.203508,0.38639 0.203508,0.704026 0,0.444142 0.104504,0.591273 0.451017,0.642149 0.625648,0.088 0.704026,0.723277 0.116879,0.948786 l -0.467518,0.177381 0.53077,0.137506 q 0.53077,0.140255 0.559646,0.574771 c 0.01375,0.240634 0.07288,1.522182 0.12788,2.849106 0.05638,1.326925 0.14163,2.525969 0.189757,2.66485 0.06738,0.192507 1.270547,0.251634 5.09594,0.251634 4.207657,0 5.049188,0.04813 5.258196,0.301136 0.137505,0.165006 0.375389,0.302511 0.52802,0.302511 0.210383,0 0.276385,0.360264 0.276385,1.507057 0,1.445178 -0.01925,1.507056 -0.467517,1.507056 -0.437267,0 -0.466143,0.06875 -0.409766,1.005162 0.05363,0.889658 0,1.045039 -0.453767,1.34205 -0.281885,0.184257 -0.837406,0.38914 -1.233421,0.453767 -0.396014,0.06325 -0.756278,0.228259 -0.80303,0.365764 -0.107254,0.323137 1.038164,0.121004 1.806818,-0.320387 0.514269,-0.294261 0.570646,-0.288761 0.852532,0.07838 0.383639,0.496393 0.222758,1.281548 -0.358889,1.762816 -0.40564,0.335512 -0.778279,0.354763 -4.772803,0.237883 -2.382964,-0.07013 -4.577545,-0.066 -4.875932,0.0096 -0.481267,0.121004 -0.543145,0.231008 -0.543145,0.979036 0,0.463393 -0.108629,0.950161 -0.242009,1.083541 -0.187007,0.187007 -0.187007,0.240634 0,0.240634 0.182882,0 0.242009,1.62531 0.242009,6.71025 0,7.351024 -0.0055,7.381275 -1.109666,6.960509 -0.624273,-0.236509 -0.893783,-0.112754 -0.53627,0.24751 0.475768,0.474392 0.0715,1.321424 -0.532145,1.116541 -0.07425,-0.02613 -1.87832,-0.07288 -4.0110245,-0.105879 M 24.976927,29.121368 c 0.0715,-0.369888 -0.118255,-0.423515 -0.543146,-0.154005 -0.316261,0.200757 -0.107254,0.6834 0.24476,0.566521 0.129254,-0.04263 0.262634,-0.228259 0.298386,-0.412516 m 32.205075,23.913517 c 0,-0.044 0.136129,-0.13063 0.302511,-0.195257 0.165007,-0.06325 0.301136,-0.0275 0.301136,0.07975 0,0.107254 -0.136129,0.193882 -0.30251,0.193882 -0.165008,0 -0.301137,-0.03438 -0.301137,-0.07838 m 2.072203,-1.379177 c 0.606397,-1.025788 1.020287,-1.100041 1.106916,-0.200757 0.05363,0.55002 -0.022,0.687526 -0.464769,0.855282 -1.061538,0.40289 -1.189419,0.273635 -0.642148,-0.654525 m -1.06704,-0.55277 c -0.25851,-0.166381 -0.25301,-0.195257 0.044,-0.198008 0.189757,0 0.440017,-0.184256 0.559646,-0.404265 0.158131,-0.297011 0.409766,-0.398764 0.962536,-0.385014 l 0.746653,0.01513 -0.628398,0.27501 c -0.345138,0.151256 -0.682026,0.41664 -0.748028,0.587147 -0.13613,0.353388 -0.495019,0.396015 -0.935035,0.110004 M 3.5000005,48.288208 c 0,-0.110004 0.14163,-0.200758 0.313512,-0.200758 0.173256,0 0.258509,0.09075 0.189757,0.200758 -0.06875,0.110004 -0.209008,0.200757 -0.313512,0.200757 -0.104504,0 -0.189757,-0.08938 -0.189757,-0.200757 m 0,-1.897571 c 0,-0.229633 0.819531,-0.514269 1.47268,-0.514269 0.398765,0 -0.165006,0.40014 -0.831906,0.591272 -0.486768,0.140255 -0.640774,0.121005 -0.640774,-0.07838 M 52.671834,45.412976 c -0.871782,-0.213133 -0.464767,-0.244759 3.374376,-0.257135 3.117241,-0.011 4.30391,0.04538 4.14853,0.200758 -0.313512,0.313511 -6.283985,0.357513 -7.521532,0.055 m -1.771065,-0.475768 c 0.137504,-0.055 0.364389,-0.055 0.501894,0 0.137504,0.055 0.02613,0.101754 -0.251635,0.101754 -0.27501,0 -0.389139,-0.04675 -0.250259,-0.101754 M 28.752817,33.257523 c -0.066,-0.06463 -0.118254,-0.600898 -0.118254,-1.190795 0,-0.973536 0.04125,-1.07254 0.452392,-1.08629 l 0.452392,-0.01375 -0.467518,-0.224133 c -0.424891,-0.204883 -0.453767,-0.312137 -0.335512,-1.243047 0.233759,-1.834318 1.06979,-4.84018 1.766941,-6.360987 1.859069,-4.050901 4.991436,-7.874918 7.983547,-9.743613 2.370589,-1.482305 5.959473,-2.877982 8.946084,-3.4788796 2.065327,-0.41389 5.735339,-0.657274 9.047837,-0.596772 l 3.418378,0.06188 0.06325,0.6531496 c 0.03575,0.367138 -0.03025,0.653149 -0.151256,0.653149 -0.116879,0 -0.213133,-0.09075 -0.213133,-0.200757 0,-0.110004 -0.13613,-0.200758 -0.302511,-0.200758 -0.474393,0 -0.353388,0.774154 0.202133,1.288423 l 0.501893,0.466143 v 8.371312 c 0,6.759752 -0.05088,8.371312 -0.262634,8.371312 -0.144381,0 -0.552771,-0.412516 -0.907534,-0.914409 -0.354764,-0.501894 -0.734278,-0.860782 -0.842907,-0.793405 -0.330012,0.203508 -0.222758,0.673775 0.203508,0.903409 0.221383,0.118254 0.40289,0.347888 0.40289,0.508769 0,0.250259 -0.636649,0.295636 -4.118279,0.295636 h -4.118278 l -0.055,-4.675175 -0.05363,-4.675174 -0.602273,0.06188 c -3.022362,0.308012 -6.490242,2.80098 -8.101802,5.823343 -0.720527,1.35305 -1.449304,3.910645 -1.449304,5.091814 0,1.980074 -0.977661,2.472343 -5.326948,2.686851 -5.387451,0.264009 -5.897595,0.27776 -6.014475,0.160881 M 58.793559,22.66276 c 0,-0.0495 -0.09075,-0.144381 -0.200757,-0.213133 -0.110004,-0.06875 -0.202133,-0.0275 -0.202133,0.088 0,0.118254 0.09075,0.213133 0.202133,0.213133 0.111379,0 0.200757,-0.03988 0.200757,-0.088 m -30.549514,5.603333 c 0.0096,-0.233758 0.05775,-0.281885 0.121005,-0.121004 0.05775,0.14438 0.05088,0.317637 -0.01513,0.385014 -0.06738,0.06738 -0.114129,-0.05225 -0.105879,-0.26401 m -13.285738,-1.28843 c 0,-0.130629 1.651437,-0.202132 4.657299,-0.202132 2.56172,0 4.611922,0.04675 4.55417,0.103129 -0.210383,0.210383 -9.212844,0.308011 -9.212844,0.099 m 13.68726,-0.721901 c 0.0096,-0.233759 0.05775,-0.281886 0.12238,-0.121005 0.05775,0.14438 0.05088,0.317637 -0.0165,0.385014 -0.066,0.066 -0.114129,-0.05225 -0.105879,-0.264009 m 0.185632,-0.704027 c 0,-0.336887 0.644899,-2.28946 1.155043,-3.502255 0.94191,-2.228958 4.096278,-6.260609 6.371988,-8.141679 3.49538,-2.891733 8.486816,-4.6985496 14.432538,-5.2251946 3.396377,-0.301136 9.460353,-0.26951 9.355849,0.04675 -0.06188,0.188382 -1.373676,0.283261 -5.193569,0.375389 -5.798591,0.13888 -8.0578,0.440017 -11.176417,1.4823046 -4.892432,1.636311 -8.288809,4.119654 -11.181916,8.17468 -1.265048,1.772441 -2.853232,4.675174 -3.172244,5.802716 -0.273635,0.962536 -0.591272,1.493306 -0.591272,0.987287 m 20.724773,-2.513593 c 0.0096,-0.233759 0.05775,-0.281886 0.12238,-0.121005 0.05775,0.145756 0.05088,0.319012 -0.0165,0.385014 -0.06738,0.066 -0.114129,-0.05088 -0.105879,-0.264009 M 3.5962545,9.4842614 c 0.0825,-0.13063 4.664173,-0.202132 13.0932385,-0.202132 8.59407,0 12.925482,0.06875 12.842979,0.202132 -0.07975,0.13063 -4.662799,0.200758 -13.090489,0.200758 -8.5954455,0 -12.9282315,-0.06875 -12.8457285,-0.200758"
     style="fill:#1b1b1b;fill-opacity:1;stroke-width:0.530009"
     id="path2" /></svg>
