<?xml version="1.0" encoding="UTF-8" standalone="no"?>
<svg
   width="64"
   height="64"
   version="1.1"
   id="svg3"
   sodipodi:docname="ferdium.svg"
   xml:space="preserve"
   inkscape:version="1.4.2 (ebf0e940d0, 2025-05-08)"
   xmlns:inkscape="http://www.inkscape.org/namespaces/inkscape"
   xmlns:sodipodi="http://sodipodi.sourceforge.net/DTD/sodipodi-0.dtd"
   xmlns="http://www.w3.org/2000/svg"
   xmlns:svg="http://www.w3.org/2000/svg"><sodipodi:namedview
     id="namedview3"
     pagecolor="#505050"
     bordercolor="#eeeeee"
     borderopacity="1"
     inkscape:showpageshadow="0"
     inkscape:pageopacity="0"
     inkscape:pagecheckerboard="0"
     inkscape:deskcolor="#505050"
     inkscape:zoom="2.9921875"
     inkscape:cx="57.148825"
     inkscape:cy="-19.049608"
     inkscape:window-width="1920"
     inkscape:window-height="1003"
     inkscape:window-x="0"
     inkscape:window-y="0"
     inkscape:window-maximized="1"
     inkscape:current-layer="svg3" /><defs
     id="defs2"><linearGradient
       id="a"
       x1="9.696"
       x2="9.696"
       y1="1.05"
       y2="15.867"
       gradientTransform="scale(3.7796)"
       gradientUnits="userSpaceOnUse"><stop
         offset="0"
         stop-color="#a743ff"
         id="stop1" /><stop
         offset="1"
         stop-color="#7158e0"
         id="stop2" /></linearGradient><filter
       id="b"
       width="1.195998"
       height="1.5880053"
       x="-0.097999022"
       y="-0.29400267"
       color-interpolation-filters="sRGB"><feGaussianBlur
         stdDeviation="1.715"
         id="feGaussianBlur2" /></filter><linearGradient
       id="linearGradient1005-3"
       x1="0.92150003"
       x2="16.136999"
       y1="16.113001"
       y2="0.89806998"
       gradientTransform="matrix(3.7795,0,0,3.7795,-0.132478,0.02536645)"
       gradientUnits="userSpaceOnUse"><stop
         stop-color="#a53cff"
         offset="0"
         id="stop4"
         style="stop-color:#7164ef;stop-opacity:0.99607843" /><stop
         stop-color="#b496ff"
         offset="1"
         id="stop6"
         style="stop-color:#7751dd;stop-opacity:0.99215686" /></linearGradient></defs><path
     d="m 62.00005,32.00017 c 0,3.596371 -0.633029,7.044396 -1.7939,10.239987 -0.806936,2.221191 -1.8685,4.321096 -3.151797,6.263509 -0.53754,0.81668 -1.115501,1.605392 -1.729002,2.363301 -1.964001,2.4257 -4.297999,4.538003 -6.9183,6.252397 -0.964898,0.631823 -1.9678,1.209789 -3.0061,1.727697 -4.032,2.017777 -8.5836,3.152883 -13.401001,3.152883 -4.817098,0 -9.3687,-1.135106 -13.400999,-3.152996 -1.038399,-0.517984 -2.042502,-1.095912 -3.0074,-1.727698 C 12.93805,55.381763 10.576152,53.236239 8.596152,50.770362 7.98151,50.006293 7.40475,49.210362 6.86715,48.386349 5.618152,46.476252 4.583552,44.415237 3.79255,42.237058 2.631849,39.042261 1.99995,35.595445 1.99995,32.000056 c 0,-16.568995 13.431001,-29.9999995 30,-29.9999995 8.316803,0 15.842001,3.3844909 21.277003,8.8504055 1.5661,1.574589 2.958399,3.323301 4.143398,5.213707 1.1204,1.780385 2.057103,3.688101 2.785701,5.694879 1.160999,3.195893 1.793998,6.644107 1.793998,10.240025 z"
     fill="url(#linearGradient1005)"
     stroke-width="0.11719"
     id="path550"
     style="fill:url(#linearGradient1005-3)" /><path
     d="M22.579 39.883c1.092-.313 3.584-1.588 5.71-2.922 1.78-1.116 3.485-2.066 3.709-2.066s1.265.58 3.77 2.1c2.692 1.636 4.706 2.656 5.767 2.92.613.153 1.04.105 1.608-.182 1.107-.558 2.636-1.786 4.55-3.657 2.586-2.526 4.967-5.49 5.27-6.559.103-.363.013-.436-.54-.423-.885.02-2.016.327-6.648 1.8-1.933.614-3.306.994-3.597.994-.456 0-2.059-.925-4.332-2.5-1.1-.763-3.356-2.233-4.053-2.643-.985-.58-1.497-.778-1.903-.74-.689.064-1.922.798-6.267 3.728-2.076 1.4-3.204 2.059-3.66 2.135-.38.064-.905-.083-5.99-1.68-1.632-.512-2.881-.86-3.587-.997-.502-.098-1.2-.132-1.308-.062-.385.245.682 1.974 2.506 4.063 3.014 3.45 6.223 6.253 7.735 6.753.258.086.846.057 1.26-.062"
     filter="url(#b)"
     opacity=".1"
     id="path2" /><path
     fill="#fff"
     d="M22.579 38.883c1.092-.313 3.584-1.588 5.71-2.922 1.78-1.116 3.485-2.066 3.709-2.066s1.265.58 3.77 2.1c2.692 1.636 4.706 2.656 5.767 2.92.613.153 1.04.105 1.608-.182 1.107-.558 2.636-1.786 4.55-3.657 2.586-2.526 4.967-5.49 5.27-6.559.103-.363.013-.436-.54-.423-.885.02-2.016.327-6.648 1.8-1.933.614-3.306.994-3.597.994-.456 0-2.059-.925-4.332-2.5-1.1-.763-3.356-2.233-4.053-2.643-.985-.58-1.497-.778-1.903-.74-.689.064-1.922.798-6.267 3.728-2.076 1.4-3.204 2.059-3.66 2.135-.38.064-.905-.083-5.99-1.68-1.632-.512-2.881-.86-3.587-.997-.502-.098-1.2-.132-1.308-.062-.385.245.682 1.974 2.506 4.063 3.014 3.45 6.223 6.253 7.735 6.753.258.086.846.057 1.26-.062"
     id="path3" /></svg>
