<?xml version="1.0" encoding="UTF-8" standalone="no"?>
<svg
   width="64"
   height="64"
   viewBox="0 0 16.933 16.933"
   version="1.1"
   id="svg3"
   sodipodi:docname="fightcade.svg"
   xml:space="preserve"
   inkscape:version="1.4.2 (ebf0e940d0, 2025-05-08)"
   xmlns:inkscape="http://www.inkscape.org/namespaces/inkscape"
   xmlns:sodipodi="http://sodipodi.sourceforge.net/DTD/sodipodi-0.dtd"
   xmlns="http://www.w3.org/2000/svg"
   xmlns:svg="http://www.w3.org/2000/svg"><sodipodi:namedview
     id="namedview3"
     pagecolor="#505050"
     bordercolor="#eeeeee"
     borderopacity="1"
     inkscape:showpageshadow="0"
     inkscape:pageopacity="0"
     inkscape:pagecheckerboard="0"
     inkscape:deskcolor="#505050"
     inkscape:zoom="2.9921875"
     inkscape:cx="51.801567"
     inkscape:cy="16.041775"
     inkscape:window-width="1920"
     inkscape:window-height="1003"
     inkscape:window-x="0"
     inkscape:window-y="0"
     inkscape:window-maximized="1"
     inkscape:current-layer="svg3" /><defs
     id="defs2"><linearGradient
       id="a"
       x1="7.937"
       x2="7.937"
       y1="15.081"
       y2="1.852"
       gradientUnits="userSpaceOnUse"
       gradientTransform="translate(-20.758129,-9.253624)"><stop
         offset="0"
         stop-color="#0e71de"
         style="stop-color:#5d324f;stop-opacity:1"
         id="stop1" /><stop
         offset="1"
         stop-color="#25c9ff"
         style="stop-color:#a04b83;stop-opacity:1"
         id="stop2" /></linearGradient><filter
       id="b"
       width="1.3475175"
       height="1.2549921"
       x="-0.17375876"
       y="-0.12749606"
       style="color-interpolation-filters:sRGB"><feGaussianBlur
         stdDeviation=".506"
         id="feGaussianBlur2" /></filter></defs><g
     id="g16531"
     transform="matrix(0.79819188,0,0,0.79819188,-38.206861,8.9269338)"><path
       id="rect16525"
       style="fill:#ffffff;fill-opacity:1;stroke:#3a2435;stroke-width:0.264578;stroke-linejoin:round;stroke-dasharray:none;stroke-opacity:1"
       d="m 66.213543,-2.6492906 -1.71614,1.71614069 h -2.59462 v 0.71260385 h 2.59411 l 1.71665,1.71614066 2.07219,-2.07218426 z m 0,1.0366089 1.0361,1.03609204 -1.0361,1.0360922 -1.03661,-1.0360922 z" /><path
       id="path16525"
       style="fill:#ffffff;fill-opacity:1;stroke:#3a2435;stroke-width:0.264578;stroke-linejoin:round;stroke-dasharray:none;stroke-opacity:1"
       d="m 50.73418,-2.6492906 1.71614,1.71614069 h 2.59462 v 0.71260385 H 52.45083 L 50.73418,1.4955946 48.66199,-0.57658966 Z m 0,1.0366089 -1.0361,1.03609204 1.0361,1.0360922 1.03661,-1.0360922 z" /><path
       id="path16526"
       style="fill:#ffffff;fill-opacity:1;stroke:#3a2435;stroke-width:0.264578;stroke-linejoin:round;stroke-dasharray:none;stroke-opacity:1"
       d="m 62.481203,-7.5150675 v 2.426989 l -1.83467,1.8346734 0.50389,0.503887 1.83431,-1.8343128 2.42735,-3.602e-4 v -2.9305151 z m 0.73299,0.7329932 1.46527,-5.6e-6 -1e-5,1.4652611 -1.46562,3.662e-4 z" /><path
       id="path16527"
       style="fill:#ffffff;fill-opacity:1;stroke:#3a2435;stroke-width:0.264578;stroke-linejoin:round;stroke-dasharray:none;stroke-opacity:1"
       d="m 51.535642,3.4304951 2.426989,5e-7 1.834673,-1.8346734 0.503887,0.503887 -1.834312,1.8343127 -3.61e-4,2.4273496 -2.930515,4.1e-6 z m 0.732993,0.7329931 -5e-6,1.4652611 1.465261,-5.5e-6 3.66e-4,-1.4656218 z" /><path
       id="path16528"
       style="fill:#ffffff;fill-opacity:1;stroke:#3a2435;stroke-width:0.264578;stroke-linejoin:round;stroke-dasharray:none;stroke-opacity:1"
       d="m 56.401417,-8.3165271 1.716136,1.7161404 10e-6,2.5946176 0.7126,-2.1e-6 v -2.5941081 l 1.71614,-1.7166503 -2.07219,-2.0721874 z m 1.036606,2.3e-6 1.0361,-1.0361063 1.03609,1.0361031 -1.03609,1.0366088 z" /><path
       id="path16529"
       style="fill:#ffffff;fill-opacity:1;stroke:#3a2435;stroke-width:0.264578;stroke-linejoin:round;stroke-dasharray:none;stroke-opacity:1"
       d="m 56.401418,7.1628348 1.716145,-1.71614 V 2.8520751 h 0.7126 v 2.5941094 l 1.71614,1.7166506 -2.07218,2.07219 z m 1.036605,1e-7 1.0361,1.0360996 1.03609,-1.0360999 -1.03609,-1.0366099 z" /><path
       id="path16530"
       style="fill:#ffffff;fill-opacity:1;stroke:#3a2435;stroke-width:0.264578;stroke-linejoin:round;stroke-dasharray:none;stroke-opacity:1"
       d="m 51.53564,-4.5841885 2.426986,3.1e-6 1.834679,1.8346647 0.503883,-0.5038858 -1.834311,-1.8343114 -3.61e-4,-2.4273493 -2.930518,1.8e-6 z m 0.732993,-0.7329895 -4e-6,-1.4652711 1.465262,9.3e-6 3.66e-4,1.4656193 z" /><path
       id="path16531"
       style="fill:#ffffff;fill-opacity:1;stroke:#3a2435;stroke-width:0.264578;stroke-linejoin:round;stroke-dasharray:none;stroke-opacity:1"
       d="m 62.481203,6.3613726 v -2.426992 l -1.83467,-1.8346732 0.50388,-0.5038843 1.83432,1.8343124 2.42735,3.61e-4 v 2.9305121 z m 0.73299,-0.7329904 1.46527,-3e-7 -1e-5,-1.4652595 -1.46562,-3.676e-4 z" /><path
       id="path16518"
       style="fill:#33f0e4;fill-opacity:1;stroke:#3a2435;stroke-width:0.264578;stroke-linejoin:round;stroke-dasharray:none;stroke-opacity:1"
       d="m 58.558353,-4.9147407 a 4.32622,4.32622 0 0 0 -4.326263,4.3262657 4.32622,4.32622 0 0 0 4.326263,4.3262658 4.32622,4.32622 0 0 0 4.32575,-4.3262658 4.32622,4.32622 0 0 0 -4.32575,-4.3262657 z m 0,2.2737182 a 2.0525012,2.0525012 0 0 1 2.05203,2.0525475 2.0525012,2.0525012 0 0 1 -2.05203,2.0525475 2.0525012,2.0525012 0 0 1 -2.052545,-2.0525475 2.0525012,2.0525012 0 0 1 2.052545,-2.0525475 z" /></g></svg>
