<?xml version="1.0" encoding="UTF-8" standalone="no"?>
<svg
   width="64"
   height="64"
   viewBox="0 0 16.933 16.933"
   version="1.1"
   id="svg5"
   sodipodi:docname="fish.svg"
   xml:space="preserve"
   inkscape:version="1.4.2 (ebf0e940d0, 2025-05-08)"
   xmlns:inkscape="http://www.inkscape.org/namespaces/inkscape"
   xmlns:sodipodi="http://sodipodi.sourceforge.net/DTD/sodipodi-0.dtd"
   xmlns="http://www.w3.org/2000/svg"
   xmlns:svg="http://www.w3.org/2000/svg"><sodipodi:namedview
     id="namedview5"
     pagecolor="#505050"
     bordercolor="#eeeeee"
     borderopacity="1"
     inkscape:showpageshadow="0"
     inkscape:pageopacity="0"
     inkscape:pagecheckerboard="0"
     inkscape:deskcolor="#505050"
     inkscape:zoom="2.9921875"
     inkscape:cx="65.83812"
     inkscape:cy="35.091384"
     inkscape:window-width="1920"
     inkscape:window-height="1003"
     inkscape:window-x="0"
     inkscape:window-y="0"
     inkscape:window-maximized="1"
     inkscape:current-layer="svg5" /><defs
     id="defs2"><linearGradient
       id="a"
       x1="7.937"
       x2="7.937"
       y1="15.081"
       y2="1.852"
       gradientUnits="userSpaceOnUse"><stop
         offset="0"
         stop-color="#767574"
         id="stop1" /><stop
         offset="1"
         stop-color="#d1e7ee"
         id="stop2" /></linearGradient></defs><path
     fill="#fed909"
     d="M 8.7698938,0.53499288 A 7.9370766,7.9370766 0 0 0 6.4122008,0.7995719 7.9370766,7.9370766 0 0 0 0.79959779,10.520499 7.9370766,7.9370766 0 0 0 10.520525,16.133396 7.9370766,7.9370766 0 0 0 16.133422,6.4124688 7.9370766,7.9370766 0 0 0 8.7698938,0.53499288 Z"
     id="path1"
     style="stroke-width:0.293975;fill:#f9f800;fill-opacity:1" /><circle
     cx="5.9866109"
     cy="10.369338"
     r="6.7614641"
     fill="#273f57"
     transform="rotate(-15.000001)"
     id="circle1"
     style="stroke-width:0.293975;fill:#000001;fill-opacity:1" /><g
     fill="#fff"
     id="g5"
     style="fill:#f9f800;fill-opacity:1"><path
       d="m12.91 8.497-1.492-2.074a.55.55 0 0 0-.38-.19H7.954a.52.52 0 0 0-.366.19l-.418.57 1.088 1.504a.34.34 0 0 1 .063.19.34.34 0 0 1-.063.19L7.169 10.38l.418.57c.076.1.24.189.366.189h3.086a.55.55 0 0 0 .38-.19l1.491-2.074a.34.34 0 0 0 .064-.19.34.34 0 0 0-.064-.189zm-2.554-1.568a.26.26 0 0 1 .266.266.26.26 0 0 1-.266.265.26.26 0 0 1-.266-.265.26.26 0 0 1 .266-.266"
       id="path4"
       style="fill:#f9f800;fill-opacity:1" /><path
       d="M7.79 8.687a.3.3 0 0 1-.064.19L6.22 10.95a.55.55 0 0 1-.38.19H3.997c-.089 0-.14-.038-.14-.101 0-.026.013-.064.038-.089l1.644-2.263-1.644-2.264-.038-.088c0-.064.051-.101.14-.101h1.846c.126 0 .303.088.38.19l1.504 2.073a.34.34 0 0 1 .063.19"
       id="path5"
       style="fill:#f9f800;fill-opacity:1" /></g></svg>
