<?xml version="1.0" encoding="UTF-8" standalone="no"?>
<svg
   xml:space="preserve"
   width="64"
   height="64"
   version="1.1"
   id="svg5"
   sodipodi:docname="flatout.svg"
   inkscape:version="1.4.2 (ebf0e940d0, 2025-05-08)"
   xmlns:inkscape="http://www.inkscape.org/namespaces/inkscape"
   xmlns:sodipodi="http://sodipodi.sourceforge.net/DTD/sodipodi-0.dtd"
   xmlns:xlink="http://www.w3.org/1999/xlink"
   xmlns="http://www.w3.org/2000/svg"
   xmlns:svg="http://www.w3.org/2000/svg"><sodipodi:namedview
     id="namedview5"
     pagecolor="#505050"
     bordercolor="#eeeeee"
     borderopacity="1"
     inkscape:showpageshadow="0"
     inkscape:pageopacity="0"
     inkscape:pagecheckerboard="0"
     inkscape:deskcolor="#505050"
     inkscape:zoom="4.2315921"
     inkscape:cx="56.716241"
     inkscape:cy="43.955087"
     inkscape:window-width="1920"
     inkscape:window-height="1003"
     inkscape:window-x="0"
     inkscape:window-y="0"
     inkscape:window-maximized="1"
     inkscape:current-layer="svg5" /><defs
     id="defs5"><linearGradient
       id="b"><stop
         offset="0"
         style="stop-color:#db1f1f;stop-opacity:1"
         id="stop1" /><stop
         offset=".493"
         style="stop-color:#fae300;stop-opacity:1"
         id="stop2" /><stop
         offset="1"
         style="stop-color:#db211f;stop-opacity:1"
         id="stop3" /></linearGradient><linearGradient
       id="a"
       x1="7.937"
       x2="7.937"
       y1="15.081"
       y2="1.852"
       gradientTransform="scale(3.7796)"
       gradientUnits="userSpaceOnUse"><stop
         offset="0"
         stop-color="#363636"
         style="stop-color:#1a1a1a;stop-opacity:1"
         id="stop4" /><stop
         offset="1"
         stop-color="#6c6c6c"
         style="stop-color:#333;stop-opacity:1"
         id="stop5" /></linearGradient><linearGradient
       xlink:href="#a"
       id="c"
       x1="7.937"
       x2="7.937"
       y1="15.081"
       y2="1.852"
       gradientTransform="scale(3.7796)"
       gradientUnits="userSpaceOnUse" /><linearGradient
       xlink:href="#b"
       id="d"
       x1="32.001"
       x2="32.001"
       y1="20.261"
       y2="49.259"
       gradientUnits="userSpaceOnUse" /></defs><path
     d="M 7.500071,4.5 C 5.838085,4.5 4.5,5.838085 4.5,7.500071 V 56.499928 C 4.5,58.161912 5.838085,59.5 7.500071,59.5 H 56.49993 C 58.16192,59.5 59.5,58.161912 59.5,56.499928 V 7.500071 C 59.5,5.838085 58.16192,4.5 56.49993,4.5 Z"
     id="rect1572"
     style="fill:#000000;fill-opacity:1" /><path
     d="M9.995 51.228c-.02-.032.028-.177.106-.323.238-.445 6.487-11.379 6.682-11.692.181-.291.347-.406.251-.173a3 3 0 0 0-.105.328c-.03.114-.185.643-.343 1.175s-.314 1.06-.345 1.174c-.032.114-.125.425-.208.691s-.175.577-.207.69a76 76 0 0 1-.27.916l-.841 2.799c-.22.73-.284.95-.4 1.364-.036.133-.134.46-.216.726-.083.266-.176.576-.208.69-.031.114-.125.425-.208.691s-.167.562-.187.657c-.075.346-.069.345-1.82.345-.905 0-1.662-.026-1.681-.058zM7.12 49.921c0-.066.08-.338.178-.604s.235-.655.305-.864.226-.644.346-.967.275-.758.345-.967c.07-.21.226-.644.346-.967s.245-.665.277-.76c.031-.095.187-.53.346-.968s.314-.872.345-.967c.032-.095.187-.53.346-.967s.314-.872.344-.967c.031-.095.155-.437.275-.76s.277-.759.347-.968.225-.644.345-.967.275-.758.345-.967c.07-.21.226-.645.347-.968s.244-.665.276-.76.187-.53.346-.967.314-.872.346-.967a65 65 0 0 1 .345-.967c.159-.437.314-.873.345-.968s.154-.437.275-.76c.12-.323.276-.758.347-.967s.196-.566.28-.794l.411-1.14.547-1.52c.385-1.063.695-1.931.765-2.142.032-.095.188-.53.346-.967.16-.437.314-.873.345-.968s.155-.437.275-.76.275-.758.344-.967c.07-.209.178-.509.241-.666l.115-.286-.28-.602c-.155-.33-.281-.628-.281-.66 0-.113.179-.168.69-.214.286-.025.877-.084 1.314-.13.96-.102.79-.102 1.623 0 .38.046.886.106 1.123.133.238.027.467.084.51.127.089.088.092.074-.354 1.573-.159.532-.314 1.06-.346 1.174s-.125.425-.207.691c-.083.266-.176.577-.208.69a80 80 0 0 1-.275.934 333 333 0 0 0-.83 2.798 36 36 0 0 1-.207.69c-.083.267-.176.578-.208.692-.031.114-.155.533-.275.932a333 333 0 0 0-.83 2.799c-.032.114-.125.424-.207.69-.083.266-.176.577-.208.691-.031.114-.155.534-.275.933a293 293 0 0 0-.83 2.798c-.182.663-.316.991-.624 1.524-.189.327-.343.605-.343.618s-.156.293-.346.622-.345.609-.345.622-.156.292-.346.621c-.19.33-.345.609-.345.621s-.218.402-.484.865a21 21 0 0 0-.483.867c0 .014-.088.174-.195.356s-.306.534-.441.78c-.136.248-.68 1.227-1.21 2.177s-1.066 1.914-1.191 2.142-.282.508-.349.622c-.066.114-.199.35-.294.523-.375.685-.176.617-1.795.617-1.321 0-1.434-.01-1.434-.122zm46.396-2.245c.021-.427.055-.87.074-.984s.065-.627.101-1.14c.078-1.088.172-2.31.27-3.524.091-1.117.19-2.364.276-3.49l.14-1.795.143-1.797.135-1.727c.035-.456.097-1.233.137-1.727s.102-1.272.137-1.728l.135-1.727.143-1.796a903 903 0 0 0 .405-5.257c.054-.802.095-.996.207-.996.028 0 .092.117.143.26.05.142.154.398.23.57.255.58.316.724.436 1.036.066.17.154.354.196.407.09.115.068 7.295-.032 10.682a200 200 0 0 0-.064 4.724c-.002 3.016-.088 4.03-.489 5.708-.37 1.557-1.379 3.602-2.324 4.716-.17.2-.337.362-.373.362-.04 0-.05-.31-.026-.777zm-11.091.643a9 9 0 0 0-.553-.14c-.497-.111-.797-.21-1.59-.527-1.384-.552-2.264-1.118-3.088-1.985-.578-.608-.832-.968-1.188-1.683-.362-.726-.52-1.207-.766-2.337-.051-.234-.083-2.513-.099-6.979-.013-3.647-.047-8.443-.076-10.659-.055-4.16-.058-4.077.212-5.16.303-1.214.84-1.906 2.415-3.115.446-.343 1.335-.928 1.41-.928.123 0 .099-.074.564 1.71l.415 1.59.454 1.744c.528 2.04.647 2.495.925 3.558.413 1.579.421 1.622.398 2.149l-.02.477-.38-.022c-.445-.024-1.41.133-1.942.316-.371.128-.373.13-.419.47-.025.188-.048.838-.051 1.446a90 90 0 0 1-.086 2.867c-.061 1.356-.06 1.96.003 2.625.154 1.605.404 2.867.83 4.196.216.674.194.647.993 1.201.033.023 0 .179-.075.346-.302.678-.395 1.16-.318 1.642.059.365.387.708.8.834 1.11.339 1.783.643 2.08.94.097.097.192.325.25.595.05.24.118.547.152.68.033.133.126.537.207.898.198.884.395 1.742.516 2.25.166.698.119.82-.377.987-.264.089-1.33.098-1.596.014zm5.506-.52c-.41-.316-.767-.594-.791-.619-.025-.024-.07-.253-.1-.508s-.087-.728-.128-1.051c-.287-2.281-.36-2.909-.368-3.168-.01-.256-.034-.242.959-.562 1.023-.33 1.309-.552 1.573-1.222.216-.545.262-.935.329-2.786l.136-3.731.274-7.566c.107-2.958.198-4.75.25-4.927.072-.244-.11-1.383-.286-1.786-.297-.68-1.134-1.315-1.99-1.508l-.355-.08v-4.204l.31.015c.674.034 2.31.32 3.714.65.69.16 1.177.366 1.714.72.618.408 1.447 1.235 1.886 1.881.323.475.35.7.219 1.774-.038.306-.1.875-.138 1.264a864 864 0 0 1-.281 2.799 1819 1819 0 0 0-.415 4.076c-.212 2.069-.19 1.845-.41 4.059a1907 1907 0 0 1-.557 5.475l-.137 1.33-.136 1.348-.137 1.347-.14 1.382c-.277 2.818-.475 4.685-.519 4.906-.058.293-1.376.97-2.331 1.199a4.5 4.5 0 0 1-.864.073l-.534-.006zm-1.706-.107a32 32 0 0 0-.673-.104c-.2-.029-.398-.095-.442-.148s-.104-.414-.133-.802-.092-1.173-.14-1.743c-.11-1.309-.115-1.582-.029-1.616.072-.027.192.18.474.822a282 282 0 0 0 .874 1.969c.211.478.41.922.552 1.24.22.489.209.498-.483.382zm-27.07-13.32c-.105-.07-.047-.344.332-1.568.082-.266.175-.576.207-.69s.156-.534.276-.933c.12-.4.267-.897.327-1.106.171-.592.176-.595 1.178-.649.483-.026 1.376-.075 1.984-.11.608-.034 1.734-.095 2.503-.134a46 46 0 0 0 1.48-.09c.15-.032.146.228-.011.803l-.482 1.77-.198.725c-.385 1.421-.451 1.632-.52 1.675-.043.026-.714.07-1.493.098-3.493.124-5.055.192-5.266.228-.125.022-.267.013-.316-.02zM42.2 23.287c-.019-.123-.269-1.142-.556-2.263-.91-3.55-1.913-7.554-1.895-7.562l.19-.089c.406-.19 2.25-.766 2.298-.717.056.056.148.419.393 1.563a178 178 0 0 0 .484 2.194c.396 1.764.407 1.852.235 1.994-.117.097-.473.816-.592 1.195-.33 1.058-.4 1.536-.4 2.752 0 .637-.028 1.158-.062 1.158s-.077-.101-.095-.225zM22.279 22.18a7 7 0 0 1 .172-.65c.07-.22.19-.619.27-.885.143-.487.556-1.87.6-2.01.024-.077.452-.173 1.97-.442.247-.044.59-.106.76-.138l.76-.14a58 58 0 0 0 1.52-.282c.525-.11 1.65-.197 2.548-.198.85-.002.854-.001.82.153-.047.21-.763 2.99-.948 3.68-.082.303-.173.577-.202.606s-.61.086-1.291.124-1.704.098-2.274.133l-2.176.134c-.627.039-1.463.091-1.858.117l-.718.046zm21.946-3.637a.7.7 0 0 1-.072-.286c0-.083-.028-.264-.063-.402a22 22 0 0 1-.276-1.355c-.104-.582-.338-1.8-.426-2.21a5 5 0 0 1-.086-.657l-.013-.311.83-.06c1.312-.096 2.49-.093 2.47.005-.008.045-.036 1.094-.062 2.331l-.047 2.25h-.436c-.526 0-1.04.209-1.425.579-.142.137-.273.25-.29.25-.018 0-.065-.06-.104-.134zM23.68 17.366c-.102-.122-.186-.25-.186-.285 0-.038.906-.064 2.21-.064 1.217 0 2.212.027 2.212.06s-.21.079-.467.102c-.43.039-.736.075-2.159.258-.285.037-.722.085-.971.108-.446.041-.456.038-.64-.18zm-2.535-.421a5 5 0 0 0-.633-.06c-.948-.016-.28-.274.72-.28.358-.001.604.026.604.067 0 .085-.257.348-.328.337z"
     style="fill:url(#d);stroke:#000;stroke-width:.494183;stroke-opacity:1"
     id="path5" /></svg>
