<?xml version="1.0" encoding="UTF-8" standalone="no"?>
<svg
   width="64"
   height="64"
   version="1.1"
   id="svg5"
   sodipodi:docname="flatsweep.svg"
   xml:space="preserve"
   inkscape:version="1.4.2 (ebf0e940d0, 2025-05-08)"
   xmlns:inkscape="http://www.inkscape.org/namespaces/inkscape"
   xmlns:sodipodi="http://sodipodi.sourceforge.net/DTD/sodipodi-0.dtd"
   xmlns="http://www.w3.org/2000/svg"
   xmlns:svg="http://www.w3.org/2000/svg"><sodipodi:namedview
     id="namedview5"
     pagecolor="#505050"
     bordercolor="#eeeeee"
     borderopacity="1"
     inkscape:showpageshadow="0"
     inkscape:pageopacity="0"
     inkscape:pagecheckerboard="0"
     inkscape:deskcolor="#505050"
     inkscape:zoom="4.5859375"
     inkscape:cx="18.534923"
     inkscape:cy="41.867121"
     inkscape:window-width="2560"
     inkscape:window-height="1411"
     inkscape:window-x="0"
     inkscape:window-y="0"
     inkscape:window-maximized="1"
     inkscape:current-layer="svg5" /><defs
     id="defs2"><linearGradient
       id="a"
       x1="7.937"
       x2="7.937"
       y1="15.081"
       y2="1.852"
       gradientTransform="matrix(3.7796,0,0,3.7796,-142.82794,0)"
       gradientUnits="userSpaceOnUse"><stop
         offset="0"
         stop-color="#f54800"
         style="stop-color:#fb2e2e;stop-opacity:1"
         id="stop1" /><stop
         offset="1"
         stop-color="#ffb200"
         style="stop-color:#fb7878;stop-opacity:1"
         id="stop2" /></linearGradient><filter
       id="b"
       width="1.3100079"
       height="1.2796"
       x="-0.15500394"
       y="-0.1398"
       style="color-interpolation-filters:sRGB"><feGaussianBlur
         stdDeviation="4.66"
         id="feGaussianBlur2" /></filter></defs><rect
     style="fill:#3368ae;fill-opacity:0.99215686;stroke-width:1.18325;stroke-linejoin:round"
     id="rect7"
     width="57.166069"
     height="40.994888"
     x="3.4169655"
     y="11.502556"
     rx="8.4583521"
     ry="8.4583521" /><path
     id="path6"
     style="fill:#fb4c50;fill-opacity:1;stroke-width:1.03472;stroke-linejoin:round"
     d="M 32,3.9581923 6.6332732,18.078438 V 45.918783 L 32,59.958192 57.366727,45.918783 V 18.078438 Z" /><g
     style="opacity:.15;fill:#050000;fill-opacity:1;filter:url(#b)"
     transform="translate(-5.22 -4.479)scale(.56998)"
     id="g3"><path
       d="M64 24v40l34.64-20Zm0 40L29.36 44v40L64 104Z"
       style="display:inline;fill:#050000;fill-opacity:1;stroke:none;stroke-width:.1;stroke-linecap:square;stroke-linejoin:round"
       id="path2" /><path
       d="M83.721 65.11c-.89.514-1.78 1.944-1.78 2.861v2.75l-6.226 3.596c-.493.284-.89.922-.89 1.43v1.834c0 .508.397.687.89.403l2.669-1.54v17.418c0 .917.89 1.32 1.779.806l16.012-9.244c.89-.514 1.78-1.944 1.78-2.861V65.144l2.668-1.54c.493-.285.89-.923.89-1.431v-1.834c0-.508-.397-.687-.89-.403l-6.227 3.595v-2.75c0-.917-.89-1.32-1.78-.807zm1.78 1.724 5.337-3.082c.446-.258.89-.052.89.403v.917l-7.117 4.109v-.917c0-.46.445-1.174.89-1.43m-3.56 7.555 12.455-7.19v15.585l-12.454 7.19Zm4.004.439c-.74.427-1.334 1.384-1.334 2.145v7.335c0 .762.595 1.031 1.334.605.74-.427 1.334-1.384 1.334-2.146v-7.334c0-.762-.595-1.032-1.334-.605m4.448-2.568c-.74.427-1.335 1.384-1.335 2.146v7.334c0 .762.596 1.031 1.335.605.739-.427 1.334-1.384 1.334-2.146v-7.334c0-.762-.595-1.032-1.334-.605"
       style="display:inline;fill:#050000;fill-opacity:1;stroke-width:.143847;stroke-linecap:square;stroke-linejoin:round"
       id="path3" /></g><path
     d="M64 24v40l34.64-20Zm0 40L29.36 44v40L64 104Z"
     style="display:inline;fill:#fff;stroke:none;stroke-width:.1;stroke-linecap:square;stroke-linejoin:round"
     transform="translate(-5.22 -4.479)scale(.56998)"
     id="path4" /><path
     d="M83.721 65.11c-.89.514-1.78 1.944-1.78 2.861v2.75l-6.226 3.596c-.493.284-.89.922-.89 1.43v1.834c0 .508.397.687.89.403l2.669-1.54v17.418c0 .917.89 1.32 1.779.806l16.012-9.244c.89-.514 1.78-1.944 1.78-2.861V65.144l2.668-1.54c.493-.285.89-.923.89-1.431v-1.834c0-.508-.397-.687-.89-.403l-6.227 3.595v-2.75c0-.917-.89-1.32-1.78-.807zm1.78 1.724 5.337-3.082c.446-.258.89-.052.89.403v.917l-7.117 4.109v-.917c0-.46.445-1.174.89-1.43m-3.56 7.555 12.455-7.19v15.585l-12.454 7.19Zm4.004.439c-.74.427-1.334 1.384-1.334 2.145v7.335c0 .762.595 1.031 1.334.605.74-.427 1.334-1.384 1.334-2.146v-7.334c0-.762-.595-1.032-1.334-.605m4.448-2.568c-.74.427-1.335 1.384-1.335 2.146v7.334c0 .762.596 1.031 1.335.605.739-.427 1.334-1.384 1.334-2.146v-7.334c0-.762-.595-1.032-1.334-.605"
     style="display:inline;fill:#fff;stroke-width:.143847;stroke-linecap:square;stroke-linejoin:round"
     transform="translate(-5.22 -4.479)scale(.56998)"
     id="path5" /></svg>
