<?xml version="1.0" encoding="UTF-8" standalone="no"?>
<svg
   width="64"
   height="64"
   version="1"
   id="svg3"
   sodipodi:docname="fontforge.svg"
   xml:space="preserve"
   inkscape:version="1.4.2 (ebf0e940d0, 2025-05-08)"
   xmlns:inkscape="http://www.inkscape.org/namespaces/inkscape"
   xmlns:sodipodi="http://sodipodi.sourceforge.net/DTD/sodipodi-0.dtd"
   xmlns="http://www.w3.org/2000/svg"
   xmlns:svg="http://www.w3.org/2000/svg"><sodipodi:namedview
     id="namedview3"
     pagecolor="#505050"
     bordercolor="#eeeeee"
     borderopacity="1"
     inkscape:showpageshadow="0"
     inkscape:pageopacity="0"
     inkscape:pagecheckerboard="0"
     inkscape:deskcolor="#505050"
     inkscape:zoom="3.2427475"
     inkscape:cx="32.99671"
     inkscape:cy="-6.1676094"
     inkscape:window-width="2560"
     inkscape:window-height="1411"
     inkscape:window-x="0"
     inkscape:window-y="0"
     inkscape:window-maximized="1"
     inkscape:current-layer="svg3" /><defs
     id="defs2"><linearGradient
       id="a"
       x1="7.937"
       x2="7.937"
       y1="15.081"
       y2="1.852"
       gradientTransform="matrix(3.7796,0,0,3.7796,7.5553215,-20.044731)"
       gradientUnits="userSpaceOnUse"><stop
         offset="0"
         stop-color="#f1efeb"
         id="stop1" /><stop
         offset="1"
         stop-color="#fdfcfc"
         id="stop2" /></linearGradient><linearGradient
       id="linearGradient825"
       x1="-741.83002"
       x2="-741.83002"
       y1="959.04999"
       y2="449.2847"
       gradientTransform="matrix(0.06680372,0,0,0.06680372,80.249408,-2.3477586)"
       gradientUnits="userSpaceOnUse"><stop
         stop-color="#ccd4da"
         offset="0"
         id="stop3" /><stop
         stop-color="#fff"
         offset="1"
         id="stop4"
         style="stop-color:#f9f9f9;stop-opacity:1" /></linearGradient></defs><circle
     cx="32"
     cy="32"
     r="30.00009"
     fill="url(#linearGradient825)"
     id="circle6"
     style="fill:#fbfbfb;stroke-width:0.48876;fill-opacity:1" /><path
     fill="#333333"
     d="m 36.733728,15.388186 c -4.390266,0 -7.057649,4.909977 -8.736628,9.274139 l -0.853136,2.591443 h -5.608123 v 2.373116 h 4.827368 l -0.474623,1.446415 -2.683995,8.593054 c -0.832964,2.418206 -1.42031,6.261468 -3.958358,6.573533 -1.110619,0.134081 -1.063156,-2.373117 -2.373117,-2.373117 -3.164154,0 -3.164154,4.746233 0,4.746233 h 1.49625 c 5.07491,0 7.971298,-6.387243 10.146259,-13.415227 l 1.219782,-3.967851 0.498355,-1.60304 h 5.023981 l -0.474623,1.445228 -2.683995,8.594241 c -0.832964,2.418205 -1.42031,6.261468 -3.958358,6.572345 -1.110619,0.135269 -1.063156,-2.373116 -2.373118,-2.373116 -3.164152,0 -3.164152,4.746232 0,4.746232 h 1.49625 c 5.074911,0 7.971298,-6.386056 10.14626,-13.41404 l 1.218595,-3.967851 0.498354,-1.604227 5.872524,0 V 27.25258 l -5.133298,0 0.711935,-2.284124 c 1.003828,-2.58907 1.422683,-6.846441 4.175498,-7.208342 1.109432,-0.145946 1.06197,2.373117 2.373117,2.373117 3.164154,0 3.164154,-4.746233 0,-4.746233 h -1.497437 c -4.390265,0 -7.057648,4.911164 -8.736628,9.275326 l -0.854322,2.590256 h -5.06907 l 0.711935,-2.284124 c 1.005015,-2.58907 1.42387,-6.846441 4.176685,-7.208342 1.109432,-0.145946 1.061969,2.373117 2.373116,2.373117 3.164154,0 3.164154,-4.746233 0,-4.746233 h -1.497436 z"
     id="path3"
     sodipodi:nodetypes="cccccccccssscccccccsssccccccccssscccccsscc"
     style="stroke-width:1.18656" /></svg>
