<?xml version="1.0" encoding="UTF-8" standalone="no"?>
<svg
   width="64"
   height="64"
   version="1.1"
   id="svg16"
   sodipodi:docname="formatlab.svg"
   xml:space="preserve"
   inkscape:version="1.4.2 (ebf0e940d0, 2025-05-08)"
   xmlns:inkscape="http://www.inkscape.org/namespaces/inkscape"
   xmlns:sodipodi="http://sodipodi.sourceforge.net/DTD/sodipodi-0.dtd"
   xmlns="http://www.w3.org/2000/svg"
   xmlns:svg="http://www.w3.org/2000/svg"><sodipodi:namedview
     id="namedview16"
     pagecolor="#505050"
     bordercolor="#eeeeee"
     borderopacity="1"
     inkscape:showpageshadow="0"
     inkscape:pageopacity="0"
     inkscape:pagecheckerboard="0"
     inkscape:deskcolor="#505050"
     inkscape:zoom="6.485495"
     inkscape:cx="48.878304"
     inkscape:cy="6.0134192"
     inkscape:window-width="2560"
     inkscape:window-height="1411"
     inkscape:window-x="0"
     inkscape:window-y="0"
     inkscape:window-maximized="1"
     inkscape:current-layer="svg16" /><defs
     id="defs2"><linearGradient
       id="a"
       x1="7.937"
       x2="7.937"
       y1="15.081"
       y2="1.852"
       gradientTransform="scale(3.7796)"
       gradientUnits="userSpaceOnUse"><stop
         offset="0"
         stop-color="#f1efeb"
         id="stop1" /><stop
         offset="1"
         stop-color="#fdfcfc"
         id="stop2" /></linearGradient></defs><g
     id="g16"
     transform="matrix(1.2666667,0,0,1.2666667,-8.5333344,-7.900001)"><rect
       width="40"
       height="29"
       x="12"
       y="16"
       fill="#5aaae7"
       rx="4"
       ry="4"
       style="paint-order:stroke fill markers"
       id="rect3" /><path
       fill="#acabb1"
       d="M 25,53 H 39 L 37,44 H 27 Z"
       style="paint-order:stroke fill markers"
       id="path3" /><path
       fill="#c6c5ca"
       d="m 12,38 v 3 c 0,2.216 1.784,4 4,4 h 32 c 2.216,0 4,-1.784 4,-4 v -3 z"
       style="paint-order:stroke fill markers"
       id="path4" /><rect
       width="18"
       height="3"
       x="23"
       y="51"
       fill="#898890"
       rx="1.5"
       ry="1.5"
       style="paint-order:stroke fill markers"
       id="rect4" /><circle
       cx="23.462999"
       cy="28"
       r="7"
       fill="#e6e7e8"
       style="paint-order:stroke fill markers"
       id="circle4" /><path
       fill="#ff9811"
       d="m 25,9 c -1.108,0 -2,0.892 -2,2 v 5 h 1 v -5 c 0,-0.554 0.446,-1 1,-1 h 14 c 0.554,0 1,0.446 1,1 v 5 h 1 V 11 C 41,9.892 40.108,9 39,9 Z"
       style="paint-order:stroke fill markers"
       id="path5" /><rect
       width="5"
       height="9"
       x="21"
       y="16"
       fill="#e6e7e8"
       rx="1.5"
       ry="1.5"
       style="paint-order:stroke fill markers"
       id="rect5" /><rect
       width="7"
       height="3"
       x="20"
       y="15"
       fill="#d1d3d4"
       rx="1.5"
       ry="1.5"
       style="paint-order:stroke fill markers"
       id="rect6" /><path
       fill="#00ccb3"
       d="m 25.547,24.648 c -2.534,-0.037 -2.339,0.702 -5.318,1.082 -1.258,0.16 -2.344,-0.126 -3.182,-0.508 A 7,7 0 0 0 16.463,28 a 7,7 0 0 0 7,7 7,7 0 0 0 7,-7 7,7 0 0 0 -0.367,-2.228 c -1.212,-0.275 -2.393,-1.091 -4.549,-1.123"
       style="paint-order:stroke fill markers"
       id="path6" /><rect
       width="1.472"
       height="1.472"
       x="22.021"
       y="20.957001"
       opacity="0.15"
       rx="0"
       ry="0"
       style="paint-order:stroke fill markers"
       id="rect7" /><rect
       width="1.472"
       height="1.472"
       x="19.792999"
       y="27.096001"
       opacity="0.15"
       rx="0"
       ry="0"
       style="paint-order:stroke fill markers"
       id="rect8" /><rect
       width="1.472"
       height="1.472"
       x="24.351"
       y="25.601999"
       opacity="0.15"
       rx="0"
       ry="0"
       style="paint-order:stroke fill markers"
       id="rect9" /><rect
       width="1.472"
       height="1.472"
       x="23.576"
       y="29.281"
       opacity="0.15"
       rx="0"
       ry="0"
       style="paint-order:stroke fill markers"
       id="rect10" /><path
       fill="#e6e7e8"
       d="m 39.322,20.971 a 1,1 0 0 0 -0.916,0.596 l -4.879,11.02 a 1,1 0 0 0 0.912,1.407 l 12.002,0.012 a 1,1 0 0 0 0.93,-1.368 L 43.019,21.603 a 1,1 0 0 0 -0.93,-0.632 z"
       color="#000000"
       style="-inkscape-stroke:none;paint-order:stroke fill markers"
       id="path10" /><path
       fill="#ffd422"
       d="m 36,27 -2.473,5.588 a 1,1 0 0 0 0.912,1.406 l 12.002,0.012 a 1,1 0 0 0 0.93,-1.367 l -2.223,-5.64 z"
       style="paint-order:stroke fill markers"
       id="path11" /><rect
       width="1.472"
       height="1.472"
       x="39.528"
       y="30.264"
       opacity="0.15"
       rx="0"
       ry="0"
       style="paint-order:stroke fill markers"
       id="rect11" /><rect
       width="5"
       height="9"
       x="38"
       y="16"
       fill="#e6e7e8"
       rx="1.5"
       ry="1.5"
       style="paint-order:stroke fill markers"
       id="rect12" /><rect
       width="7"
       height="3"
       x="37"
       y="15"
       fill="#d1d3d4"
       rx="1.5"
       ry="1.5"
       style="paint-order:stroke fill markers"
       id="rect13" /><rect
       width="1.472"
       height="1.472"
       x="40.264"
       y="23"
       opacity="0.15"
       rx="0"
       ry="0"
       style="paint-order:stroke fill markers"
       id="rect14" /><rect
       width="1.472"
       height="1.472"
       x="36.791"
       y="28.264"
       opacity="0.15"
       rx="0"
       ry="0"
       style="paint-order:stroke fill markers"
       id="rect15" /><rect
       width="1.472"
       height="1.472"
       x="42.791"
       y="29.264"
       opacity="0.15"
       rx="0"
       ry="0"
       style="paint-order:stroke fill markers"
       id="rect16" /><path
       fill="#898890"
       d="m 45,40 h 2 v 2 h -2 z"
       style="paint-order:stroke fill markers"
       id="path16" /></g></svg>
