<?xml version="1.0" encoding="UTF-8" standalone="no"?>
<svg
   width="64"
   height="64"
   viewBox="0 0 16.933 16.933"
   version="1.1"
   id="svg6"
   sodipodi:docname="ftl.svg"
   inkscape:version="1.4.2 (ebf0e940d0, 2025-05-08)"
   xmlns:inkscape="http://www.inkscape.org/namespaces/inkscape"
   xmlns:sodipodi="http://sodipodi.sourceforge.net/DTD/sodipodi-0.dtd"
   xmlns:xlink="http://www.w3.org/1999/xlink"
   xmlns="http://www.w3.org/2000/svg"
   xmlns:svg="http://www.w3.org/2000/svg">
  <sodipodi:namedview
     id="namedview6"
     pagecolor="#505050"
     bordercolor="#eeeeee"
     borderopacity="1"
     inkscape:showpageshadow="0"
     inkscape:pageopacity="0"
     inkscape:pagecheckerboard="0"
     inkscape:deskcolor="#505050"
     inkscape:zoom="6.485495"
     inkscape:cx="26.36653"
     inkscape:cy="22.820155"
     inkscape:window-width="2560"
     inkscape:window-height="1411"
     inkscape:window-x="0"
     inkscape:window-y="0"
     inkscape:window-maximized="1"
     inkscape:current-layer="svg6" />
  <defs
     id="defs4">
    <linearGradient
       id="linearGradient6"
       inkscape:collect="always">
      <stop
         style="stop-color:#312f37;stop-opacity:1"
         offset="0"
         id="stop6" />
      <stop
         style="stop-color:#101215;stop-opacity:1"
         offset="1"
         id="stop7" />
    </linearGradient>
    <linearGradient
       id="a"
       x1="2.955"
       x2="14.374"
       y1="3.008"
       y2="14.316"
       gradientUnits="userSpaceOnUse"
       gradientTransform="translate(-18.202254)">
      <stop
         offset="0"
         stop-color="#3b3741"
         id="stop1" />
      <stop
         offset="1"
         stop-color="#101215"
         id="stop2" />
    </linearGradient>
    <linearGradient
       id="b"
       x1="-2.381"
       x2="6.879"
       y1="7.144"
       y2="-1.587"
       gradientUnits="userSpaceOnUse"
       gradientTransform="matrix(1.1363519,0,0,1.1363519,-1.1693409,-1.1931529)">
      <stop
         offset="0"
         stop-color="#7d6b66"
         id="stop3" />
      <stop
         offset="1"
         stop-color="#0b0c0b"
         id="stop4" />
    </linearGradient>
    <linearGradient
       inkscape:collect="always"
       xlink:href="#linearGradient6"
       id="linearGradient7"
       x1="18.952269"
       y1="2.423121"
       x2="32.409245"
       y2="-11.033854"
       gradientUnits="userSpaceOnUse"
       gradientTransform="translate(-17.155884,-4.1811907)" />
  </defs>
  <rect
     x="0.92602366"
     y="-16.006977"
     width="15.080953"
     height="15.080953"
     ry="1.3710808"
     stroke-width="0.949981"
     id="rect1-5"
     style="fill:url(#linearGradient7);fill-opacity:1"
     transform="scale(1,-1)" />
  <path
     id="path4"
     style="fill:url(#b);stroke-width:1.13635"
     d="M 2.2969722 0.92602344 C 1.5373935 0.92602344 0.92602344 1.5373935 0.92602344 2.2969722 L 0.92602344 8.99824 A 7.2726525 7.2726525 0 0 0 1.8375778 9.063351 A 7.2158349 7.2158349 0 0 0 9.0535327 1.8479128 A 7.2726525 7.2726525 0 0 0 8.9930725 0.92602344 L 2.2969722 0.92602344 z " />
  <path
     fill="#ffffff"
     d="m 4.6414705,0.92599241 c -0.078545,-0.004909 -0.1168365,0.0147273 -0.1433456,0.070691 l -0.00294,0.005891 h 0.3603275 a 0.09818189,0.09818189 0 0 0 -0.060873,-0.007855 c -0.027491,0.008837 -0.049091,-0.001964 -0.048109,-0.0235637 9.781e-4,-0.0216 -0.045164,-0.0412364 -0.1050547,-0.0451637 m 0.2140365,0.0765818 q 0.015709,0.00688 0.026509,0.018655 c 0.027491,0.031418 0.037309,0.026509 0.040254,-0.017673 z m 0.066764,0 h 0.249382 c -0.0108,-0.0353454 -0.046146,-0.0471272 -0.1217456,-0.0520363 -0.092291,-0.005891 -0.1246909,0.007855 -0.1276364,0.0520363 m 0.249382,0 a 0.19636378,0.19636378 0 0 1 -0.00197,0.0864 0.06872733,0.06872733 0 0 0 0.025527,0.0648 c 0.018655,0.012764 0.022582,0.046146 0.00982,0.073637 -0.011782,0.028472 -0.00491,0.052037 0.016691,0.054 0.0216,9.781e-4 0.041236,-0.022582 0.042218,-0.053018 0.00197,-0.030436 0.019637,-0.045164 0.037309,-0.031418 0.019637,0.012764 0.035345,0.00883 0.036327,-0.00982 9.782e-4,-0.018655 -0.021599,-0.044182 -0.049091,-0.056946 -0.029454,-0.013746 -0.050073,-0.056946 -0.048109,-0.0972 q 9.782e-4,-0.017673 0.00688,-0.029454 z m 0.0756,0 h 0.515455 L 5.7136186,0.9986517 C 5.3415074,0.96919724 5.2659073,0.96428814 5.2472527,1.0025738 m 0.515455,0 0.4192366,0.035345 0.00393,0.1158546 c 0.00294,0.0864 0.019636,0.1158546 0.0648,0.1109455 q 0.058909,-0.00491 0.056946,0.0648 a 0.29454567,0.29454567 0 0 0 0.021601,0.1178183 c 0.039273,0.073636 -0.014728,0.1188 -0.088364,0.073636 q -0.1237092,-0.074618 -0.088364,-0.00589 c 0.0108,0.019636 -0.012764,0.035345 -0.053018,0.0324 -0.039273,-0.00197 -0.072654,-0.019637 -0.07069,-0.039273 0.00197,-0.045164 -0.039273,-0.048109 -0.1629818,-0.00982 -0.092291,0.029454 -0.095236,0.036327 -0.045164,0.093273 0.049091,0.054982 0.049091,0.0648 -0.00393,0.098182 -0.031418,0.019637 -0.063819,0.084436 -0.072654,0.1433455 a 0.49090945,0.49090945 0 0 1 -0.044182,0.1472729 c -0.015709,0.022582 -0.012764,0.063819 0.00688,0.090327 0.019636,0.026509 0.022581,0.058909 0.00688,0.074618 -0.014728,0.014728 -0.00294,0.019637 0.026509,0.013746 0.029454,-0.00785 0.072654,-0.047127 0.094255,-0.088364 0.0216,-0.041236 0.055964,-0.074618 0.0756,-0.073636 0.019637,0 -0.00294,-0.024546 -0.049091,-0.054982 l -0.0864,-0.055964 0.1237093,0.00982 c 0.068727,0.00589 0.1482546,0.00688 0.1777092,9.781e-4 q 0.054982,-0.011782 0.058909,0.0972 c 0.00393,0.058909 0.016691,0.1237092 0.029454,0.1433456 0.036327,0.056946 0.0216,0.1011273 -0.061855,0.1963638 -0.077563,0.0864 -0.2611638,0.1374546 -0.2906183,0.081491 -0.020619,-0.038291 -0.179673,0.00688 -0.1698548,0.048109 0.00393,0.015709 0.050073,0.034363 0.1040729,0.040254 0.053018,0.00589 0.135491,0.029454 0.1826182,0.054 0.081491,0.041236 0.082473,0.045164 0.013746,0.062837 a 0.9818189,0.9818189 0 0 0 -0.1404067,0.052039 c -0.066763,0.029454 -0.1256728,-0.015709 -0.1227273,-0.094255 0,-0.013746 -0.014728,-0.026509 -0.033382,-0.027491 q -0.034363,-0.00197 -0.00589,0.090327 c 0.026509,0.082473 0.0216,0.091309 -0.045164,0.077563 -0.060873,-0.013746 -0.076581,0.00393 -0.090327,0.098182 -0.022582,0.1580729 0.034363,0.1836001 0.1521819,0.066764 0.2238547,-0.2228729 0.428073,-0.292582 0.5134913,-0.1747638 0.036327,0.049091 0.034363,0.0648 -0.00982,0.091309 -0.045164,0.027491 -0.045164,0.030436 9.781e-4,0.019636 0.098182,-0.021599 0.1826184,0.055964 0.1551275,0.1433457 -0.021601,0.067745 -0.00982,0.083454 0.083454,0.108 0.1669092,0.044182 0.1963638,0.039273 0.2199274,-0.0324 0.016691,-0.049091 0.051055,-0.065782 0.1335274,-0.058909 0.078545,0.00785 0.1050546,0.024545 0.090327,0.057928 -0.011782,0.026509 0.00294,0.047127 0.033382,0.049091 0.0864,0.00589 0.056946,-0.1551274 -0.029454,-0.1629819 A 0.58909134,0.58909134 0 0 1 6.6414355,2.8179575 C 6.5668173,2.7629756 6.4961264,2.7305756 6.4853264,2.7453029 6.4755082,2.7600302 6.42249,2.7659211 6.3694717,2.7600302 6.2899444,2.750212 6.270308,2.7276302 6.2585262,2.6323937 6.2496898,2.5646482 6.2172898,2.5077027 6.1789989,2.4929754 6.1230352,2.4713754 6.1200898,2.4576299 6.162308,2.3947936 A 0.68727323,0.68727323 0 0 1 6.2968172,2.2573389 c 0.060873,-0.044182 0.0756,-0.073636 0.050073,-0.1021092 -0.056946,-0.0648 -0.035345,-0.1325455 0.041236,-0.1276364 0.039273,0.00197 0.071673,-0.019637 0.073636,-0.049091 a 0.05203641,0.05203641 0 0 0 -0.047127,-0.055964 c -0.027491,-0.00197 -0.055964,-0.01571 -0.062837,-0.030436 q -0.011782,-0.021599 -0.00589,0.01571 a 0.06872733,0.06872733 0 0 1 -0.029454,0.063819 c -0.05793,0.031417 -0.1246941,-0.054001 -0.108985,-0.1413828 l 0.018655,-0.1119274 c 0.00197,-0.017673 0.014728,-0.020619 0.026509,-0.00785 0.011782,0.012764 0.047127,0.00688 0.078545,-0.015709 0.044182,-0.0324 0.057928,-0.031418 0.067746,0.00393 0.00688,0.025527 0.068727,0.049091 0.1374547,0.053018 0.078545,0.00491 0.1423637,0.0324 0.1698546,0.072654 0.024546,0.037309 0.044182,0.047127 0.047127,0.022582 0.00197,-0.023563 -0.027491,-0.0756 -0.0648,-0.1138911 -0.063819,-0.068727 -0.053018,-0.2120728 0.012764,-0.1649455 0.026509,0.017673 0.080509,-0.0432 0.1188001,-0.1364728 0.00785,-0.019637 0.026509,-0.029454 0.040254,-0.024546 0.049091,0.019637 0.1757456,-0.103091 0.1796728,-0.1747637 0.00294,-0.054 -0.019636,-0.077563 -0.090327,-0.087382 C 6.8967064,1.137095 6.8387789,1.112545 6.8191425,1.089963 6.7945975,1.060509 6.8220825,1.0556 6.9173245,1.071308 6.9889965,1.084072 7.0488882,1.081128 7.04987,1.066398 7.0508481,1.050689 7.115652,1.041852 7.1941974,1.046761 7.3080884,1.053641 7.3345976,1.06738 7.331652,1.120397 7.328712,1.171452 7.347361,1.184216 7.416088,1.175379 7.467143,1.168499 7.498561,1.145925 7.48776,1.122361 7.47794,1.099779 7.49365,1.112541 7.522123,1.151815 7.550595,1.19207 7.573178,1.240179 7.571214,1.2568697 c 0,0.018655 0.021599,0.025527 0.049091,0.016691 0.029454,-0.00982 0.070691,0.00883 0.093273,0.039273 q 0.039273,0.055964 0.078545,0.020618 C 7.831396,1.2981067 7.81176,1.2774877 7.77445,1.2303607 7.6743045,1.1056697 7.710631,1.077197 7.9551047,1.0929061 c 0.1266547,0.00688 0.2287638,0.025527 0.2287638,0.039273 -0.00197,0.046146 0.1855638,0.2700002 0.2268002,0.2729457 0.052037,0.00294 0.049091,0.048109 -0.00688,0.0972 -0.033382,0.029454 -0.030436,0.045164 0.013746,0.065782 0.061855,0.027491 0.074618,0.1256728 0.015709,0.1217456 -0.019637,-9.781e-4 -0.037309,0.024545 -0.039273,0.056946 -0.00294,0.052037 -0.011782,0.049091 -0.0756,-0.013746 -0.044182,-0.044182 -0.077563,-0.057928 -0.088364,-0.034363 -0.00785,0.0216 -0.055964,0.029454 -0.1070182,0.01571 q -0.093273,-0.023564 -0.068728,0.019637 c 0.012764,0.022581 0.039273,0.042218 0.058909,0.0432 0.039273,0.00294 0.1600364,0.1521819 0.1590547,0.1983274 0,0.014728 0.029454,0.063819 0.065781,0.108 0.036327,0.044182 0.065782,0.0972 0.0648,0.1178183 -0.00393,0.058909 0.1669092,0.063819 0.1924364,0.00589 0.013746,-0.029454 0.00589,-0.078545 -0.017673,-0.1109455 -0.034363,-0.049091 -0.031418,-0.054 0.016691,-0.031418 0.051055,0.0216 0.057928,0.00393 0.053018,-0.1305819 A 5.8909134,5.8909134 0 0 0 8.5471461,1.1802836 c -0.00883,-0.029454 -0.00785,-0.052037 0.00197,-0.051055 l 0.02945,-0.1266546 z m 1.8232376,4.9640765 c -0.046145,-0.041236 -0.082473,-0.098182 -0.081491,-0.1256729 0.00197,-0.028472 -0.012764,-0.051055 -0.0324,-0.053018 -0.044182,-0.00197 -0.048109,0.044182 -0.00589,0.091309 0.052037,0.058909 -0.0108,0.1924365 -0.089345,0.1865456 -0.056946,-0.00294 -0.067746,0.012764 -0.054982,0.083454 0.019637,0.099164 -0.015709,0.1973457 -0.068728,0.1944002 A 0.49090945,0.49090945 0 0 0 7.0901268,6.4398874 0.49090945,0.49090945 0 0 1 6.921254,6.5361057 C 6.898672,6.5351275 6.835836,6.5714507 6.7818357,6.6166147 Z M 4.2477611,1.0065015 c 0.00589,-0.0805091 -0.011782,-0.0716727 -0.4261094,-0.00392 z m 0,0 -0.00294,0.033382 c -0.00294,0.056946 -0.025527,0.1109456 -0.051055,0.1197819 -0.036327,0.011782 -0.036327,0.015709 -9.781e-4,0.019637 0.023563,0.00294 0.042218,0.029454 0.040254,0.058909 -0.00393,0.073636 0.0648,0.070692 0.093273,-0.00294 a 0.9818189,0.9818189 0 0 1 0.054,-0.1129091 q 0.02945,-0.051059 -0.036331,-0.1178227 l -9.781e-4,-9.781e-4 q -0.049091,0 -0.095236,0.00294 m 0.095236,-0.00294 H 4.460824 C 4.456894,0.9672342 4.429406,0.9485796 4.369515,0.9446523 4.278206,0.9387613 4.277224,0.9397433 4.343006,1.0035615 m 0.1178183,0 0.00197,0.00982 q -0.00491,0.068728 0.0324,-0.00982 z M 8.0572185,5.506182 Q 8.1387094,5.3559593 8.1809276,5.2459956 c 0.1865456,-0.227782 0.0108,-0.2503638 -0.00785,-0.3122184 -0.1217455,0.00982 -0.1649455,0.068728 -0.057928,0.078545 0.055964,0.00393 0.054982,0.00883 -0.00982,0.052037 q -0.077563,0.049091 -0.020619,0.052036 0.056946,0.00294 -0.013746,0.036327 c -0.035345,0.017673 -0.080509,0.0216 -0.098182,0.00883 -0.019637,-0.013746 -0.035345,-0.00688 -0.036327,0.013746 -0.00197,0.023564 -0.037309,0.027491 -0.089345,0.0108 -0.054982,-0.016691 -0.088364,-0.012764 -0.090327,0.011782 -9.781e-4,0.022581 0.036327,0.060873 0.084436,0.0864 0.060873,0.0324 0.082473,0.071672 0.076581,0.1374546 l -0.00982,0.091314 -0.0324,-0.1001455 c -0.017671,-0.05498 -0.046144,-0.1001439 -0.062835,-0.1011258 -0.016691,-9.781e-4 -0.0216,0.014728 -0.0108,0.034363 a 0.39272756,0.39272756 0 0 1 0.029454,0.1119273 c 0.00491,0.040254 0.015709,0.1089819 0.023563,0.152182 0.00688,0.0432 0.00589,0.057928 -0.00393,0.0324 -0.038291,-0.099164 -0.091309,-0.046146 -0.078545,0.078545 L 7.7852503,5.849814 7.7214317,5.7663598 A 0.29454567,0.29454567 0 0 1 7.6585951,5.6554142 c 9.781e-4,-0.014728 -0.030436,-0.019637 -0.070691,-0.012764 -0.040254,0.00688 -0.070691,-0.00294 -0.068727,-0.025527 0,-0.0216 -0.0216,-0.040255 -0.051055,-0.042218 -0.029454,-0.00197 -0.054,0.012764 -0.055964,0.031418 a 0.03534548,0.03534548 0 0 0 0.034363,0.038291 c 0.019636,0 0.033382,0.026509 0.031418,0.055964 -0.00197,0.029454 0.019637,0.0648 0.046146,0.077563 0.027491,0.011782 0.039273,0.044182 0.027491,0.071673 q -0.02651,0.053018 0.042218,0.029454 c 0.050073,-0.016691 0.05891,-0.00785 0.038291,0.037309 -0.019636,0.0432 -0.00688,0.058909 0.054982,0.061855 0.057928,0.00393 0.1060364,-0.034363 0.1728001,-0.1394183 Q 7.9767093,5.6573777 8.0572185,5.5061777 M 6.5530718,1.0418471 a 0.0363273,0.0363273 0 0 1 0.034363,0.038291 c -9.781e-4,0.019637 -0.00982,0.035345 -0.017673,0.034363 -0.00883,0 -0.023564,-0.017673 -0.035345,-0.038291 -0.00982,-0.019637 -0.00197,-0.035345 0.018655,-0.034363 m -0.4369093,0.019637 q -0.00589,-0.00589 -0.027491,0.024545 c -0.044182,0.061855 -0.049091,0.1021092 -0.012764,0.1050546 0.015709,0 0.033381,-0.034363 0.039273,-0.077563 q 0.00688,-0.046145 0,-0.052037 m 0.1600364,0.00491 q 0.00688,-0.00294 0.023563,0.026509 c 0.014728,0.028472 0.046145,0.041236 0.068727,0.029454 0.0216,-0.011782 0.068728,9.781e-4 0.1050547,0.029454 0.063819,0.051055 0.063819,0.054 -0.00688,0.1354909 -0.039273,0.045164 -0.074618,0.07069 -0.076582,0.055964 l -0.00982,-0.062837 -0.00982,-0.071673 c 0,-0.019637 -0.025527,-0.037309 -0.054982,-0.039273 -0.029454,-9.781e-4 -0.051055,-0.030436 -0.049091,-0.0648 q 0.00294,-0.036327 0.00982,-0.039273 m 0.8934552,0.084436 c -0.029454,-9.781e-4 -0.054,0.012764 -0.054982,0.0324 -9.782e-4,0.019637 0.039273,0.038291 0.088364,0.041236 0.051055,0.00294 0.087382,-0.012764 0.081491,-0.033381 -0.00589,-0.020618 -0.0216,-0.039273 -0.035345,-0.038291 z m -0.2749093,0.038291 q 0.00688,0 0.012764,0.00294 a 0.03927275,0.03927275 0 0 1 0.00589,0.052037 q -0.045164,0.068728 -0.039273,-0.020618 0.00294,-0.033382 0.0216,-0.034363 m -2.9454567,0.013746 c -0.019636,-9.781e-4 -0.029454,0.014728 -0.017673,0.034363 0.011782,0.019637 0.026509,0.037309 0.035345,0.038291 0.00785,0 0.016691,-0.014728 0.017673,-0.034363 a 0.0363273,0.0363273 0 0 0 -0.035345,-0.038291 m 1.4570193,0.036327 c -0.013746,-9.781e-4 -0.036327,0.012764 -0.056946,0.038291 -0.027491,0.033382 -0.042218,0.074618 -0.033382,0.091309 0.00883,0.01571 0.039273,0.00197 0.065782,-0.031418 0.028472,-0.033381 0.0432,-0.074618 0.034363,-0.090327 a 0.00981819,0.00981819 0 0 0 -0.00982,-0.00785 m 0.4899276,0.011782 q -0.035345,0 0.00294,0.054 c 0.045164,0.061855 0.089345,0.051055 0.054982,-0.012764 a 0.09818189,0.09818189 0 0 0 -0.058909,-0.041236 m 1.5394921,0.044182 q -0.034363,-0.00491 -0.022582,0.034363 c 0.017673,0.054982 0.113891,0.076582 0.1178182,0.025527 0,-0.016691 -0.029454,-0.041236 -0.065782,-0.053018 z M 6.22219,1.3069391 C 6.183899,1.3039991 6.1092808,1.3815571 6.127935,1.4149393 q 0.020619,0.034363 0.071673,-0.022582 C 6.22808,1.3579943 6.24379,1.3226483 6.235935,1.3128303 a 0.01963638,0.01963638 0 0 0 -0.013746,-0.00589 m -1.6033103,0.00688 c -0.019637,0 -0.037309,0.022582 -0.039273,0.051055 -0.00197,0.029454 0.012764,0.054 0.0324,0.054982 0.019636,9.781e-4 0.036327,-0.021601 0.039273,-0.050073 9.781e-4,-0.029454 -0.012764,-0.054982 -0.0324,-0.055964 m 0.5282186,0.024545 c -0.023564,-0.00393 -0.056946,0.019635 -0.1266547,0.08149 C 4.904588,1.5200003 4.882988,1.5789096 4.95957,1.5838186 c 0.018655,0 0.034363,-0.018655 0.036327,-0.0432 0.00393,-0.065782 0.1276365,-0.1502183 0.1865456,-0.1266547 0.042218,0.016691 0.044182,0.011782 0.00589,-0.040254 q -0.020619,-0.031418 -0.041236,-0.035345 m 0.2945457,0.037309 q -0.0108,0.00197 -0.011782,0.037309 c -0.00197,0.031418 0.019637,0.058909 0.049091,0.060873 0.029454,9.781e-4 0.053018,-0.00294 0.054,-0.00982 0,-0.00785 -0.0216,-0.035345 -0.049091,-0.061855 q -0.029454,-0.029454 -0.042218,-0.026509 m 2.3976018,0 a 0.02945456,0.02945456 0 0 0 -0.018655,0.00688 c -0.0324,0.029454 0.081491,0.1325456 0.1492365,0.1364729 0.025527,0.00197 0.047127,-0.013746 0.049091,-0.033382 C 8.0208809,1.4434219 7.8952059,1.3717491 7.8392422,1.3756763 M 5.8922953,1.392367 a 0.03534548,0.03534548 0 0 0 -0.037309,0.0324 0.03534548,0.03534548 0 0 0 0.033382,0.038291 0.03534548,0.03534548 0 0 0 0.037309,-0.033381 0.03534548,0.03534548 0 0 0 -0.033381,-0.037309 m -1.8998196,0.00688 q -0.00982,0.00294 -0.00197,0.019637 c 0.019637,0.034363 0.085418,0.054982 0.087382,0.026509 0,-0.00785 -0.023563,-0.025527 -0.053018,-0.039273 q -0.023563,-0.0108 -0.0324,-0.00688 m 0.2503638,0.00393 -0.00883,0.00589 c -0.037309,0.033382 0.0864,0.1708365 0.1580729,0.1757456 0.035345,0.00197 0.072654,0.019637 0.083454,0.041236 0.0108,0.019637 0.037309,0.027491 0.059891,0.015709 0.025527,-0.013746 0.012764,-0.047127 -0.036327,-0.091309 A 0.29454567,0.29454567 0 0 0 4.3380885,1.4748292 c -0.046146,-0.00294 -0.083454,-0.023564 -0.081491,-0.046146 q 0,-0.026509 -0.013746,-0.025527 m 3.2390206,0.019637 c -0.022582,0.00294 -0.034363,0.027491 -0.014728,0.062837 0.011782,0.022581 0.037309,0.031418 0.058909,0.019637 q 0.037309,-0.019637 9.781e-4,-0.058909 -0.024546,-0.027491 -0.045164,-0.023564 m -1.0112682,0.00982 c 0.020619,-0.00197 0.040254,0.00197 0.049091,0.011782 0.00982,0.012764 -0.0108,0.019637 -0.049091,0.015709 Q 6.408744,1.4532252 6.450962,1.4375232 Z m 0.3838912,0.037309 q -0.011782,-9.781e-4 -0.0216,0.011782 c -0.014728,0.020618 -0.017673,0.054982 -0.00688,0.074618 0.022582,0.0432 0.085418,0.053018 0.087382,0.014728 0.00197,-0.047127 -0.029454,-0.095236 -0.056946,-0.1001455 m -1.3284009,0.076582 c -0.019637,0 -0.034363,0.014728 -0.036327,0.034363 0,0.019637 0.023563,0.036327 0.054,0.039273 0.029454,9.782e-4 0.046145,-0.013746 0.035345,-0.034363 -0.0108,-0.019637 -0.035345,-0.037309 -0.053018,-0.039273 m -0.7314551,0.073636 q -0.017673,0.00294 -0.019637,0.014728 a 0.9818189,0.9818189 0 0 1 -0.026509,0.1138909 c -0.023563,0.080509 -0.020618,0.082473 0.029454,0.026509 0.049091,-0.051055 0.058909,-0.051055 0.073636,-0.00393 0.00982,0.030436 0.0324,0.056946 0.050073,0.057928 0.051055,0.00294 0.082472,-0.1345092 0.039273,-0.1659275 a 0.24545473,0.24545473 0 0 0 -0.1472728,-0.0432 m 0.2955275,0.042218 c -0.042218,-0.00197 -0.055964,0.017673 -0.046145,0.068727 0.00785,0.039273 0.033382,0.072654 0.055964,0.073636 0.022581,9.781e-4 0.0432,-0.029454 0.046145,-0.067746 0.00197,-0.042218 -0.019637,-0.071672 -0.055964,-0.074618 M 4.666016,1.7085021 c -0.019637,-9.782e-4 -0.036327,0.022582 -0.039273,0.051055 0,0.029454 0.013746,0.054 0.033382,0.054982 0.019637,9.781e-4 0.036327,-0.0216 0.039273,-0.050073 9.782e-4,-0.029454 -0.013746,-0.054982 -0.033382,-0.055964 m 2.808002,0.029454 c -0.0216,-9.782e-4 -0.039273,0.013746 -0.039273,0.033382 -0.00197,0.019637 0.00393,0.035345 0.012764,0.036327 0.00785,0 0.025527,-0.013746 0.039273,-0.033382 0.012764,-0.018655 0.00688,-0.034363 -0.013746,-0.036327 m -1.404001,0.033382 0.013746,0.00589 c 0.018655,0.012764 0.033382,0.031418 0.0324,0.039273 0,0.00982 -0.016691,0.014728 -0.036327,0.013746 A 0.03927275,0.03927275 0 0 1 6.045472,1.7909741 q 0.00294,-0.023564 0.023563,-0.019637 m 0.3878184,0.011782 c -0.00785,0 -0.025527,0.013746 -0.039273,0.0324 -0.012764,0.019637 -0.00688,0.035345 0.013746,0.036327 a 0.03927275,0.03927275 0 0 0 0.039273,-0.033382 c 9.781e-4,-0.019637 -0.00491,-0.035345 -0.013746,-0.035345 m -0.4840367,0.00491 c 0.019636,0.00197 0.036327,0.019637 0.035345,0.039273 -9.781e-4,0.018655 -0.00982,0.034363 -0.017673,0.033382 -0.00883,0 -0.024546,-0.017673 -0.035345,-0.037309 -0.0108,-0.020619 -0.00294,-0.036327 0.017673,-0.035345 m 1.0426917,0.029454 c -0.0756,-0.00491 -0.058909,0.081491 0.024545,0.1305819 l 0.084436,0.049091 A 0.29454567,0.29454567 0 0 0 7.0979814,1.910758 C 7.0783444,1.860685 7.0420174,1.818467 7.0155084,1.816503 m 1.4678193,0.034363 a 0.09818189,0.09818189 0 0 1 0.033382,0.031418 c 0.066764,0.074618 0.016691,0.200291 -0.073636,0.1885092 -0.038291,-0.00589 -0.068727,-0.0216 -0.066764,-0.037309 0.00197,-0.015709 0.02749,-0.026509 0.058909,-0.024546 0.042218,0.00294 0.054,-0.019636 0.045164,-0.088364 q -0.011782,-0.076581 0.00294,-0.06971 m -0.1384365,0.015709 q 0.019637,-0.00294 0.045164,0.023564 0.035345,0.040254 -9.781e-4,0.059891 c -0.020619,0.0108 -0.047127,0.00197 -0.058909,-0.019637 -0.019637,-0.035345 -0.00785,-0.060873 0.014728,-0.063819 m -3.6346935,0.00393 q -0.016691,0 -0.063819,0.031418 c -0.039273,0.024546 -0.058909,0.0648 -0.047127,0.1001456 0.025527,0.080509 0.041236,0.0756 0.088364,-0.030436 q 0.049091,-0.1011265 0.022582,-0.1011265 m 0.6568368,0.022582 c -0.019637,0 -0.037309,0.022582 -0.039273,0.052037 -0.00197,0.029454 0.012764,0.054 0.0324,0.054982 0.019637,9.781e-4 0.037309,-0.022582 0.039273,-0.051055 9.781e-4,-0.029454 -0.012764,-0.054 -0.0324,-0.055964 m 1.4098919,0.018655 q -0.052037,-0.00197 0,0.019637 c 0.06676,0.032398 -0.018658,0.1413797 -0.1276402,0.161998 q -0.093273,0.017673 -0.085418,0.078545 c 0.0108,0.081491 0.1296001,0.1109455 0.1335273,0.034363 q 0.00589,-0.056946 0.0648,-0.042218 c 0.036327,0.00982 0.054982,0.042218 0.047127,0.078545 -0.00982,0.0432 0.00393,0.059891 0.049091,0.054982 q 0.0648,-0.00688 0.1158546,0.113891 c 0.068727,0.1620001 0.088364,0.1796729 0.1315637,0.1197818 q 0.034363,-0.045164 0.033382,-0.00688 a 0.07854551,0.07854551 0 0 1 -0.039273,0.061855 c -0.056946,0.030436 -0.046146,0.085418 0.019636,0.089345 0.031418,0.00197 0.047127,0.013746 0.033381,0.025527 -0.013746,0.011782 0.00197,0.045164 0.034363,0.0756 0.042218,0.039273 0.046146,0.057928 0.012764,0.068727 a 0.07854551,0.07854551 0 0 0 -0.048109,0.060873 q -0.00294,0.044182 -0.090327,0.023564 c -0.1246902,-0.032396 -0.1178174,0.05204 0.01571,0.176731 0.1256728,0.1188001 0.1747638,0.1207638 0.1983274,0.00982 0.00982,-0.044182 0.039273,-0.0864 0.068728,-0.095236 0.073636,-0.023563 0.071672,-0.1767274 -0.00294,-0.2228729 A 0.39272756,0.39272756 0 0 1 7.2256178,2.6314119 0.49090945,0.49090945 0 0 0 7.1451087,2.484139 c -0.029455,-0.0216 -0.019636,-0.1119273 0.039273,-0.3338184 0.028473,-0.108 0.023564,-0.1178182 -0.037309,-0.095236 -0.1639638,0.056945 -0.2179638,0.047127 -0.2719638,-0.049091 -0.029455,-0.052036 -0.074618,-0.094255 -0.098182,-0.094255 M 5.632126,1.9451206 c -0.00883,0 -0.026509,0.014728 -0.039273,0.033382 -0.012764,0.018655 -0.00785,0.035345 0.012764,0.036327 C 5.626235,2.0158078 5.64489,2.0010836 5.64489,1.9814476 5.64686,1.9618106 5.64096,1.9461026 5.632126,1.9451206 m -1.0770553,0.056945 c -0.011782,-0.00197 -0.029454,0.022581 -0.063819,0.078545 -0.059891,0.098182 -0.061855,0.1109456 -0.013746,0.113891 a 0.0883637,0.0883637 0 0 0 0.078545,-0.046146 0.24545473,0.24545473 0 0 0 0.012764,-0.1148728 q -0.00393,-0.029454 -0.013746,-0.031418 m 1.4040011,0.034363 c -0.019637,-9.782e-4 -0.027491,0.014728 -0.016691,0.034363 0.0108,0.019637 0.026509,0.037309 0.035345,0.037309 0.00785,9.782e-4 0.015709,-0.014728 0.017673,-0.034363 a 0.0363273,0.0363273 0 0 0 -0.035345,-0.037309 m 0.1070183,0.00688 c -0.020619,-9.782e-4 -0.029454,0.013746 -0.017673,0.034363 0.00982,0.019636 0.026509,0.037309 0.035345,0.037309 0.00883,0 0.016691,-0.014728 0.017673,-0.034363 9.781e-4,-0.019637 -0.014728,-0.036327 -0.035345,-0.037309 m 0.7825097,0.088364 q 0.011782,0 0.090327,0.049091 c 0.061855,0.036327 0.1099638,0.090327 0.1080002,0.1178183 -0.00393,0.063819 -0.0108,0.063819 -0.074618,0.00393 A 0.9818189,0.9818189 0 0 1 6.8751085,2.1846843 q -0.035346,-0.052036 -0.025527,-0.052036 m -1.19291,0.044182 c -0.033381,-0.00393 -0.020619,0.019637 0.033382,0.092291 0.068728,0.092291 0.0756,0.092291 0.080509,0.00982 0.00197,-0.037309 -0.027491,-0.077563 -0.065782,-0.089345 A 0.29454567,0.29454567 0 0 0 5.6556902,2.17683 M 7.277655,2.193521 q -0.00883,0 -0.023563,0.019637 c -0.014728,0.020618 0.0216,0.071672 0.084436,0.1178182 0.1433457,0.1050547 0.2484003,0.113891 0.1325456,0.011782 A 0.34363661,0.34363661 0 0 0 7.3453997,2.2642116 c -0.022581,-9.782e-4 -0.046146,-0.022581 -0.053018,-0.046145 q -0.00589,-0.023564 -0.014728,-0.024546 m 1.1948736,0.068728 c -0.017673,-0.00197 -0.044182,0.012764 -0.056946,0.0324 -0.013746,0.018655 0,0.034363 0.031418,0.036327 0.029454,0.00197 0.055964,-0.011782 0.056946,-0.031418 9.782e-4,-0.019637 -0.012764,-0.036327 -0.031418,-0.038291 m -0.6244368,0.0432 q -0.016691,-0.00688 -0.056946,0.054 c -0.024545,0.039273 -0.029454,0.072654 -0.0108,0.073636 0.017673,0 0.044182,-0.023563 0.058909,-0.054982 0.019637,-0.0432 0.019637,-0.068728 0.00982,-0.072654 m -3.5198208,0.023564 c -0.00982,0 -0.026509,0.013746 -0.039273,0.0324 -0.012764,0.018655 -0.00785,0.035345 0.012764,0.037309 0.019636,0 0.038291,-0.013746 0.039273,-0.033382 9.781e-4,-0.019637 -0.00491,-0.036327 -0.012764,-0.036327 m 3.6769118,0.029454 -0.00982,0.1286182 c -0.00982,0.1158546 0.017673,0.1610183 0.1021092,0.1757456 0.014728,0.00197 0.023563,-0.025527 0.019637,-0.062837 A 0.49090945,0.49090945 0 0 0 8.0591822,2.4448657 Z m 0.6067641,0.016691 c -0.014728,0.00197 -0.031418,0.014728 -0.040254,0.036327 -0.00982,0.023563 0.00197,0.036327 0.026509,0.029454 0.023563,-0.00491 0.0432,-0.021599 0.042218,-0.036327 0,-0.020618 -0.013746,-0.030436 -0.028472,-0.029454 m 0.012764,0.1453093 c -0.019637,-0.00197 -0.026509,0.028472 -0.017673,0.065782 0.0108,0.041236 -0.00294,0.073636 -0.033382,0.083454 -0.028472,0.00883 -0.0648,0.068728 -0.080509,0.1325455 C 8.4548545,2.9505018 8.285982,3.1036655 8.2427821,3.0270837 A 0.24545473,0.24545473 0 0 1 8.2172549,2.9190848 0.25527292,0.25527292 0 0 0 8.1779822,2.7973393 C 8.139691,2.7384305 8.1298732,2.7374486 8.0866731,2.7835936 a 0.29454567,0.29454567 0 0 0 -0.058909,0.096218 0.29454567,0.29454567 0 0 1 -0.039273,0.088364 c -0.017673,0.023564 -0.0216,0.058909 -0.0108,0.079527 0.00982,0.019636 0,0.036327 -0.022582,0.034363 -0.023563,-9.781e-4 -0.035345,0.027491 -0.027491,0.06971 a 0.14727283,0.14727283 0 0 1 -0.040254,0.1217456 c -0.0432,0.039273 -0.046145,0.051055 -0.00982,0.054 0.034363,0.00294 0.029454,0.014728 -0.012764,0.0432 a 0.29454567,0.29454567 0 0 0 -0.088364,0.1178183 c -0.016691,0.0432 -0.047127,0.076582 -0.068728,0.0756 -0.0216,-9.781e-4 -0.019637,0.024545 0.00688,0.062837 0.023563,0.035345 0.030436,0.053018 0.014728,0.037309 -0.015709,-0.014728 -0.07069,0.00294 -0.1237092,0.039273 -0.085418,0.058909 -0.1001456,0.059891 -0.1335274,0.00982 -0.019636,-0.0324 -0.047127,-0.048109 -0.060873,-0.036327 -0.013746,0.011782 -0.021599,-0.013746 -0.019636,-0.056946 0.00294,-0.0432 -0.0108,-0.07069 -0.031418,-0.058909 q -0.031418,0.012764 -0.011782,-0.034363 c 0.013746,-0.029454 0.00589,-0.054982 -0.016691,-0.056946 -0.022582,-9.781e-4 -0.030436,-0.017673 -0.017673,-0.036327 0.012764,-0.018655 0.00785,-0.035345 -0.012764,-0.036327 -0.020619,-9.782e-4 -0.035345,-0.034363 -0.033382,-0.072655 0.00294,-0.039273 -0.012764,-0.071672 -0.034363,-0.073636 -0.021601,-9.781e-4 -0.049091,0.029454 -0.061855,0.067746 -0.019637,0.061855 -0.081491,0.085418 -0.1698546,0.063819 -0.016691,-0.00491 -0.0216,0.018655 -0.0108,0.051055 0.0108,0.0324 0.015709,0.088364 0.013746,0.1256727 -0.00197,0.037309 0.00982,0.068728 0.026509,0.07069 0.016691,0 0.024546,-0.039273 0.018655,-0.088364 -0.00688,-0.052037 0.00491,-0.088364 0.028472,-0.0864 0.041236,0.00294 0.049091,0.039273 0.035345,0.1708365 -0.00491,0.048109 0.012764,0.080509 0.045164,0.082473 0.028472,0.00197 0.059891,0.029454 0.069709,0.059891 0.012764,0.040254 0.045164,0.052037 0.1060366,0.041236 0.053018,-0.00982 0.078545,-0.00393 0.0648,0.016691 a 0.04221821,0.04221821 0 0 0 0.011782,0.057928 c 0.019637,0.013746 0.023563,0.042218 0.00982,0.064801 q -0.022582,0.034363 0,0.017673 c 0.015709,-0.011782 0.056946,0.0108 0.091309,0.051055 0.094255,0.1050545 0.1335274,0.091309 0.1423637,-0.050073 0.00491,-0.074618 0.021599,-0.1158546 0.041236,-0.1021092 0.019637,0.013746 0.026509,0 0.017673,-0.026509 -0.00785,-0.028472 0.00982,-0.068727 0.042218,-0.092291 0.0324,-0.023563 0.058909,-0.0648 0.059891,-0.091309 9.782e-4,-0.026509 0.017673,-0.048109 0.036327,-0.046146 0.017673,0 0.041236,-0.040254 0.050073,-0.092291 0.00982,-0.052036 0.037309,-0.099164 0.061855,-0.1050546 0.033381,-0.00982 0.029454,0.022581 -0.01571,0.1286183 -0.041236,0.098182 -0.047127,0.1423637 -0.019637,0.1443274 0.0216,0 0.028472,0.011782 0.014728,0.023563 -0.013746,0.011782 -0.00785,0.045164 0.012764,0.073636 0.029454,0.040255 0.028472,0.049091 -0.00883,0.039273 -0.025527,-0.00785 -0.054982,0.012764 -0.0648,0.047127 -0.012764,0.045164 -9.781e-4,0.055964 0.045164,0.040254 0.049091,-0.014728 0.054982,-0.00785 0.029454,0.029454 -0.028472,0.040254 -0.023563,0.041236 0.029454,0.00294 0.068728,-0.049091 0.0972,-0.211091 0.039273,-0.2160001 -0.019637,0 -0.034363,-0.0324 -0.0324,-0.07069 q 0.00491,-0.068728 0.052036,-0.049091 c 0.048109,0.022582 0.096218,-0.071672 0.1060364,-0.2091274 0.00294,-0.039273 0.080509,-0.1276365 0.1728002,-0.1983274 0.092291,-0.069709 0.1688728,-0.157091 0.1708365,-0.1914547 0.00197,-0.034363 0.019637,-0.073636 0.039273,-0.083454 0.019637,-0.00982 0.027491,-0.0432 0.018655,-0.072655 q -0.014728,-0.051055 0.0432,-0.049091 0.058909,0.00393 0.044182,-0.050073 c -0.00982,-0.029454 -0.00491,-0.054 0.011782,-0.053018 0.015709,0 0.024545,-0.039273 0.018655,-0.088364 -0.00589,-0.049091 -0.02749,-0.089346 -0.045164,-0.090327 m -2.2120381,0.048109 -0.011782,0.00491 c -0.026509,0.024546 0.013746,0.095237 0.054982,0.098182 A 0.03338184,0.03338184 0 0 0 6.4931932,2.640248 C 6.4951632,2.602939 6.4441022,2.561703 6.4136662,2.567594 M 5.0528526,2.6913029 c -0.00982,0 -0.026509,0.014728 -0.039273,0.033382 -0.012764,0.018655 -0.00785,0.035345 0.012764,0.036327 0.020618,9.782e-4 0.039273,-0.013746 0.039273,-0.033382 0.00197,-0.019637 -0.00491,-0.035345 -0.012764,-0.036327 m 3.220366,0.0324 q -0.00589,0.00589 -0.00883,0.036327 c -0.00393,0.037309 0.00294,0.058909 0.015709,0.049091 0.012764,-0.011782 0.015709,-0.0432 0.00688,-0.068728 q -0.00785,-0.0216 -0.013746,-0.016691 m -2.2513108,0.062837 c -0.019637,-9.782e-4 -0.037309,0.0216 -0.039273,0.051055 -0.00197,0.029454 0.012764,0.054 0.0324,0.054982 0.019636,9.781e-4 0.037309,-0.0216 0.039273,-0.051055 9.781e-4,-0.029454 -0.012764,-0.054 -0.0324,-0.054982 M 5.8805327,2.9338126 q -0.00883,0.00294 -0.011782,0.019637 a 0.03927275,0.03927275 0 0 0 0.034363,0.039273 c 0.019637,0 0.035345,-0.00491 0.035345,-0.013746 0,-0.00883 -0.013746,-0.026509 -0.0324,-0.039273 q -0.014728,-0.0108 -0.025527,-0.00688 m -0.1217513,0.015712 c -0.017673,0.00197 -0.0324,0.015709 -0.034363,0.044182 -0.00294,0.058909 0.029454,0.096218 0.0864,0.099164 0.025527,0.00197 0.037309,-0.025527 0.029454,-0.068728 -0.00982,-0.050073 -0.051055,-0.078545 -0.081491,-0.074618 m 1.9695287,0.00393 c -0.119782,-0.00294 -0.1688729,0.057928 -0.0756,0.1178183 0.0432,0.027491 0.048109,0.049091 0.017673,0.080509 -0.031418,0.033382 -0.019636,0.040254 0.049091,0.031418 0.049091,-0.00688 0.081491,-0.027491 0.070691,-0.047127 -0.00982,-0.019637 0.015709,-0.041236 0.056946,-0.049091 0.1305819,-0.025527 0.091309,-0.1040727 -0.063819,-0.1286182 z m 0.4320003,0.07069 c 0.00785,0 0.0108,0.048109 0.00785,0.1060365 -0.00393,0.058909 -0.019637,0.1060365 -0.036327,0.1050547 -0.016691,-9.782e-4 -0.019637,-0.049091 -0.00688,-0.1080002 0.011782,-0.056946 0.027491,-0.1040727 0.035345,-0.103091 m -1.4933384,0.02946 q -0.020619,0 -0.023564,0.035345 c -0.00197,0.029454 0.011782,0.055964 0.031418,0.056946 a 0.03436366,0.03436366 0 0 0 0.037309,-0.031418 0.07854551,0.07854551 0 0 0 -0.0324,-0.056946 0.01963638,0.01963638 0 0 0 -0.012764,-0.00491 m -0.4251276,0.063819 a 0.15709103,0.15709103 0 0 0 -0.1325455,0.082473 c -0.055964,0.1060364 -0.00982,0.3181093 0.052037,0.2336728 0.019637,-0.027491 0.035345,-0.036327 0.034363,-0.019636 -9.781e-4,0.016691 0.0216,0.014728 0.049091,-0.00589 0.039273,-0.028472 0.061855,-0.024545 0.092291,0.018655 0.0324,0.044182 0.0324,0.055964 -0.00197,0.054 -0.024546,-0.00197 -0.035345,0.0216 -0.026509,0.050073 0.00982,0.029454 -0.011782,0.068728 -0.046145,0.085418 -0.054982,0.028472 -0.055964,0.037309 -0.011782,0.071673 q 0.1197819,0.088364 0.098182,-0.026509 c -0.00982,-0.051055 0.00197,-0.063819 0.044182,-0.047127 q 0.064801,0.027491 0.00982,-0.014728 c -0.027491,-0.023563 -0.034363,-0.065782 -0.017673,-0.1099637 0.016691,-0.0432 0.00688,-0.1089819 -0.025527,-0.1659275 q -0.053018,-0.093273 -0.011782,-0.091309 c 0.022582,9.781e-4 0.0324,-0.013746 0.0216,-0.034363 -0.0108,-0.020618 -0.035345,-0.029454 -0.054,-0.019636 -0.018655,0.00982 -0.033381,0.00197 -0.0324,-0.018655 0.00197,-0.027491 -0.015709,-0.041236 -0.041236,-0.042218 M 5.391574,3.1566902 C 5.347392,3.1802542 5.336592,3.3825085 5.37881,3.3844722 5.397465,3.3854503 5.422992,3.3717082 5.435756,3.3550182 5.468156,3.3069092 5.429866,3.1360725 5.391574,3.1566908 m 0.4025457,0.0648 a 0.19636378,0.19636378 0 0 0 -0.00393,0.046146 c 0,0.049091 -0.029454,0.1158547 -0.065782,0.1482547 -0.078545,0.068728 -0.054982,0.1423637 0.038291,0.1237091 a 0.16690922,0.16690922 0 0 1 0.1099638,0.020619 c 0.068728,0.050073 0.1423637,0.047127 0.1276364,-0.00393 -0.00589,-0.024545 -0.054,-0.049091 -0.1060365,-0.054982 Q 5.6861258,3.4806852 5.874635,3.4099942 c 0.1089819,-0.040254 0.1512001,-0.092291 0.077563,-0.0972 -0.020619,-9.781e-4 -0.02749,-0.017673 -0.013746,-0.036327 0.012764,-0.018655 0.00688,-0.034363 -0.013746,-0.036327 -0.019637,0 -0.038291,0.013746 -0.039273,0.033382 -0.00393,0.058909 -0.066764,0.035345 -0.082473,-0.031418 Q 5.79707,3.2146132 5.79314,3.2224682 m 1.9557833,0.023563 c -0.029454,-0.00197 -0.046145,0.013746 -0.035345,0.033382 0.00982,0.019637 0.035345,0.037309 0.053018,0.039273 a 0.03436366,0.03436366 0 0 0 0.035345,-0.033382 c 0.00197,-0.019637 -0.022582,-0.037309 -0.053018,-0.039273 m -2.639128,0.1944 c -0.031418,-0.00197 -0.048109,0.012764 -0.037309,0.033381 0.0108,0.019637 0.026509,0.036327 0.033381,0.037309 0.00785,0 0.024546,-0.014728 0.038291,-0.033382 0.013746,-0.018655 -0.00197,-0.035345 -0.034363,-0.037309 m 1.3647282,0.011782 c -0.019636,0 -0.028472,0.014728 -0.017673,0.035345 0.0108,0.020619 0.027491,0.036327 0.036327,0.037309 0.00785,0 0.016691,-0.015709 0.017673,-0.034363 9.782e-4,-0.018655 -0.014728,-0.036327 -0.035345,-0.038291 m 0.1443274,0.00982 a 0.03534548,0.03534548 0 0 0 -0.037309,0.0324 0.03534548,0.03534548 0 0 0 0.033382,0.038291 0.03534548,0.03534548 0 0 0 0.037309,-0.034363 0.03534548,0.03534548 0 0 0 -0.033381,-0.037309 m -0.4516367,0.049091 -0.019637,0.00393 q -0.0432,0.015709 0.019637,0.022582 c 0.037309,0.00393 0.058909,-0.00294 0.047127,-0.015709 -0.00785,-0.00982 -0.027491,-0.013746 -0.047127,-0.011782 m -0.8806915,0.024545 q -0.020619,9.781e-4 -0.024546,0.036327 c -0.00393,0.061855 0.016691,0.072655 0.050073,0.025527 0.012764,-0.017673 0.00688,-0.0432 -0.011782,-0.056946 z m 0.2945457,0.039273 a 0.03534548,0.03534548 0 0 0 -0.037309,0.034363 0.03534548,0.03534548 0 0 0 0.033381,0.037309 0.03534548,0.03534548 0 0 0 0.038291,-0.033382 0.03534548,0.03534548 0 0 0 -0.033382,-0.037309 m 0.2700001,0.053018 c -0.034363,-0.00294 -0.057928,0.00883 -0.051055,0.023563 a 0.9818189,0.9818189 0 0 1 0.031418,0.090327 c 0.026509,0.093273 0.072654,0.080509 0.078545,-0.0216 q 0.00688,-0.091309 -0.05891,-0.092291 m 1.1614918,0.035345 c -0.029454,-0.00197 -0.045164,0.012764 -0.034363,0.033382 a 0.07854551,0.07854551 0 0 0 0.052037,0.039273 c 0.019637,0 0.034363,-0.014728 0.036327,-0.034363 0,-0.019637 -0.023563,-0.036327 -0.054,-0.039273 m -1.0279644,0.00294 c -0.017673,-9.782e-4 -0.039273,0.014728 -0.049091,0.035345 -0.00785,0.019637 0.011782,0.039273 0.044182,0.040254 0.0324,9.781e-4 0.054982,-0.013746 0.049091,-0.035345 -0.00589,-0.0216 -0.025527,-0.039273 -0.044182,-0.040254 m 0.4879639,0.082473 c -0.017673,0.00197 -0.045164,0.020619 -0.071672,0.049091 -0.036327,0.036327 -0.0864,0.056946 -0.1119274,0.045164 -0.025527,-0.011782 -0.048109,-0.00491 -0.049091,0.014728 -9.781e-4,0.019637 0.016691,0.044182 0.041236,0.054982 0.048109,0.019637 0.2336729,-0.1276365 0.2032365,-0.1610183 q -0.00393,-0.00491 -0.011782,-0.00294 m -0.7402918,0.097195 a 0.04909095,0.04909095 0 0 0 -0.029454,0.00688 c -0.042218,0.0216 -0.047127,0.1178184 -0.00688,0.1207638 0.017673,9.781e-4 0.041236,-0.019637 0.054,-0.046146 0.019636,-0.042218 0.00785,-0.077563 -0.017673,-0.081491 m -0.1472728,0.060873 c -0.030436,9.781e-4 -0.060873,0.0324 -0.063819,0.081491 -0.00197,0.031418 -0.012764,0.047127 -0.024545,0.034363 -0.0108,-0.012764 -0.045164,-0.00197 -0.074618,0.024545 a 0.19636378,0.19636378 0 0 1 -0.113891,0.044182 c -0.041236,-0.00197 -0.063819,0.030436 -0.073636,0.1060364 -0.011782,0.085418 -0.00294,0.1050546 0.041236,0.091309 a 0.29454567,0.29454567 0 0 1 0.088364,-0.015709 c 0.050073,0.00294 0.045164,-0.1040727 -0.00491,-0.108 -0.023563,-0.00197 0.033381,-0.0324 0.1286183,-0.067746 0.1816364,-0.066764 0.1904728,-0.077563 0.146291,-0.1590546 q -0.020618,-0.033381 -0.049091,-0.031418 m 1.034837,0.1227274 a 0.03534548,0.03534548 0 0 0 -0.037309,0.033381 0.03534548,0.03534548 0 0 0 0.033382,0.037309 0.03534548,0.03534548 0 0 0 0.037309,-0.0324 0.03534548,0.03534548 0 0 0 -0.033382,-0.038291 m -0.3603275,0.019637 q -0.029454,-0.00982 -0.088364,0.1040728 c -0.031418,0.061855 -0.057928,0.092291 -0.057928,0.068727 0,-0.049091 -0.068728,-0.067746 -0.072654,-0.019637 0,0.016691 0.028472,0.068727 0.063819,0.1158546 0.035345,0.047127 0.0648,0.1080002 0.063819,0.1335274 -0.00197,0.027491 0.034363,0.050073 0.085418,0.053018 0.049091,0.00294 0.088364,-0.00982 0.090327,-0.029454 9.781e-4,-0.019636 -0.019637,-0.037309 -0.047127,-0.039273 -0.026509,-9.781e-4 -0.056946,-0.027491 -0.065782,-0.056946 -0.00883,-0.029454 -0.00589,-0.054 0.00785,-0.053018 0.013746,9.781e-4 0.0324,-0.061855 0.039273,-0.1394183 Q 6.2899444,4.057013 6.2604898,4.0471948 m 0.7668006,0.041236 c -0.029454,-0.00197 -0.055964,0.012764 -0.056946,0.031418 -9.781e-4,0.018655 0.012764,0.037309 0.031418,0.038291 0.018654,0 0.044182,-0.013746 0.056946,-0.0324 0.012764,-0.018655 0,-0.035345 -0.031418,-0.037309 m 0.8689097,0.017673 c -0.047127,-0.00294 -0.1237092,0.1276362 -0.1001455,0.171818 0.0324,0.060873 0.076581,0.044182 0.1040729,-0.039273 0.036327,-0.1080001 0.035345,-0.130582 -0.00393,-0.1325456 m -0.3514912,0.013746 c -0.016691,-9.781e-4 -0.030436,0.021601 -0.0324,0.051055 -0.00197,0.029454 0.00982,0.054 0.026509,0.054982 0.015709,9.782e-4 0.030436,-0.021601 0.0324,-0.051055 0.00197,-0.029454 -0.00982,-0.054 -0.026509,-0.054982 m -1.821274,0.00982 c -0.019636,0.00393 -0.024545,0.025527 -0.028472,0.0756 -0.00294,0.054982 0.00688,0.076581 0.023563,0.052037 0.0216,-0.029454 0.046145,-0.020619 0.091309,0.0324 0.091309,0.1080001 0.1639637,0.1256728 0.1826182,0.047127 a 0.29454567,0.29454567 0 0 0 0,-0.1178182 C 5.9836205,4.192506 5.9482685,4.169924 5.9129235,4.169924 A 0.49090945,0.49090945 0 0 1 5.7744894,4.1404676 q -0.034363,-0.013746 -0.051055,-0.0108 m 0.9847643,0.027491 q -0.025527,-0.00491 -0.061855,0.0324 c -0.035345,0.037309 -0.036327,0.051055 -0.00491,0.053018 0.022582,0 0.029454,0.018655 0.016691,0.038291 -0.035345,0.049091 9.782e-4,0.1492365 0.046145,0.124691 0.019637,-0.00982 0.039273,-0.0648 0.0432,-0.1217456 0.00393,-0.0756 -0.0108,-0.1207636 -0.039273,-0.1266545 m 0.9130916,0.088364 q -0.010798,-9.878e-4 -0.037307,0.018654 c -0.030436,0.0216 -0.048109,0.054982 -0.038291,0.072654 0.00982,0.017673 -0.00197,0.062837 -0.025527,0.1001456 -0.047127,0.076581 -0.00982,0.096218 0.061855,0.033381 0.024545,-0.0216 0.047127,-0.0864 0.051055,-0.1433455 0.00294,-0.054982 9.782e-4,-0.078545 -0.011782,-0.081491 m -1.111419,0.2160002 q -0.020619,0 -0.023563,0.035345 c -0.00197,0.030436 0.011782,0.056946 0.031418,0.057928 0.019637,9.782e-4 0.036327,-0.013746 0.037309,-0.031418 9.781e-4,-0.017673 -0.013746,-0.044182 -0.0324,-0.057928 a 0.01963638,0.01963638 0 0 0 -0.012764,-0.00393 m 1.1448008,0.025527 q -0.00491,-0.00688 -0.040254,0.019637 c -0.07069,0.051055 -0.055964,0.2209093 0.016691,0.1983274 0.028472,-0.00982 0.051055,-0.029454 0.053018,-0.047127 0,-0.017673 -0.015709,-0.033382 -0.036327,-0.034363 -0.023563,-9.781e-4 -0.026509,-0.0324 -0.00785,-0.080509 q 0.019636,-0.049091 0.014728,-0.055964 m -1.3254555,0.058909 a 0.07854551,0.07854551 0 0 0 -0.046146,0.033382 q -0.027491,0.039273 -0.054,-0.011782 c -0.020619,-0.036327 -0.029454,-0.029454 -0.033382,0.029454 -0.00294,0.054 0.0216,0.0864 0.082473,0.1060364 0.047127,0.014728 0.085418,0.0432 0.084436,0.062837 -9.781e-4,0.019636 0.0216,0.027491 0.051055,0.018655 0.029454,-0.00883 0.060873,-0.00197 0.070691,0.016691 0.036327,0.066764 0.1276365,0.00197 0.1080001,-0.078545 -0.023563,-0.099164 -0.023563,-0.099164 -0.093273,-0.078545 -0.0324,0.0108 -0.049091,0.039273 -0.037309,0.061855 0.011782,0.022582 -0.00393,0.018655 -0.034363,-0.00982 -0.031418,-0.029454 -0.055964,-0.074618 -0.054,-0.1011274 0.00197,-0.037309 -0.019637,-0.054982 -0.045164,-0.049091 m 1.176219,0.068728 c -0.038291,-0.00393 -0.098182,0.022581 -0.1453092,0.071673 -0.039273,0.041236 -0.070691,0.056946 -0.068727,0.034363 0,-0.021599 -0.023563,-0.051055 -0.053018,-0.063819 -0.098182,-0.045164 -0.047127,0.146291 0.074618,0.2798184 0.1492365,0.1629819 0.1767275,0.1659274 0.1678911,0.013746 -0.00491,-0.098182 0.00589,-0.1237092 0.054,-0.1207638 0.0324,0.00197 0.068727,0.030436 0.078545,0.063819 0.00982,0.0324 0.028472,0.050073 0.040255,0.039273 0.011782,-0.0108 -0.00883,-0.068728 -0.046146,-0.1276364 a 0.39272756,0.39272756 0 0 1 -0.065788,-0.149234 q 0,-0.037309 -0.036327,-0.041236 m -1.5876011,0.00982 c -0.019637,-9.781e-4 -0.054982,0.019637 -0.079527,0.045164 -0.035345,0.038291 -0.0324,0.056946 0.016691,0.088364 q 0.124691,0.082473 0.054,0.00197 c -0.029454,-0.0324 -0.027491,-0.055964 0.00294,-0.088364 q 0.039273,-0.042218 0.00589,-0.047127 M 5.7047803,4.734468 c -0.00589,-0.00294 -0.011782,0.017673 -0.013746,0.054 -0.00294,0.049091 0.00393,0.068727 0.014728,0.045164 a 0.13745464,0.13745464 0 0 0 0.00589,-0.088364 q -0.00393,-0.00982 -0.00688,-0.00982 m 1.3696373,0.019637 c -0.071672,0.00294 -0.2189455,0.077563 -0.221891,0.1188 -9.781e-4,0.019637 -0.039273,-0.00589 -0.085418,-0.054 -0.068728,-0.073636 -0.083454,-0.078545 -0.0864,-0.029454 -0.00294,0.035345 -0.0324,0.057928 -0.074618,0.054982 -0.081491,-0.00491 -0.0864,0.00785 -0.041236,0.1060364 0.0432,0.093273 0.058909,0.090327 0.1080001,-0.015709 0.035345,-0.080509 0.044182,-0.083454 0.091309,-0.029454 0.077563,0.0864 0.1413819,0.076582 0.2169819,-0.036327 0.061855,-0.091309 0.071673,-0.094255 0.1099638,-0.037309 0.039273,0.058909 0.042218,0.058909 0.047127,0.00393 0.00197,-0.0324 -0.014728,-0.067746 -0.039273,-0.078545 z m 0.2189457,0.041236 a 0.04909095,0.04909095 0 0 1 0.0432,0.024546 c 0.029454,0.054 0.00197,0.07069 -0.053018,0.0324 Q 7.2393553,4.821849 7.2766573,4.80123 Z M 6.0022634,4.843448 a 0.03534548,0.03534548 0 0 0 -0.038291,0.033382 0.03534548,0.03534548 0 0 0 0.033381,0.038291 0.03534548,0.03534548 0 0 0 0.037309,-0.033382 0.03534548,0.03534548 0 0 0 -0.0324,-0.038291 m 0.1865457,0.084436 c -0.013746,9.781e-4 -0.041236,0.016691 -0.073636,0.045164 q -0.1158547,0.1021091 0.029454,0.072654 c 0.048109,-0.00883 0.096218,9.782e-4 0.1080001,0.022582 0.026509,0.050073 0.124691,0.016691 0.1286182,-0.044182 C 6.3832144,4.988757 6.3537534,4.97992 6.2712807,4.99072 6.1907717,5.002502 6.1662261,4.99563 6.1858627,4.967157 6.2054987,4.939666 6.2035357,4.926903 6.1897927,4.927884 m 1.7152376,0.051055 c -0.00982,-0.00294 -0.0324,0.012764 -0.058909,0.050073 q -0.045164,0.0648 -0.0108,0.068728 c 0.019637,0.00197 0.047127,-0.0216 0.060873,-0.051055 q 0.026509,-0.060873 0.00982,-0.067746 M 7.2491775,4.990721 c -0.039273,-0.00197 -0.039273,0.015709 0,0.1040727 0.035345,0.081491 0.036327,0.1099638 0.00197,0.1197819 -0.0324,0.00883 -0.027491,0.035345 0.017673,0.092291 0.0756,0.096218 0.073636,0.095236 0.083454,0.019637 0.013746,-0.1119263 -0.054,-0.3328355 -0.1030905,-0.335781 m -0.5242913,0.00393 c -0.00883,0 -0.026509,0.013746 -0.039273,0.0324 -0.012764,0.018655 -0.00785,0.035345 0.012764,0.037309 0.020619,0 0.039273,-0.013746 0.039273,-0.033382 0.00197,-0.019637 -0.00393,-0.036327 -0.012764,-0.036327 m -0.2572365,0.025527 -0.019637,0.00393 q -0.0432,0.015709 0.019637,0.023563 c 0.037309,0.00294 0.058909,-0.00393 0.048109,-0.016691 q -0.015709,-0.014728 -0.048109,-0.0108 M 5.999326,5.0938231 c -0.022582,-0.00197 -0.067746,0.019637 -0.1001455,0.049091 -0.0324,0.027491 -0.058909,0.06971 -0.059891,0.093273 -9.781e-4,0.022582 0.015709,0.01571 0.037309,-0.016691 a 0.29454567,0.29454567 0 0 1 0.1021089,-0.090337 c 0.034363,-0.017673 0.044182,-0.033382 0.020619,-0.035345 m 1.4393465,0.051055 q -0.029454,0 -0.034363,0.031418 c -0.00197,0.033381 0.1070183,0.1188 0.1276365,0.1011273 0.00589,-0.00589 0.00197,-0.036327 -0.00785,-0.068727 A 0.09818189,0.09818189 0 0 0 7.438674,5.1448684 m 0.00491,0.1836001 -0.019637,0.00393 q -0.0432,0.015709 0.019637,0.022582 c 0.037309,0.00393 0.058909,-0.00294 0.048109,-0.01571 Q 7.4759816,5.325523 7.4435816,5.3284684 M 6.8515448,5.7506505 a 0.29454567,0.29454567 0 0 0 -0.090327,0.029454 c -0.1040727,0.047127 -0.090327,0.1040728 0.019637,0.083454 0.076582,-0.013746 0.088364,-0.00785 0.061855,0.029454 -0.037309,0.053018 -0.063819,0.2091274 -0.042218,0.2513456 0.024545,0.049091 0.082473,0.034363 0.1099637,-0.026509 0.014728,-0.0324 0.00883,-0.065782 -0.014728,-0.074618 -0.080509,-0.0324 -0.0324,-0.1148729 0.082473,-0.1374547 L 7.0960177,5.8822143 6.9624904,5.8488324 C 6.8898358,5.829196 6.8407448,5.7997415 6.8544903,5.7820687 q 0.020619,-0.031418 -0.00294,-0.0324 m 0.2287639,0.011782 c -0.019637,-0.00197 -0.026509,0.013746 -0.01571,0.034363 0.0108,0.019636 0.035345,0.037309 0.054982,0.039273 0.019637,0 0.026509,-0.014728 0.015709,-0.035345 -0.0108,-0.020619 -0.035345,-0.037309 -0.054982,-0.039273 m 0.062837,0.2160003 c -0.068728,-0.00294 -0.0756,0.00883 -0.058909,0.1129091 0.016691,0.1080001 0.058909,0.1698547 0.1207638,0.1747637 0.014728,0.00197 0.026509,-0.012764 0.028472,-0.030436 0,-0.018655 -0.013746,-0.044182 -0.0324,-0.057928 -0.018655,-0.013746 -0.022582,-0.061855 -0.00785,-0.1080001 0.022582,-0.071673 0.014728,-0.0864 -0.049091,-0.090327"
     opacity="0.45"
     id="path5"
     style="stroke-width:0.981819" />
  <path
     fill="#fff"
     d="M3.694 14.023h1.007v-1.47h1.618v-.87H4.701v-.76h1.824v-.869H3.694zm4.26 0h.973v-3.1h1.235v-.869H6.731v.87h1.224zm2.654 0h2.631v-.875h-1.641v-3.094h-.99z"
     id="path6" />
</svg>
