<?xml version="1.0" encoding="UTF-8" standalone="no"?>
<svg
   width="64"
   height="64"
   version="1.1"
   id="svg60"
   sodipodi:docname="garden.jamie.Morphosis.svg"
   xml:space="preserve"
   inkscape:version="1.4.2 (ebf0e940d0, 2025-05-08)"
   xmlns:inkscape="http://www.inkscape.org/namespaces/inkscape"
   xmlns:sodipodi="http://sodipodi.sourceforge.net/DTD/sodipodi-0.dtd"
   xmlns:xlink="http://www.w3.org/1999/xlink"
   xmlns="http://www.w3.org/2000/svg"
   xmlns:svg="http://www.w3.org/2000/svg"><sodipodi:namedview
     id="namedview60"
     pagecolor="#505050"
     bordercolor="#eeeeee"
     borderopacity="1"
     inkscape:showpageshadow="0"
     inkscape:pageopacity="0"
     inkscape:pagecheckerboard="0"
     inkscape:deskcolor="#505050"
     inkscape:zoom="4.5859375"
     inkscape:cx="16.354344"
     inkscape:cy="57.349233"
     inkscape:window-width="2560"
     inkscape:window-height="1411"
     inkscape:window-x="0"
     inkscape:window-y="0"
     inkscape:window-maximized="1"
     inkscape:current-layer="svg60" /><defs
     id="defs38"><linearGradient
       id="c"
       x1="7.937"
       x2="7.937"
       y1="15.081"
       y2="1.852"
       gradientTransform="matrix(3.7796,0,0,3.7796,-7.2422637,-16.131308)"
       gradientUnits="userSpaceOnUse"><stop
         offset="0"
         stop-color="#f1efeb"
         style="stop-color:#c69546;stop-opacity:1"
         id="stop1" /><stop
         offset="1"
         stop-color="#fdfcfc"
         style="stop-color:#3fb17d;stop-opacity:1"
         id="stop2" /></linearGradient><linearGradient
       id="d"
       x1="-79.382"
       x2="-36.522"
       y1="305.059"
       y2="230.825"
       gradientTransform="rotate(-15,-704.812,-271.34)"
       gradientUnits="userSpaceOnUse"><stop
         offset="0"
         stop-color="#c061cb"
         style="stop-color:#ff7800;stop-opacity:1"
         id="stop3" /><stop
         offset="1"
         stop-color="#3584e4"
         style="stop-color:#f6d32d;stop-opacity:1"
         id="stop4" /></linearGradient><linearGradient
       id="e"
       x1="19"
       x2="14"
       y1="47"
       y2="47"
       gradientUnits="userSpaceOnUse"><stop
         offset="0"
         stop-opacity=".216"
         id="stop5" /><stop
         offset="1"
         stop-opacity="0"
         id="stop6" /></linearGradient><linearGradient
       id="f"
       x1="28"
       x2="116"
       y1="-274"
       y2="-274"
       gradientTransform="rotate(180,68,-86)"
       gradientUnits="userSpaceOnUse"><stop
         offset="0"
         stop-color="#c0bfbc"
         id="stop7" /><stop
         offset=".045"
         stop-color="#f6f5f4"
         id="stop8" /><stop
         offset=".091"
         stop-color="#deddda"
         id="stop9" /><stop
         offset=".909"
         stop-color="#deddda"
         id="stop10" /><stop
         offset=".955"
         stop-color="#f6f5f4"
         id="stop11" /><stop
         offset="1"
         stop-color="#c0bfbc"
         id="stop12" /></linearGradient><linearGradient
       id="g"
       x1="20"
       x2="25.738"
       y1="98.337"
       y2="98.337"
       gradientUnits="userSpaceOnUse"><stop
         offset="0"
         stop-color="#deddda"
         id="stop13" /><stop
         offset=".28"
         stop-color="#fbfbfa"
         id="stop14" /><stop
         offset=".568"
         stop-color="#faf9f8"
         id="stop15" /><stop
         offset="1"
         stop-color="#f8f6f4"
         id="stop16" /></linearGradient><linearGradient
       id="i"
       x1="96.838"
       x2="101.618"
       y1="24.838"
       y2="20.058"
       gradientUnits="userSpaceOnUse"><stop
         offset="0"
         stop-color="#deddda"
         id="stop17" /><stop
         offset="1"
         stop-color="#f3f2ef"
         id="stop18" /></linearGradient><linearGradient
       id="j"
       x1="84.644"
       x2="95.271"
       y1="35.269"
       y2="24.643"
       gradientUnits="userSpaceOnUse"><stop
         offset="0"
         stop-color="#fff"
         id="stop19" /><stop
         offset=".342"
         stop-color="#ececec"
         id="stop20" /><stop
         offset=".7"
         stop-color="#e8e8e8"
         id="stop21" /><stop
         offset="1"
         stop-color="#fff"
         id="stop22" /></linearGradient><linearGradient
       id="k"
       x1="21.751"
       x2="44.91"
       y1="117.006"
       y2="117.006"
       gradientUnits="userSpaceOnUse"><stop
         offset="0"
         stop-color="#b0b0b0"
         id="stop23" /><stop
         offset="1"
         stop-color="#deddda"
         id="stop24" /></linearGradient><linearGradient
       id="l"
       x1="35"
       x2="81"
       y1="116"
       y2="116"
       gradientUnits="userSpaceOnUse"><stop
         offset="0"
         stop-color="#c0bfbc"
         id="stop25" /><stop
         offset="1"
         stop-color="#c0bfbc"
         stop-opacity="0"
         id="stop26" /></linearGradient><linearGradient
       xlink:href="#a"
       id="m"
       x1="43"
       x2="79"
       y1="116"
       y2="116" /><linearGradient
       id="a"
       x1="0"
       x2="128"
       y1="0"
       y2="0"
       gradientUnits="userSpaceOnUse"><stop
         offset="0"
         stop-color="#f6f5f4"
         stop-opacity="0"
         id="stop27" /><stop
         offset=".517"
         stop-color="#f6f5f4"
         id="stop28" /><stop
         offset="1"
         stop-color="#f6f5f4"
         stop-opacity="0"
         id="stop29" /></linearGradient><linearGradient
       id="n"
       x1="38.812"
       x2="38.812"
       y1="120.254"
       y2="122.834"
       gradientUnits="userSpaceOnUse"><stop
         offset="0"
         stop-opacity=".525"
         id="stop30" /><stop
         offset="1"
         stop-opacity="0"
         id="stop31" /></linearGradient><linearGradient
       id="o"
       x1="108"
       x2="112.754"
       y1="88.644"
       y2="88.468"
       gradientUnits="userSpaceOnUse"><stop
         offset="0"
         stop-opacity=".243"
         id="stop32" /><stop
         offset="1"
         stop-opacity="0"
         id="stop33" /></linearGradient><linearGradient
       xlink:href="#a"
       id="p"
       x1="62.479"
       x2="98.479"
       y1="118"
       y2="118" /><linearGradient
       id="q"
       x1="74.519"
       x2="108"
       y1="116"
       y2="116"
       gradientUnits="userSpaceOnUse"><stop
         offset="0"
         stop-color="#f6f5f4"
         stop-opacity="0"
         id="stop34" /><stop
         offset=".517"
         stop-color="#c0bfbc"
         id="stop35" /><stop
         offset="1"
         stop-color="#f6f5f4"
         stop-opacity="0"
         id="stop36" /></linearGradient><linearGradient
       xlink:href="#b"
       id="s"
       x1="56"
       x2="84"
       y1="224.002"
       y2="224.002"
       gradientTransform="rotate(180,60.113,63.908)" /><linearGradient
       id="b"
       x1="0"
       x2="128"
       y1="0"
       y2="0"
       gradientTransform="translate(-.398 -172.001)"
       gradientUnits="userSpaceOnUse"><stop
         offset="0"
         stop-color="#fff"
         style="stop-color:#241f31;stop-opacity:1"
         id="stop37" /><stop
         offset="1"
         stop-color="#fff"
         stop-opacity="0"
         style="stop-color:#241f31;stop-opacity:0"
         id="stop38" /></linearGradient><linearGradient
       xlink:href="#b"
       id="r"
       x1="56"
       x2="84"
       y1="224.002"
       y2="224.002"
       gradientTransform="translate(-6.978,-0.181)" /></defs><g
     style="display:inline;fill:none"
     id="g60"
     transform="matrix(1.1452324,0,0,1.1452324,-3.996888,-4.9442009)"><g
       style="fill:#000000"
       id="g57"><path
         fill="url(#d)"
         d="M 12.977,24.297 82.52,5.66 a 8.005,8.005 0 0 1 9.8,5.66 l 22.774,85 a 8,8 0 0 1 -5.656,9.797 l -69.547,18.637 c -4.266,1.144 -8.653,-1.391 -9.797,-5.656 L 7.316,34.094 a 8.003,8.003 0 0 1 5.661,-9.797 m 0,0"
         class="fills"
         style="fill:url(#d)"
         transform="matrix(0.39866,0,0,0.39866,6.487,7.301)"
         id="path38" /><path
         fill="url(#e)"
         d="m 20.145,22.328 -7.235,1.938 a 7.983,7.983 0 0 0 -5.656,9.797 l 12.891,48.101 z m 0,0"
         class="fills"
         style="opacity:0.5;fill:url(#e)"
         transform="matrix(0.39866,0,0,0.39866,6.487,7.301)"
         id="path39" /><path
         d="M 42.684,0.453 112.23,19.09 a 8.003,8.003 0 0 1 5.661,9.797 l -22.778,85.004 a 8.004,8.004 0 0 1 -9.797,5.656 L 15.77,100.91 A 8.003,8.003 0 0 1 10.109,91.113 L 32.887,6.109 a 8.004,8.004 0 0 1 9.797,-5.656 m 0,0"
         class="fills"
         style="fill:#2ec27e"
         transform="matrix(0.39866,0,0,0.39866,6.487,7.301)"
         id="path40" /><path
         d="m 28,61 h 72 a 8,8 0 0 1 8,8 v 43 a 8,8 0 0 1 -8,8 H 28 a 8,8 0 0 1 -8,-8 V 69 a 8,8 0 0 1 8,-8 m 0,0"
         class="fills"
         style="fill:#deddda"
         transform="matrix(0.39866,0,0,0.39866,6.487,7.301)"
         id="path41" /><path
         fill="url(#f)"
         d="M 100,120 H 28 a 8,8 0 0 1 -8,-8 V 88 a 8,8 0 0 1 8,-8 h 72 a 8,8 0 0 1 8,8 v 24 a 8,8 0 0 1 -8,8 m 0,0"
         class="fills"
         style="fill:url(#f)"
         transform="matrix(0.39866,0,0,0.39866,6.487,7.301)"
         id="path42" /><path
         d="M 100,15.813 V 95.652 L 117.891,28.887 A 7.986,7.986 0 0 0 112.23,19.09 Z M 27.988,104.18 V 24.344 L 10.102,91.105 a 7.98,7.98 0 0 0 5.656,9.797 z m 0,0"
         class="fills"
         style="fill:#2ec27e;fill-opacity:1"
         transform="matrix(0.39866,0,0,0.39866,6.487,7.301)"
         id="path43" /><path
         fill="url(#g)"
         d="m 28,8 h 72 c 4.434,0 8,3.566 8,8 v 88 c 0,4.434 -3.566,8 -8,8 H 24 c -2.344,0 -4,1.953 -4,3.754 V 16 c 0,-4.434 3.566,-8 8,-8 m 0,0"
         class="fills"
         style="fill:url(#g)"
         transform="matrix(0.39866,0,0,0.39866,6.487,7.301)"
         id="path44" /><path
         fill="url(#i)"
         d="m 80,8 26,26 c 2.039,3.137 2,6 2,6 V 16 c 0,-4.434 -3.566,-8 -8,-8 z m 0,0"
         class="fills"
         style="fill:url(#i)"
         transform="matrix(0.39866,0,0,0.39866,6.487,7.301)"
         id="path45" /><path
         fill-opacity=".212"
         d="m 105,35.277 -25,-25 v 20 c 0,4.43 3.566,8 8,8 h 15.797 c 2.203,0 4.562,2.508 4.203,4 a 9.94,9.94 0 0 0 -3,-7 m 0,0"
         class="fills"
         style="fill-opacity:0.212"
         transform="matrix(0.39866,0,0,0.39866,6.487,7.301)"
         id="path46" /><path
         fill="url(#j)"
         d="M 105,33 80,8 v 20 c 0,4.434 3.566,8 8,8 h 15.797 c 2.203,0 4.562,2.512 4.203,4 a 9.93,9.93 0 0 0 -3,-7 m 0,0"
         class="fills"
         style="fill:url(#j)"
         transform="matrix(0.39866,0,0,0.39866,6.487,7.301)"
         id="path47" /><path
         d="m 35.004,20 h 32 c 1.66,0 3,1.344 3,3 0,1.656 -1.34,3 -3,3 h -32 a 3.001,3.001 0 0 1 0,-6 m -1,12 H 48 a 2,2 0 1 1 0,4 H 34.004 c -1.102,0 -2,-0.895 -2,-2 0,-1.105 0.898,-2 2,-2 m 0,0"
         class="fills"
         style="fill:#c0bfbc;fill-opacity:1"
         transform="matrix(0.39866,0,0,0.39866,6.487,7.301)"
         id="path48" /><g
         style="fill:#000000"
         id="g49"><path
           d="m 34,76 h 60 a 2,2 0 1 1 0,4 H 34 a 2,2 0 1 1 0,-4 m 0,10 h 60 a 2,2 0 1 1 0,4 H 34 a 2,2 0 1 1 0,-4 m 0,10 h 60 a 2,2 0 1 1 0,4 H 34 a 2,2 0 1 1 0,-4 m 0,-30 h 60 a 2,2 0 1 1 0,4 H 34 a 2,2 0 1 1 0,-4 m 0,0"
           class="fills"
           style="fill:#c0bfbc"
           transform="matrix(0.39866,0,0,0.39866,6.487,7.301)"
           id="path49" /></g><path
         fill="url(#k)"
         d="M 23.754,112 H 72.246 A 3.753,3.753 0 0 1 76,115.754 v 0.492 A 3.753,3.753 0 0 1 72.246,120 H 23.754 A 3.753,3.753 0 0 1 20,116.246 v -0.492 A 3.753,3.753 0 0 1 23.754,112 m 0,0"
         class="fills"
         style="fill:url(#k)"
         transform="matrix(0.39866,0,0,0.39866,6.487,7.301)"
         id="path50" /><path
         fill="url(#l)"
         d="m 24,114 h 71 a 2,2 0 1 1 0,4 H 24 a 2,2 0 1 1 0,-4 m 0,0"
         class="fills"
         style="fill:url(#l)"
         transform="matrix(0.39866,0,0,0.39866,6.487,7.301)"
         id="path51" /><path
         d="m 24.5,116 h 35 a 0.5,0.5 0 1 1 0,1 h -35 a 0.5,0.5 0 1 1 0,-1 m 0,0"
         class="fills"
         style="fill:#deddda"
         transform="matrix(0.39866,0,0,0.39866,6.487,7.301)"
         id="path52" /><path
         fill="url(#m)"
         d="m 43.5,115 h 35 a 0.5,0.5 0 1 1 0,1 h -35 a 0.5,0.5 0 1 1 0,-1 m 0,0"
         class="fills"
         style="fill:url(#m)"
         transform="matrix(0.39866,0,0,0.39866,6.487,7.301)"
         id="path53" /><path
         fill="url(#n)"
         d="m 30.402,120.023 a 7.974,7.974 0 0 0 9.446,4.645 l 17.34,-4.645 z m 0,0"
         class="fills"
         style="opacity:0.5;fill:url(#n)"
         transform="matrix(0.39866,0,0,0.39866,6.487,7.301)"
         id="path54" /><path
         fill="url(#o)"
         d="m 108,70.727 v 35.836 l 1.23,-0.333 a 7.98,7.98 0 0 0 5.657,-9.796 z m 0,0"
         class="fills"
         style="opacity:0.5;fill:url(#o)"
         transform="matrix(0.39866,0,0,0.39866,6.487,7.301)"
         id="path55" /><path
         fill="url(#p)"
         d="m 62.98,117 h 35 a 0.5,0.5 0 0 1 0,1 h -35 a 0.5,0.5 0 1 1 0,-1 m 0,0"
         class="fills"
         style="fill:url(#p)"
         transform="matrix(0.39866,0,0,0.39866,6.487,7.301)"
         id="path56" /><path
         fill="url(#q)"
         d="m 75.02,115 h 27.796 c 0.278,0 0.5,0.223 0.5,0.5 0,0.277 -0.222,0.5 -0.5,0.5 H 75.02 a 0.5,0.5 0 0 1 -0.5,-0.5 c 0,-0.277 0.222,-0.5 0.5,-0.5 m 0,0"
         class="fills"
         style="fill:url(#q)"
         transform="matrix(0.39866,0,0,0.39866,6.487,7.301)"
         id="path57" /></g><path
       d="m 21.022,63.818 h 27.203 l -13.6,17 z m 71.203,0 H 65.022 l 13.602,-17 z m 0,0"
       class="fills"
       style="fill:#241f31;fill-opacity:1"
       transform="matrix(0.39866,0,0,0.39866,9.268,7.374)"
       id="path58" /><path
       stroke="url(#r)"
       stroke-linejoin="round"
       stroke-width="8"
       d="M 78.623,63.818 A 24,24 0 0 1 64.768,85.568 24.01,24.01 0 0 1 39.198,82.205"
       class="fills"
       style="fill:none;stroke:url(#s);stroke-linecap:round"
       transform="matrix(0.39866,0,0,0.39866,9.268,7.374)"
       id="path59" /><path
       stroke="url(#r)"
       stroke-linejoin="round"
       stroke-width="8"
       d="m 34.624,63.818 a 24,24 0 0 1 13.855,-21.75 24.01,24.01 0 0 1 25.57,3.363"
       class="fills"
       style="fill:none;stroke:url(#r);stroke-linecap:round"
       transform="matrix(0.39866,0,0,0.39866,9.268,7.374)"
       id="path60" /></g></svg>
