<?xml version="1.0" encoding="UTF-8" standalone="no"?>
<svg
   width="64"
   height="64"
   version="1.1"
   id="svg3"
   sodipodi:docname="garry's-mod.svg"
   inkscape:version="1.4.2 (ebf0e940d0, 2025-05-08)"
   xmlns:inkscape="http://www.inkscape.org/namespaces/inkscape"
   xmlns:sodipodi="http://sodipodi.sourceforge.net/DTD/sodipodi-0.dtd"
   xmlns:xlink="http://www.w3.org/1999/xlink"
   xmlns="http://www.w3.org/2000/svg"
   xmlns:svg="http://www.w3.org/2000/svg">
  <sodipodi:namedview
     id="namedview3"
     pagecolor="#505050"
     bordercolor="#eeeeee"
     borderopacity="1"
     inkscape:showpageshadow="0"
     inkscape:pageopacity="0"
     inkscape:pagecheckerboard="0"
     inkscape:deskcolor="#505050"
     inkscape:zoom="6.485495"
     inkscape:cx="8.6346532"
     inkscape:cy="42.556505"
     inkscape:window-width="2560"
     inkscape:window-height="1411"
     inkscape:window-x="0"
     inkscape:window-y="0"
     inkscape:window-maximized="1"
     inkscape:current-layer="svg3" />
  <defs
     id="defs2">
    <pattern
       xlink:href="#a"
       id="c"
       x=".2"
       y=".2"
       patternTransform="scale(10)"
       preserveAspectRatio="xMidYMid" />
    <pattern
       id="a"
       width="2"
       height="2"
       patternTransform="scale(10)"
       patternUnits="userSpaceOnUse"
       preserveAspectRatio="xMidYMid"
       style="fill:#383fb1">
      <path
         d="M0 0h1v1H0zm1 1h1v1H1z"
         style="stroke:none"
         id="path1" />
    </pattern>
    <linearGradient
       id="b"
       x1="7.937"
       x2="7.937"
       y1="15.081"
       y2="1.852"
       gradientTransform="scale(3.7796)"
       gradientUnits="userSpaceOnUse">
      <stop
         offset="0"
         stop-color="#363636"
         id="stop1" />
      <stop
         offset="1"
         stop-color="#6c6c6c"
         id="stop2" />
    </linearGradient>
    <linearGradient
       inkscape:collect="always"
       xlink:href="#linearGradient870"
       id="linearGradient872"
       x1="7.25"
       y1="4.5"
       x2="59.052055"
       y2="59.368126"
       gradientUnits="userSpaceOnUse" />
    <linearGradient
       inkscape:collect="always"
       id="linearGradient870">
      <stop
         style="stop-color:#006afa;stop-opacity:1"
         offset="0"
         id="stop866" />
      <stop
         style="stop-color:#006afa;stop-opacity:1"
         offset="1"
         id="stop868" />
    </linearGradient>
  </defs>
  <path
     id="rect842"
     style="fill:url(#linearGradient872);fill-opacity:1;stroke-width:3;stroke-linecap:round;stroke-linejoin:round;paint-order:stroke fill markers"
     d="M 7.25,4.5 C 5.726539,4.5 4.5,5.7265385 4.5,7.25 v 49.5 c 0,1.523462 1.226539,2.75 2.75,2.75 h 49.5 c 1.52346,0 2.75,-1.226538 2.75,-2.75 V 7.25 C 59.5,5.7265385 58.27346,4.5 56.75,4.5 Z" />
  <path
     d="m 18.115,43.502 9.288,1.128 q 0.231,1.62 1.07,2.228 1.158,0.868 3.646,0.868 3.183,0 4.774,-0.954 1.07,-0.637 1.62,-2.055 0.377,-1.012 0.377,-3.732 V 36.5 q -3.646,4.977 -9.201,4.977 -6.192,0 -9.81,-5.237 -2.835,-4.138 -2.835,-10.301 0,-7.725 3.704,-11.805 3.732,-4.08 9.259,-4.08 5.7,0 9.403,5.006 v -4.312 h 7.61 v 27.574 q 0,5.44 -0.897,8.13 -0.897,2.69 -2.517,4.226 -1.62,1.536 -4.34,2.4 -2.691,0.868 -6.829,0.868 -7.812,0 -11.081,-2.69 -3.27,-2.663 -3.27,-6.771 0,-0.405 0.029,-0.984 m 7.262,-18.026 q 0,4.89 1.881,7.176 1.91,2.257 4.687,2.257 2.98,0 5.035,-2.315 2.054,-2.344 2.054,-6.915 0,-4.774 -1.967,-7.09 -1.968,-2.314 -4.977,-2.314 -2.922,0 -4.832,2.286 -1.88,2.257 -1.88,6.915"
     aria-label="g"
     style="font-weight:700;font-size:21.3333px;font-family:Arial;-inkscape-font-specification:'Arial Bold';text-align:end;text-anchor:end;fill:#ffffff;stroke-width:0.833302;stroke-linecap:square"
     id="path3" />
</svg>
