<?xml version="1.0" encoding="UTF-8" standalone="no"?>
<svg
   width="64"
   height="64"
   version="1.1"
   id="svg2"
   sodipodi:docname="gearlever.svg"
   xml:space="preserve"
   inkscape:version="1.4.2 (ebf0e940d0, 2025-05-08)"
   xmlns:inkscape="http://www.inkscape.org/namespaces/inkscape"
   xmlns:sodipodi="http://sodipodi.sourceforge.net/DTD/sodipodi-0.dtd"
   xmlns:xlink="http://www.w3.org/1999/xlink"
   xmlns="http://www.w3.org/2000/svg"
   xmlns:svg="http://www.w3.org/2000/svg"><sodipodi:namedview
     id="namedview2"
     pagecolor="#505050"
     bordercolor="#eeeeee"
     borderopacity="1"
     inkscape:showpageshadow="0"
     inkscape:pageopacity="0"
     inkscape:pagecheckerboard="0"
     inkscape:deskcolor="#505050"
     inkscape:zoom="4.5859375"
     inkscape:cx="59.093697"
     inkscape:cy="-12.647359"
     inkscape:window-width="2560"
     inkscape:window-height="1411"
     inkscape:window-x="0"
     inkscape:window-y="0"
     inkscape:window-maximized="1"
     inkscape:current-layer="svg2" /><defs
     id="defs2"><linearGradient
       id="linearGradient9"
       inkscape:collect="always"><stop
         style="stop-color:#8e8c8f;stop-opacity:0.98823499;"
         offset="0"
         id="stop9" /><stop
         style="stop-color:#929194;stop-opacity:0.98823529"
         offset="0.06638948"
         id="stop22" /><stop
         style="stop-color:#cdcdcd;stop-opacity:0.99215686"
         offset="0.12135035"
         id="stop20" /><stop
         style="stop-color:#929194;stop-opacity:0.98823529"
         offset="0.16158955"
         id="stop21" /><stop
         style="stop-color:#aaa9ac;stop-opacity:0.98823529;"
         offset="0.27093503"
         id="stop12" /><stop
         style="stop-color:#cdcdcf;stop-opacity:0.99607843"
         offset="0.34098661"
         id="stop11" /><stop
         style="stop-color:#929093;stop-opacity:0.98823529"
         offset="0.42083597"
         id="stop13" /><stop
         style="stop-color:#929294;stop-opacity:0.98823529"
         offset="0.5846166"
         id="stop15" /><stop
         style="stop-color:#cecece;stop-opacity:0.99215686"
         offset="0.69149041"
         id="stop14" /><stop
         style="stop-color:#909092;stop-opacity:0.99215686"
         offset="0.77476871"
         id="stop16" /><stop
         style="stop-color:#979598;stop-opacity:0.98823529"
         offset="0.85249513"
         id="stop19" /><stop
         style="stop-color:#cecece;stop-opacity:0.98823529"
         offset="0.90467048"
         id="stop17" /><stop
         style="stop-color:#929093;stop-opacity:0.98823529"
         offset="0.94271326"
         id="stop18" /><stop
         style="stop-color:#8f8d90;stop-opacity:0.98823529"
         offset="1"
         id="stop10" /></linearGradient><linearGradient
       id="linearGradient8"
       inkscape:collect="always"><stop
         style="stop-color:#b2b3b7;stop-opacity:1"
         offset="0"
         id="stop7" /><stop
         style="stop-color:#aba9ac;stop-opacity:0.99607843"
         offset="1"
         id="stop8" /></linearGradient><linearGradient
       id="linearGradient4"
       inkscape:collect="always"><stop
         style="stop-color:#c1c4c8;stop-opacity:0.99607843"
         offset="0"
         id="stop4" /><stop
         style="stop-color:#3b586c;stop-opacity:0.99607843"
         offset="1"
         id="stop5" /></linearGradient><linearGradient
       id="a"
       x1="7.937"
       x2="7.937"
       y1="15.081"
       y2="1.852"
       gradientTransform="translate(-.001 .03)scale(3.7796)"
       gradientUnits="userSpaceOnUse"><stop
         offset="0"
         stop-color="#736f67"
         id="stop1" /><stop
         offset="1"
         stop-color="#3e3d38"
         id="stop2" /></linearGradient><linearGradient
       inkscape:collect="always"
       xlink:href="#linearGradient4"
       id="linearGradient5"
       x1="213.86987"
       y1="-75.707405"
       x2="213.86987"
       y2="-11.339012"
       gradientUnits="userSpaceOnUse" /><linearGradient
       inkscape:collect="always"
       xlink:href="#linearGradient8"
       id="linearGradient7"
       x1="214.83789"
       y1="-39.267578"
       x2="214.83789"
       y2="11.371094"
       gradientUnits="userSpaceOnUse" /><linearGradient
       inkscape:collect="always"
       xlink:href="#linearGradient9"
       id="linearGradient10"
       x1="175.1875"
       y1="-11.930923"
       x2="253.74023"
       y2="-11.930923"
       gradientUnits="userSpaceOnUse" /></defs><g
     id="g26"
     transform="matrix(0.62302796,0,0,0.62302796,-101.61698,52.118488)"><path
       id="path8"
       style="fill:url(#linearGradient10);fill-opacity:0.988235;stroke:none;stroke-width:1;stroke-linecap:round;stroke-linejoin:bevel;stroke-dasharray:none"
       d="m 186.32227,-37.314712 -3.39258,2.623046 c 0,0 6.54083,7.717463 2.17969,10.388672 -4.36117,2.67121 -9.92188,3.816407 -9.92188,3.816407 v 9.867187 c 0,0 11.39436,1.6898957 11.33984,4.9062498 -0.0545,3.2163543 -3.48828,7.5761719 -3.48828,7.5761719 l 8.25586,6.4628906 c 0,0 9.94437,-6.2054835 13.5293,-1.8496094 3.58492,4.3558741 4.74219,6.9765631 4.74219,6.9765631 h 10.40625 c 0,0 4.47286,-8.2095882 9.02148,-7.6699224 4.54861,0.5396659 10.75391,1.65625 10.75391,1.65625 l 6.82226,-5.5117188 c 0,0 -7.05257,-7.4788905 -0.46093,-10.1386721 6.59164,-2.6597817 7.63085,-3.0449217 7.63085,-3.0449217 v -9.019531 c 0,0 -12.91349,-2.891462 -10.67773,-7.632812 2.23575,-4.741349 3.58594,-7.246094 3.58594,-7.246094 l -3.29492,-1.902344 z m 28.14257,13.724609 a 13.337455,8.6346531 0 0 1 13.33789,8.634766 13.337455,8.6346531 0 0 1 -13.33789,8.6328118 13.337455,8.6346531 0 0 1 -13.33789,-8.6328118 13.337455,8.6346531 0 0 1 13.33789,-8.634766 z" /><path
       style="fill:#929194;fill-opacity:0.988235;stroke:none;stroke-width:1;stroke-linecap:round;stroke-linejoin:bevel;stroke-dasharray:none"
       d="m 246.64844,-37.236328 v 2.081772 l -3.58594,7.246094 -1.13802,-1.040755 z"
       id="path24" /><path
       style="fill:#929194;fill-opacity:0.988235;stroke:none;stroke-width:1;stroke-linecap:round;stroke-linejoin:bevel;stroke-dasharray:none"
       d="m 182.92969,-36.773438 v 2.081772 c 0,0 3.31044,4.227485 3.58147,6.652149 l 2.02495,-2.817804 z"
       id="path25" /><path
       id="path4"
       style="fill:url(#linearGradient7);fill-opacity:1;stroke:none;stroke-width:1;stroke-linecap:round;stroke-linejoin:bevel;stroke-dasharray:none"
       d="m 186.32227,-39.396484 -3.39258,2.623046 c 0,0 6.54083,7.717463 2.17969,10.388672 -4.36117,2.67121 -9.92188,3.816407 -9.92188,3.816407 v 9.867187 c 0,0 11.39436,1.689896 11.33984,4.9062501 -0.0545,3.2163543 -3.48828,7.5761719 -3.48828,7.5761719 l 8.25586,6.4628906 c 0,0 9.94437,-6.20548349 13.5293,-1.8496094 3.58492,4.3558742 4.74219,6.9765628 4.74219,6.9765628 h 10.40625 c 0,0 4.47286,-8.2095879 9.02148,-7.6699221 4.54861,0.5396659 10.75391,1.65625 10.75391,1.65625 l 6.82226,-5.51171878 c 0,0 -7.05257,-7.47889052 -0.46093,-10.13867212 6.59164,-2.659782 7.63085,-3.044922 7.63085,-3.044922 v -9.019531 c 0,0 -12.91349,-2.891462 -10.67773,-7.632812 2.23575,-4.741349 3.58594,-7.246094 3.58594,-7.246094 l -3.29492,-1.902344 z m 28.14257,13.724609 a 13.337455,8.6346531 0 0 1 13.33789,8.634766 13.337455,8.6346531 0 0 1 -13.33789,8.6328121 13.337455,8.6346531 0 0 1 -13.33789,-8.6328121 13.337455,8.6346531 0 0 1 13.33789,-8.634766 z" /><path
       style="fill:#2f484d;fill-opacity:0.996078;stroke:none;stroke-width:1;stroke-linecap:round;stroke-linejoin:bevel;stroke-dasharray:none"
       d="m 213.86987,-77.981711 h -14.04036 c 0,0 -3.65247,-0.285781 -3.65247,5.165667 v 21.08522 h -8.08591 c 0,0 -10.17644,1.511032 -2.38087,10.533179 9.5826,11.090356 20.55196,27.584327 27.20272,27.584327 m 0,0 h 3.32539 c 6.22679,0 27.09369,-28.511073 27.09369,-28.511073 0,0 1.86308,-2.392923 1.77172,-4.388416 -0.17473,-3.816394 -1.30834,-6.105622 -9.40375,-6.105622 h -3.57789 v -19.298126 c 0,0 0.42968,-6.11925 -4.24493,-6.11925 -4.98808,0 -14.00734,0.05409 -14.00734,0.05409"
       id="path26"
       sodipodi:nodetypes="ccsccsccscssccsc" /><path
       style="fill:url(#linearGradient5);fill-opacity:1;stroke:none;stroke-width:1;stroke-linecap:round;stroke-linejoin:bevel;stroke-dasharray:none"
       d="m 213.86987,-75.707405 h -14.04036 c 0,0 -3.65247,-0.285781 -3.65247,5.165667 v 21.08522 h -8.08591 c 0,0 -10.17644,1.511032 -2.38087,10.533179 9.5826,11.090356 20.55196,27.584327 27.20272,27.584327 m 0,0 h 3.32539 c 6.22679,0 27.09369,-28.511073 27.09369,-28.511073 0,0 1.86308,-2.392923 1.77172,-4.388416 -0.17473,-3.816394 -1.30834,-6.105622 -9.40375,-6.105622 h -3.57789 v -19.298126 c 0,0 0.42968,-6.11925 -4.24493,-6.11925 -4.98808,0 -14.00734,0.05409 -14.00734,0.05409"
       id="path3"
       sodipodi:nodetypes="ccsccsccscssccsc" /><path
       style="fill:#929194;fill-opacity:0.988235;stroke:none;stroke-width:1;stroke-linecap:round;stroke-linejoin:bevel;stroke-dasharray:none"
       d="m 183.03906,-0.21875 v 2.0817717 l 8.25586,6.4628906 V 6.2441406 Z"
       id="path22" /><path
       style="fill:#929194;fill-opacity:0.988235;stroke:none;stroke-width:1;stroke-linecap:round;stroke-linejoin:bevel;stroke-dasharray:none"
       d="m 239.74805,5.3574219 v 2.0817717 l 6.82226,-5.5117188 v -2.08177168 z"
       id="path23" /></g></svg>
