<?xml version="1.0" encoding="UTF-8" standalone="no"?>
<svg
   width="64"
   height="64"
   viewBox="0 0 16.933 16.933"
   version="1.1"
   id="svg21"
   sodipodi:docname="geekbench.svg"
   xml:space="preserve"
   inkscape:version="1.4.2 (ebf0e940d0, 2025-05-08)"
   xmlns:inkscape="http://www.inkscape.org/namespaces/inkscape"
   xmlns:sodipodi="http://sodipodi.sourceforge.net/DTD/sodipodi-0.dtd"
   xmlns="http://www.w3.org/2000/svg"
   xmlns:svg="http://www.w3.org/2000/svg"><sodipodi:namedview
     id="namedview21"
     pagecolor="#505050"
     bordercolor="#eeeeee"
     borderopacity="1"
     inkscape:showpageshadow="0"
     inkscape:pageopacity="0"
     inkscape:pagecheckerboard="0"
     inkscape:deskcolor="#505050"
     inkscape:zoom="4.5859375"
     inkscape:cx="54.296422"
     inkscape:cy="25.512777"
     inkscape:window-width="2560"
     inkscape:window-height="1411"
     inkscape:window-x="0"
     inkscape:window-y="0"
     inkscape:window-maximized="1"
     inkscape:current-layer="svg21" /><defs
     id="defs14"><linearGradient
       id="a"
       x1="7.937"
       x2="7.937"
       y1="15.081"
       y2="1.852"
       gradientUnits="userSpaceOnUse"
       gradientTransform="matrix(1.0178142,0,0,1.0178142,-0.15082409,-0.14268156)"><stop
         offset="0"
         stop-color="#2858e4"
         id="stop1" /><stop
         offset="1"
         stop-color="#5ab9f4"
         id="stop2" /></linearGradient><linearGradient
       id="b"
       x1="8"
       x2="8"
       y1="3"
       y2="19"
       gradientTransform="matrix(0.54973163,0,0,0.54973163,0.77029776,0.82627756)"
       gradientUnits="userSpaceOnUse"><stop
         stop-color="#89D8FD"
         id="stop3" /><stop
         offset="1"
         stop-color="#70C8FA"
         id="stop4" /></linearGradient><linearGradient
       id="c"
       x1="3"
       x2="3"
       y1="9"
       y2="19"
       gradientTransform="matrix(0.54973163,0,0,0.54973163,0.77029776,0.82627756)"
       gradientUnits="userSpaceOnUse"><stop
         stop-color="#C6FB85"
         id="stop5" /><stop
         offset="1"
         stop-color="#B3F364"
         id="stop6" /></linearGradient><linearGradient
       id="d"
       x1="14"
       x2="14"
       y1="15"
       y2="17.5"
       gradientTransform="matrix(0.54973163,0,0,0.54973163,0.77029776,0.82627756)"
       gradientUnits="userSpaceOnUse"><stop
         stop-color="#1A86F1"
         stop-opacity="0"
         id="stop7" /><stop
         offset="1"
         stop-color="#1881F0"
         id="stop8" /></linearGradient><linearGradient
       id="e"
       x1="4.43"
       x2="4.43"
       y1="18.621"
       y2="24.063"
       gradientTransform="matrix(0.54973163,0,0,0.54973163,0.77029776,0.82627756)"
       gradientUnits="userSpaceOnUse"><stop
         stop-color="#70C8FA"
         id="stop9" /><stop
         offset="1"
         stop-color="#70C8FA"
         stop-opacity=".01"
         id="stop10" /></linearGradient><linearGradient
       id="f"
       x1="16.598"
       x2="16.598"
       y1="18.621"
       y2="24.063"
       gradientTransform="matrix(0.54973163,0,0,0.54973163,0.77029776,0.82627756)"
       gradientUnits="userSpaceOnUse"><stop
         stop-color="#70C8FA"
         id="stop11" /><stop
         offset="1"
         stop-color="#70C8FA"
         stop-opacity=".01"
         id="stop12" /></linearGradient><linearGradient
       id="g"
       x1="1.859"
       x2="1.859"
       y1="17.5"
       y2="25.02"
       gradientTransform="matrix(0.54973163,0,0,0.54973163,0.77029776,0.82627756)"
       gradientUnits="userSpaceOnUse"><stop
         stop-color="#1E1E1E"
         id="stop13" /><stop
         offset="1"
         id="stop14" /></linearGradient></defs><rect
     width="15.080954"
     height="15.080954"
     x="0.9260233"
     y="0.9260233"
     fill="url(#a)"
     rx="3.501281"
     ry="3.501281"
     id="rect14"
     style="fill:url(#a);stroke-width:1.01781" /><rect
     style="opacity:0.5;fill:#86d6fd;fill-opacity:1;stroke-width:0.165917;stroke-linecap:round;stroke-linejoin:bevel"
     id="rect21"
     width="13.558869"
     height="0.61398655"
     x="1.6870654"
     y="4.1860862"
     rx="0.20749967"
     ry="0.20749967" /><rect
     style="opacity:0.5;fill:#86d6fd;fill-opacity:1;stroke-width:0.165917;stroke-linecap:round;stroke-linejoin:bevel"
     id="rect22"
     width="13.558869"
     height="0.61398655"
     x="1.6870654"
     y="6.6288381"
     rx="0.20749967"
     ry="0.20749967" /><path
     fill="url(#b)"
     fill-rule="evenodd"
     d="M 5.5804877,2.4751366 A 0.41221475,0.41221475 0 0 0 5.1682729,2.8873513 v 7.4219007 c 0,0.226973 0.1852422,0.412215 0.4122148,0.412215 H 6.9545368 A 0.41221475,0.41221475 0 0 0 7.3677694,10.309252 V 2.8873513 A 0.41221475,0.41221475 0 0 0 6.9555547,2.4751366 Z m 7.1470913,1.0992393 a 0.41221475,0.41221475 0 0 0 -0.412215,0.4122147 v 6.8722814 c 0,0.226973 0.184225,0.412215 0.412215,0.412215 h 1.374049 a 0.41221475,0.41221475 0 0 0 0.412215,-0.412215 V 3.9865906 A 0.41221475,0.41221475 0 0 0 14.101628,3.5743759 Z"
     clip-rule="evenodd"
     style="fill:url(#b);stroke-width:0.549735"
     id="path14" /><rect
     style="opacity:0.5;fill:#86d6fd;fill-opacity:1;stroke-width:0.165917;stroke-linecap:round;stroke-linejoin:bevel"
     id="rect23"
     width="13.558869"
     height="0.61398655"
     x="1.6870654"
     y="9.0715904"
     rx="0.20749967"
     ry="0.20749967" /><path
     fill="url(#c)"
     fill-rule="evenodd"
     d="M 9.9784628,5.7738724 A 0.41221475,0.41221475 0 0 0 9.5662481,6.1860871 v 4.6717669 c 0,0.227991 0.1852422,0.413233 0.4122147,0.413233 h 1.3740492 a 0.41221475,0.41221475 0 0 0 0.413233,-0.412215 V 6.1860871 A 0.41221475,0.41221475 0 0 0 11.35353,5.7738724 Z M 2.8323893,7.4227314 A 0.41221475,0.41221475 0 0 0 2.4201746,7.8349461 v 2.4732889 c 0,0.22799 0.1842243,0.413232 0.4122147,0.413232 H 4.2064385 A 0.41221475,0.41221475 0 0 0 4.6186533,10.309252 V 7.8349461 A 0.41221475,0.41221475 0 0 0 4.2064385,7.4227314 Z"
     clip-rule="evenodd"
     style="fill:url(#c);stroke-width:0.549735"
     id="path15" /><path
     fill="url(#d)"
     d="M 2.4201746,9.0715904 H 14.513843 V 11.819689 H 2.4201746 Z"
     style="fill:url(#d);stroke-width:0.549735"
     id="path16" /><path
     fill="url(#e)"
     fill-rule="evenodd"
     d="m 4.8893918,14.053791 c -0.7358796,0 -0.9740482,-0.146565 -1.0290101,-0.191349 -0.4936399,-0.398983 -0.6544546,-1.56947 -0.6544546,-1.92774 0,-0.180153 0.015267,-0.43766 0.1486009,-0.595422 0.024428,-0.03053 0.142494,-0.132315 0.6229023,-0.207634 a 6.1068852,6.1068852 0 0 1 0.9119615,-0.06921 c 1.4198508,0 1.8473328,0.378627 1.9185798,0.454963 0.1526721,0.161832 0.2310438,0.409161 0.2310438,0.732826 0,0.481426 -0.1547077,0.859035 -0.2839701,1.092115 -0.1577612,0.284988 -0.3480925,0.472266 -0.4671768,0.532317 -0.1974559,0.100763 -0.8111979,0.179135 -1.3984767,0.179135"
     clip-rule="evenodd"
     opacity="0.5"
     style="fill:url(#e);stroke-width:0.549735"
     id="path17" /><path
     fill="url(#f)"
     fill-rule="evenodd"
     d="m 12.044626,14.053791 c 0.735879,0 0.974048,-0.146565 1.02901,-0.191349 0.49364,-0.398983 0.654454,-1.56947 0.654454,-1.92774 0,-0.180153 -0.01527,-0.43766 -0.148601,-0.595422 -0.02443,-0.03053 -0.142494,-0.132315 -0.622902,-0.207634 a 6.1068852,6.1068852 0 0 0 -0.911961,-0.06921 c -1.419851,0 -1.847333,0.378627 -1.919598,0.454963 -0.1526721,0.161832 -0.2300259,0.409161 -0.2300259,0.732826 0,0.481426 0.1536899,0.859035 0.2839699,1.092115 0.157761,0.284988 0.348093,0.472266 0.467177,0.532317 0.197456,0.100763 0.811198,0.179135 1.398477,0.179135"
     clip-rule="evenodd"
     opacity="0.5"
     style="fill:url(#f);stroke-width:0.549735"
     id="path18" /><path
     fill="url(#g)"
     fill-rule="evenodd"
     d="m 13.607988,11.934702 c -0.001,0.295166 -0.146565,1.459545 -0.610688,1.835119 -0.02036,0.01628 -0.238169,0.163868 -0.878374,0.163868 -0.374556,0 -0.840714,-0.01934 -1.098221,-0.06718 -0.295167,-0.05496 -0.400001,-0.113995 -0.54962,-0.294148 a 2.1170535,2.1170535 0 0 1 -0.455981,-1.323159 q 0,-0.439695 0.197456,-0.649365 c 0.02748,-0.03054 0.141476,-0.134352 0.424429,-0.232062 0.357252,-0.122137 0.830536,-0.185242 1.407637,-0.185242 0.288041,0 0.617813,0.02544 0.885498,0.06616 0.741987,0.113995 0.678882,0.271756 0.677864,0.686007 m -7.1450554,1.638681 c -0.1496187,0.179135 -0.2544536,0.238168 -0.5496197,0.29313 -0.257507,0.04784 -0.7226481,0.06718 -1.0992393,0.06718 -0.6391873,0 -0.8580174,-0.147583 -0.8783737,-0.164886 C 3.4725945,13.394249 3.327047,12.22987 3.3250114,11.934704 c 0,-0.414251 -0.063105,-0.572012 0.6798999,-0.686007 a 6.1068852,6.1068852 0 0 1 0.8854983,-0.06616 c 0.5760829,0 1.0493665,0.06209 1.4066193,0.185242 0.2829523,0.09771 0.3959297,0.202545 0.4244285,0.231044 q 0.1974559,0.210688 0.1974559,0.651401 c 0,0.589315 -0.2422397,1.065652 -0.4559807,1.323159 m 8.6697414,-2.765402 a 0.23409727,0.23409727 0 0 0 -0.178118,-0.193384 c -0.264631,-0.05802 -0.936389,-0.16794 -2.278886,-0.16794 -2.615782,0 -2.840719,0.333843 -4.2086613,0.333843 -1.3679422,0 -1.5928792,-0.333843 -4.2086617,-0.333843 -1.3424969,0 -2.0152721,0.109924 -2.278886,0.16794 a 0.23409727,0.23409727 0 0 0 -0.1781175,0.193384 1.0178142,1.0178142 0 0 0 -0.00916,0.119085 c 0,0.132316 0.00305,0.207634 0.045802,0.286005 0.066158,0.12112 0.6310448,0.360307 0.7216302,0.840715 0.090585,0.481426 0.3002552,1.713999 0.7511469,2.164891 0.301273,0.301273 0.9771016,0.361324 1.6692153,0.361324 0.8447858,0 1.3944054,-0.116031 1.6081464,-0.219848 0.1648859,-0.07837 0.7684497,-0.366413 1.0381705,-1.568452 0.2015272,-0.909926 0.18626,-0.984226 0.3908407,-1.131809 a 0.87532021,0.87532021 0 0 1 0.4498738,-0.132316 c 0.090586,0 0.3053443,0.02952 0.4498739,0.132316 0.2035629,0.146565 0.1893135,0.221883 0.3918585,1.131809 0.2687029,1.203057 0.8722673,1.489062 1.0381713,1.56947 0.213741,0.101781 0.762342,0.21883 1.608146,0.21883 0.691096,0 1.366924,-0.06107 1.668197,-0.361324 0.450892,-0.450892 0.66158,-1.683465 0.751147,-2.163873 0.09059,-0.481426 0.655473,-0.720613 0.722648,-0.841733 0.04071,-0.07837 0.04478,-0.152672 0.04478,-0.284988 a 1.0178142,1.0178142 0 0 0 -0.01018,-0.121119"
     clip-rule="evenodd"
     style="fill:url(#g);stroke-width:0.549735"
     id="path19" /><path
     fill="#cc7323"
     fill-rule="evenodd"
     d="m 9.462431,11.132664 c 0,0.250382 -0.18626,0.587279 -0.3368965,0.818323 a 0.04478382,0.04478382 0 0 1 -0.061069,0.01425 c -0.1516543,-0.09669 -0.3531816,-0.105853 -0.597457,-0.105853 -0.2412219,0 -0.4620876,0.01934 -0.6045816,0.125192 a 0.04478382,0.04478382 0 0 1 -0.066158,-0.01425 c -0.1384224,-0.260561 -0.19542,-0.580155 -0.19542,-0.580155 v -0.257507 z"
     clip-rule="evenodd"
     style="stroke-width:0.549735"
     id="path20" /><path
     fill="#e4aa65"
     fill-rule="evenodd"
     d="m 9.6832967,11.040043 c 0,0.08142 -0.1027992,0.205599 -0.2605604,0.321629 a 2.0356284,2.0356284 0 0 1 -0.126209,0.08346 2.0356284,2.0356284 0 0 1 -0.4081435,0.198474 1.5267213,1.5267213 0 0 1 -0.4946577,0.07837 q -0.2422398,0 -0.4122147,-0.03155 A 1.0178142,1.0178142 0 0 1 7.6456327,11.58152 C 7.4888893,11.49501 7.4349451,11.384064 7.4349451,11.298568 c 0,-0.139441 0.025445,-0.344021 0.1323159,-0.569976 l 0.00712,-0.01425 a 0.04478382,0.04478382 0 0 1 0.045802,-0.02545 c 0.2483467,0.03053 0.5139962,0.04987 0.8468214,0.04987 0.4335889,0 0.7521647,-0.03257 1.068705,-0.07939 a 0.04478382,0.04478382 0 0 1 0.046819,0.02443 l 0.00712,0.01323 a 0.91603278,0.91603278 0 0 1 0.093639,0.343003"
     clip-rule="evenodd"
     style="stroke-width:0.549735"
     id="path21" /></svg>
