<?xml version="1.0" encoding="UTF-8" standalone="no"?>
<svg
   width="64"
   height="64"
   version="1.1"
   id="svg3"
   sodipodi:docname="giada.svg"
   xml:space="preserve"
   inkscape:version="1.4.2 (ebf0e940d0, 2025-05-08)"
   xmlns:inkscape="http://www.inkscape.org/namespaces/inkscape"
   xmlns:sodipodi="http://sodipodi.sourceforge.net/DTD/sodipodi-0.dtd"
   xmlns="http://www.w3.org/2000/svg"
   xmlns:svg="http://www.w3.org/2000/svg"><sodipodi:namedview
     id="namedview3"
     pagecolor="#505050"
     bordercolor="#eeeeee"
     borderopacity="1"
     inkscape:showpageshadow="0"
     inkscape:pageopacity="0"
     inkscape:pagecheckerboard="0"
     inkscape:deskcolor="#505050"
     inkscape:zoom="6.485495"
     inkscape:cx="69.693986"
     inkscape:cy="35.617944"
     inkscape:window-width="2560"
     inkscape:window-height="1411"
     inkscape:window-x="0"
     inkscape:window-y="0"
     inkscape:window-maximized="1"
     inkscape:current-layer="svg3" /><defs
     id="defs2"><linearGradient
       id="a"
       x1="7.937"
       x2="7.937"
       y1="15.081"
       y2="1.852"
       gradientTransform="matrix(3.7796,0,0,3.7796,-27.981999,-24.096)"
       gradientUnits="userSpaceOnUse"><stop
         offset="0"
         stop-color="#363636"
         id="stop1" /><stop
         offset="1"
         stop-color="#6c6c6c"
         id="stop2" /></linearGradient><filter
       id="b"
       width="1.2939567"
       height="1.2939567"
       x="-0.14697836"
       y="-0.14697836"
       style="color-interpolation-filters:sRGB"><feGaussianBlur
         stdDeviation="2.955"
         id="feGaussianBlur2" /></filter></defs><circle
     style="opacity:1;fill:#454545;fill-opacity:1;stroke:none;stroke-width:1.28851;stroke-linecap:round;stroke-linejoin:bevel"
     id="path4"
     cx="32"
     cy="32"
     r="30" /><path
     fill="#fefefe"
     d="M32.02 17.637c7.915 0 14.343 6.428 14.343 14.383v.08h.442a11.15 11.15 0 0 1 8.92 4.42c.281-1.446.401-2.973.401-4.5 0-13.339-10.807-24.146-24.106-24.146-13.339 0-24.146 10.807-24.146 24.146 0 13.299 10.807 24.106 24.146 24.106a24.2 24.2 0 0 0 10.085-2.21 9.9 9.9 0 0 0 3.455.603h.683c5.062-.361 9.12-4.58 9.12-9.763 0-1.928-.562-3.696-1.486-5.223-1.768-2.732-4.822-4.58-8.317-4.58a9.79 9.79 0 0 0-9.803 9.803c0 .362 0 .723.04 1.085-1.206.322-2.491.522-3.777.522-7.955 0-14.383-6.428-14.383-14.343 0-7.955 6.428-14.383 14.383-14.383m6.067 10.566c-1.286-2.009-3.536-3.375-6.067-3.375a7.185 7.185 0 0 0-7.192 7.192c0 3.937 3.215 7.152 7.192 7.152.16 0 .322 0 .482-.04a7.124 7.124 0 0 0 6.67-7.112 7.2 7.2 0 0 0-1.085-3.817"
     class="fil2"
     style="fill:#000;stroke-width:.0401773;fill-opacity:1;filter:url(#b);opacity:.25"
     id="path2" /><path
     fill="#fefefe"
     d="m 32.019067,18.307345 c 7.545594,0 13.673588,6.127994 13.673588,13.711722 v 0.07627 h 0.421371 a 10.629611,10.629611 0 0 1 8.503689,4.213711 C 54.885601,34.930531 55,33.474799 55,32.019067 55,19.30262 44.69738,9 32.019067,9 19.30262,9 9,19.30262 9,32.019067 9,44.69738 19.30262,55 32.019067,55 a 23.070546,23.070546 0 0 0 9.614316,-2.106856 9.4379508,9.4379508 0 0 0 3.29375,0.574857 h 0.651123 c 4.825748,-0.344151 8.694354,-4.366244 8.694354,-9.307344 0,-1.838018 -0.53577,-3.523502 -1.416645,-4.979234 -1.685485,-2.604494 -4.59695,-4.366244 -7.928832,-4.366244 a 9.3330846,9.3330846 0 0 0 -9.345478,9.345478 c 0,0.345104 0,0.689256 0.03813,1.034361 -1.149714,0.306972 -2.374741,0.497637 -3.600721,0.497637 -7.583728,0 -13.711722,-6.127994 -13.711722,-13.673588 0,-7.583728 6.127994,-13.711722 13.711722,-13.711722 m 5.783843,10.072867 c -1.225981,-1.915236 -3.370969,-3.217483 -5.783843,-3.217483 a 6.8496643,6.8496643 0 0 0 -6.856338,6.856338 c 0,3.753253 3.064951,6.818204 6.856338,6.818204 0.152532,0 0.306971,0 0.459504,-0.03813 a 6.7915112,6.7915112 0 0 0 6.3587,-6.780071 6.8639642,6.8639642 0 0 0 -1.034361,-3.638855"
     class="fil2"
     style="fill:#fefefe;stroke-width:0.0383022"
     id="path3" /></svg>
