<?xml version="1.0" encoding="UTF-8" standalone="no"?>
<svg
   xml:space="preserve"
   width="64"
   height="64"
   version="1.1"
   id="svg5"
   sodipodi:docname="gitbutler.svg"
   inkscape:version="1.4.2 (ebf0e940d0, 2025-05-08)"
   xmlns:inkscape="http://www.inkscape.org/namespaces/inkscape"
   xmlns:sodipodi="http://sodipodi.sourceforge.net/DTD/sodipodi-0.dtd"
   xmlns:xlink="http://www.w3.org/1999/xlink"
   xmlns="http://www.w3.org/2000/svg"
   xmlns:svg="http://www.w3.org/2000/svg"><sodipodi:namedview
     id="namedview5"
     pagecolor="#505050"
     bordercolor="#eeeeee"
     borderopacity="1"
     inkscape:showpageshadow="0"
     inkscape:pageopacity="0"
     inkscape:pagecheckerboard="0"
     inkscape:deskcolor="#505050"
     inkscape:zoom="6.485495"
     inkscape:cx="49.032495"
     inkscape:cy="25.749769"
     inkscape:window-width="2560"
     inkscape:window-height="1411"
     inkscape:window-x="0"
     inkscape:window-y="0"
     inkscape:window-maximized="1"
     inkscape:current-layer="svg5" /><defs
     id="defs4"><linearGradient
       id="a"><stop
         offset="0"
         style="stop-color:#000;stop-opacity:0"
         id="stop1" /><stop
         offset="1"
         style="stop-color:#000;stop-opacity:1"
         id="stop2" /></linearGradient><linearGradient
       id="b"
       x1="7.937"
       x2="7.937"
       y1="15.081"
       y2="1.852"
       gradientTransform="matrix(3.7796,0,0,3.7796,-68.306274,0)"
       gradientUnits="userSpaceOnUse"><stop
         offset="0"
         stop-color="#363636"
         style="stop-color:#48d2cc;stop-opacity:1"
         id="stop3" /><stop
         offset="1"
         stop-color="#6c6c6c"
         style="stop-color:#90ede8;stop-opacity:1"
         id="stop4" /></linearGradient><radialGradient
       xlink:href="#a"
       id="c"
       cx="20.679"
       cy="18.628"
       r="11.752"
       fx="20.679"
       fy="18.628"
       gradientTransform="matrix(-.01564 -1.13738 1.34723 -.02396 -4.094 42.585)"
       gradientUnits="userSpaceOnUse" /></defs><rect
     width="57"
     height="57"
     x="3.0019989"
     y="3.4700003"
     fill="#ffcc00"
     fill-rule="evenodd"
     rx="8.7708244"
     ry="8.7708244"
     id="rect1-3"
     style="fill:#aaefea;fill-opacity:1;stroke-width:4.14304" /><path
     d="M24.982 20.329 5.457 31.6a2.037 2.037 30 0 1-3.055-1.763V7.55a2 2 150 0 1 3-1.732l19.58 11.305a1.85 1.85 90 0 1 0 3.205"
     style="fill:url(#c);fill-opacity:1;stroke-width:5.297;stroke-linecap:round;stroke-linejoin:round;paint-order:markers stroke fill"
     transform="matrix(-1.13751 0 0 1 55.846 13.355)"
     id="path4" /><path
     d="M24.982 20.329 5.457 31.6a2.037 2.037 30 0 1-3.055-1.763V7.55a2 2 150 0 1 3-1.732l19.58 11.305a1.85 1.85 90 0 1 0 3.205"
     style="fill:#000;fill-opacity:1;stroke-width:5.297;stroke-linecap:round;stroke-linejoin:round;paint-order:markers stroke fill"
     transform="matrix(1.13751 0 0 1 8.278 13.225)"
     id="path5" /></svg>
