<?xml version="1.0" encoding="UTF-8" standalone="no"?>
<svg
   width="64"
   height="64"
   version="1.1"
   viewBox="0 0 16.933 16.933"
   id="svg34"
   sodipodi:docname="gnome-arcade.svg"
   inkscape:version="1.4.2 (ebf0e940d0, 2025-05-08)"
   xmlns:inkscape="http://www.inkscape.org/namespaces/inkscape"
   xmlns:sodipodi="http://sodipodi.sourceforge.net/DTD/sodipodi-0.dtd"
   xmlns:xlink="http://www.w3.org/1999/xlink"
   xmlns="http://www.w3.org/2000/svg"
   xmlns:svg="http://www.w3.org/2000/svg"
   xmlns:rdf="http://www.w3.org/1999/02/22-rdf-syntax-ns#"
   xmlns:cc="http://creativecommons.org/ns#"
   xmlns:dc="http://purl.org/dc/elements/1.1/">
  <sodipodi:namedview
     id="namedview34"
     pagecolor="#505050"
     bordercolor="#eeeeee"
     borderopacity="1"
     inkscape:showpageshadow="0"
     inkscape:pageopacity="0"
     inkscape:pagecheckerboard="0"
     inkscape:deskcolor="#505050"
     inkscape:zoom="6.485495"
     inkscape:cx="-6.1676094"
     inkscape:cy="22.974345"
     inkscape:window-width="2560"
     inkscape:window-height="1411"
     inkscape:window-x="0"
     inkscape:window-y="0"
     inkscape:window-maximized="1"
     inkscape:current-layer="svg34" />
  <defs
     id="defs14">
    <linearGradient
       id="linearGradient36"
       x1="15.408"
       x2="60"
       y1="19"
       y2="45"
       gradientTransform="matrix(.96428 0 0 1 1.1428 1)"
       gradientUnits="userSpaceOnUse">
      <stop
         stop-color="#0082e5"
         offset="0"
         id="stop35"
         style="stop-color:#00dc28;stop-opacity:1;" />
      <stop
         stop-color="#42b7ff"
         offset="1"
         id="stop36"
         style="stop-color:#097832;stop-opacity:1;" />
    </linearGradient>
    <style
       type="text/css"
       id="style1" />
    <linearGradient
       id="linearGradient1034"
       x1="-71.993"
       x2="-73.616"
       y1="2.5497"
       y2="13.762"
       gradientTransform="matrix(.93314 0 0 .93314 49.578 .85684)"
       gradientUnits="userSpaceOnUse">
      <stop
         stop-color="#32d2ff"
         offset="0"
         id="stop1" />
      <stop
         stop-color="#32b4ff"
         offset="1"
         id="stop2" />
    </linearGradient>
    <linearGradient
       id="linearGradient1042"
       x1="-74.394"
       x2="-75.461"
       y1="-16.69"
       y2="-4.4751"
       gradientTransform="matrix(.93314 0 0 .93314 47.667 13.66)"
       gradientUnits="userSpaceOnUse">
      <stop
         stop-color="#0073d2"
         offset="0"
         id="stop3" />
      <stop
         stop-color="#143c73"
         offset="1"
         id="stop4" />
    </linearGradient>
    <linearGradient
       id="linearGradient1050"
       x1="-66.237"
       x2="-59.585"
       y1="21.255"
       y2="31.868"
       gradientTransform="matrix(.93314 0 0 .93314 48.111 -12.004)"
       gradientUnits="userSpaceOnUse">
      <stop
         stop-color="#fff"
         offset="0"
         id="stop5" />
      <stop
         stop-color="#d2d2d2"
         offset="1"
         id="stop6" />
    </linearGradient>
    <style
       type="text/css"
       id="style6" />
    <linearGradient
       id="linearGradient1109"
       x1="720.94"
       x2="626.77"
       y1="456.88"
       y2="819.08"
       gradientUnits="userSpaceOnUse">
      <stop
         stop-color="#505050"
         offset="0"
         id="stop7" />
      <stop
         stop-color="#0a0a0a"
         offset="1"
         id="stop8" />
    </linearGradient>
    <linearGradient
       id="linearGradient1367"
       x1="-59.315"
       x2="74.056"
       y1="4.7247"
       y2="4.7247"
       gradientUnits="userSpaceOnUse">
      <stop
         stop-color="#e1e5ea"
         offset="0"
         id="stop9" />
      <stop
         stop-color="#c4ccd4"
         offset="1"
         id="stop10" />
    </linearGradient>
    <linearGradient
       id="linearGradient1375"
       x1="7.869"
       x2="7.869"
       y1="-40.204"
       y2="-15.641"
       gradientUnits="userSpaceOnUse">
      <stop
         stop-color="#505050"
         offset="0"
         id="stop11" />
      <stop
         stop-color="#191919"
         offset="1"
         id="stop12" />
    </linearGradient>
    <linearGradient
       id="linearGradient17498"
       x1="15.408"
       x2="60"
       y1="19"
       y2="45"
       gradientTransform="matrix(.96428 0 0 1 1.1428 1)"
       gradientUnits="userSpaceOnUse">
      <stop
         stop-color="#0082e5"
         offset="0"
         id="stop13"
         style="stop-color:#00dc28;stop-opacity:1;" />
      <stop
         stop-color="#42b7ff"
         offset="1"
         id="stop14"
         style="stop-color:#097832;stop-opacity:1;" />
    </linearGradient>
    <linearGradient
       id="linearGradient44161"
       x1="12.579"
       x2="27.167"
       y1="8.8411"
       y2="8.8411"
       gradientUnits="userSpaceOnUse"
       xlink:href="#linearGradient36" />
    <linearGradient
       id="linearGradient44169"
       x1="-33.271"
       x2="-18.683"
       y1="-9.9157"
       y2="-9.9157"
       gradientUnits="userSpaceOnUse"
       xlink:href="#linearGradient17498" />
  </defs>
  <metadata
     id="metadata14">
    <rdf:RDF>
      <cc:Work
         rdf:about="">
        <dc:format>image/svg+xml</dc:format>
        <dc:type
           rdf:resource="http://purl.org/dc/dcmitype/StillImage" />
      </cc:Work>
    </rdf:RDF>
  </metadata>
  <g
     transform="translate(-21.834 .89695)"
     fill="#5e4aa6"
     stroke-width=".26458"
     id="g17">
    <circle
       cx="-330.35"
       cy="-328.38"
       r="0"
       id="circle14" />
    <circle
       cx="-312.11"
       cy="-326.25"
       r="0"
       id="circle15" />
    <circle
       cx="-306.02"
       cy="-333.07"
       r="0"
       id="circle16" />
    <circle
       cx="-308.84"
       cy="-326.01"
       r="0"
       id="circle17" />
  </g>
  <g
     transform="translate(21.668 -4.305)"
     fill="#5e4aa6"
     stroke-width=".26458"
     id="g20">
    <circle
       cx="-322.63"
       cy="-345.67"
       r="0"
       id="circle18" />
    <circle
       cx="-31.726"
       cy="-10.849"
       r="0"
       fill-rule="evenodd"
       id="circle19" />
    <circle
       cx="-306.92"
       cy="-328.72"
       r="0"
       id="circle20" />
  </g>
  <g
     transform="matrix(.11109 0 0 .11109 7.6478 7.9416)"
     stroke-width=".26458"
     id="g34">
    <path
       d="m73.643 24.889c-3.1261-24.176-16.152-50.539-16.673-51.686-0.20849-0.41672-0.62521-0.8337-1.0419-1.0419l-1.9799-0.8337-0.62521-2.2926c0-0.20849-0.10425-0.31274-0.20849-0.52096-0.10425-0.20849-1.4589-2.8136-5.2102-4.2725-3.4388-1.3547-12.088-4.3767-17.298-4.3767-1.7714 0-3.2303 0.31274-4.1682 1.0419-0.72946 0.31274-3.8555 3.1261-6.8776 3.1261h-25.009c-2.9178 0-6.1481-2.7093-6.8776-3.1261-1.0419-0.72946-2.3966-1.0419-4.1682-1.0419-5.2102 0-13.859 3.0221-17.298 4.3767-3.7513 1.4589-5.1059 4.064-5.2102 4.2725-0.10425 0.10425-0.10425 0.31274-0.20849 0.52096l-0.62521 2.3966-1.4589 0.8337c-0.41672 0.20849-0.72946 0.52096-0.93795 0.93795-0.52096 1.1462-13.547 27.51-16.673 51.686-1.1462 9.0659 0.10425 15.735 3.8555 20.007 3.6473 4.064 8.4407 4.6892 10.421 4.6892h1.5632c2.7093 0 6.5648-2.0841 19.278-15.735 1.2504-1.3547 2.1884-2.0841 2.8136-2.7093 1.8756-1.8756 5.7314-2.5008 8.5447-2.5008h39.806c2.8136 0 6.7733 0.62521 8.5447 2.5008 0.62521 0.62521 1.5632 1.3547 2.8136 2.7093 12.713 13.651 16.569 15.735 19.278 15.735h1.5632c1.8756 0 6.7733-0.52096 10.421-4.6892 3.5422-4.2722 4.7927-11.046 3.6465-20.007z"
       fill="url(#linearGradient1367)"
       id="path25" />
    <path
       d="m56.971-26.797c-0.20849-0.41672-0.62521-0.8337-1.0419-1.0419l-1.9799-0.8337-0.62521-2.2926c0-0.20849-0.10425-0.31274-0.20849-0.52096-0.10425-0.20849-1.4589-2.8136-5.2102-4.2725-3.4388-1.3547-12.088-4.3767-17.298-4.3767-1.7714 0-3.2303 0.31274-4.1682 1.0419-0.72946 0.31274-3.8555 3.1261-6.8776 3.1261h-25.009c-2.9178 0-6.1481-2.7093-6.8776-3.1261-1.0419-0.72946-2.3966-1.0419-4.1682-1.0419-5.2102 0-13.859 3.0221-17.298 4.3767-3.7513 1.4589-5.1059 4.064-5.2102 4.2725-0.10425 0.10425-0.10425 0.31274-0.20849 0.52096l-0.62521 2.3966-1.4589 0.8337c-0.41672 0.20849-0.72946 0.52096-0.93795 0.93795-0.10425 0.31274-1.2504 2.3966-2.7093 5.8354l9.6912-4.8977c13.755-6.5648 18.653-2.8136 19.07-2.5008 0.31274 0.41672 2.1884 2.9178 6.6691 7.2943 4.2725 4.2725 6.2524 4.8977 7.0861 4.8977h18.34c0.93795 0 2.9178-0.72946 6.9818-4.8977 4.3767-4.3767 6.2524-6.7733 6.5648-7.2943 0.52096-0.41672 5.6272-4.2725 20.112 3.0221-0.20849-0.20849 6.1481 3.0221 10.421 5.2102-1.6677-3.8555-2.8141-6.3566-3.0223-6.6691z"
       fill="url(#linearGradient1375)"
       id="path26" />
    <path
       d="m39.152-4.7056c-1.9799 0-3.6473 1.6674-3.6473 3.6473s1.6674 3.6473 3.6473 3.6473 3.6473-1.6674 3.6473-3.6473-1.6674-3.6473-3.6473-3.6473zm8.3365-8.3365c-1.9799 0-3.6473 1.6674-3.6473 3.6473s1.6674 3.6473 3.6473 3.6473 3.6473-1.6674 3.6473-3.6473-1.6674-3.6473-3.6473-3.6473zm-16.673 0c-1.9799 0-3.6473 1.6674-3.6473 3.6473s1.6674 3.6473 3.6473 3.6473 3.6473-1.6674 3.6473-3.6473-1.6674-3.6473-3.6473-3.6473zm8.3365-8.3362c-1.9799 0-3.6473 1.6674-3.6473 3.6473s1.6674 3.6473 3.6473 3.6473 3.6473-1.6674 3.6473-3.6473c-2.65e-4 -1.9801-1.6674-3.6473-3.6473-3.6473z"
       fill="#323232"
       id="path27" />
    <path
       d="m7.369-29.715c2.2926 0 4.1682 1.8756 4.1682 4.1682s-1.8756 4.1682-4.1682 4.1682-4.1682-1.8756-4.1682-4.1682 1.8756-4.1682 4.1682-4.1682z"
       fill="#fff"
       id="path28" />
    <path
       d="m-0.34231 11.967h-3.7513v3.8555c0 0.8337-0.62521 1.4589-1.4589 1.4589h-3.3345c-0.8337 0-1.4589-0.62521-1.4589-1.4589v-3.8555h-3.7513c-0.8337 0-1.4589-0.62521-1.4589-1.4589v-3.3345c0-0.8337 0.62521-1.4589 1.4589-1.4589h3.7513v-3.7513c0-0.8337 0.62521-1.4589 1.4589-1.4589h3.3345c0.8337 0 1.4589 0.62521 1.4589 1.4589v3.7513h3.7513c0.8337 0 1.4589 0.62521 1.4589 1.4589v3.3345c0 0.8337-0.62521 1.4589-1.4589 1.4589z"
       fill="#323232"
       id="path29" />
    <path
       d="m19.873-1.5795c5.7314 0 10.421 4.6892 10.421 10.421 0 5.7314-4.6892 10.421-10.421 10.421s-10.421-4.6892-10.421-10.421c2.646e-4 -5.7311 4.6895-10.421 10.421-10.421z"
       fill="#191919"
       id="path30" />
    <path
       d="m19.873 1.5468c4.064 0 7.2943 3.2303 7.2943 7.2943s-3.2303 7.2943-7.2943 7.2943-7.2943-3.2303-7.2943-7.2943c0-3.9598 3.2303-7.2943 7.2943-7.2943z"
       fill="url(#linearGradient44161)"
       id="path31" />
    <path
       d="m-25.977-20.336c5.7314 0 10.421 4.6892 10.421 10.421 0 5.7314-4.6892 10.421-10.421 10.421s-10.421-4.6892-10.421-10.421c0-5.7314 4.6892-10.421 10.421-10.421z"
       fill="#191919"
       id="path32" />
    <path
       d="m-25.977-17.21c4.064 0 7.2943 3.2303 7.2943 7.2943s-3.2303 7.2943-7.2943 7.2943-7.2943-3.2303-7.2943-7.2943c0-3.9598 3.2303-7.2943 7.2943-7.2943z"
       fill="url(#linearGradient44169)"
       id="path33" />
    <path
       d="m19.873 4.6728c2.2926 0 4.1682 1.8756 4.1682 4.1682s-1.8756 4.1682-4.1682 4.1682-4.1682-1.8756-4.1682-4.1682 1.8759-4.1682 4.1682-4.1682zm-45.85-18.757c2.2926 0 4.1682 1.8756 4.1682 4.1682s-1.8756 4.1682-4.1682 4.1682-4.1682-1.8756-4.1682-4.1682 1.8756-4.1682 4.1682-4.1682z"
       fill="#323232"
       id="path34" />
  </g>
</svg>
