<?xml version="1.0" encoding="UTF-8" standalone="no"?>
<svg
   width="64"
   height="64"
   version="1.1"
   id="svg6"
   sodipodi:docname="gns3.svg"
   xml:space="preserve"
   inkscape:version="1.4.3 (0d15f75042, 2025-12-25)"
   xmlns:inkscape="http://www.inkscape.org/namespaces/inkscape"
   xmlns:sodipodi="http://sodipodi.sourceforge.net/DTD/sodipodi-0.dtd"
   xmlns:xlink="http://www.w3.org/1999/xlink"
   xmlns="http://www.w3.org/2000/svg"
   xmlns:svg="http://www.w3.org/2000/svg"><sodipodi:namedview
     id="namedview6"
     pagecolor="#505050"
     bordercolor="#eeeeee"
     borderopacity="1"
     inkscape:showpageshadow="0"
     inkscape:pageopacity="0"
     inkscape:pagecheckerboard="0"
     inkscape:deskcolor="#505050"
     inkscape:zoom="1.6213738"
     inkscape:cx="-180.09419"
     inkscape:cy="67.226942"
     inkscape:window-width="2560"
     inkscape:window-height="1411"
     inkscape:window-x="0"
     inkscape:window-y="0"
     inkscape:window-maximized="1"
     inkscape:current-layer="svg6" /><defs
     id="defs4"><linearGradient
       id="linearGradient6"
       inkscape:collect="always"><stop
         style="stop-color:#773cbc;stop-opacity:1"
         offset="0"
         id="stop6" /><stop
         style="stop-color:#00a6cf;stop-opacity:1"
         offset="1"
         id="stop7" /></linearGradient><linearGradient
       id="a"
       x1="7.937"
       x2="7.937"
       y1="15.081"
       y2="1.852"
       gradientTransform="matrix(3.7796,0,0,3.7796,-81.104064,0)"
       gradientUnits="userSpaceOnUse"><stop
         offset="0"
         stop-color="#685d8d"
         id="stop1" /><stop
         offset="1"
         stop-color="#a54daf"
         id="stop2" /></linearGradient><linearGradient
       id="c"
       x1="30"
       x2="30"
       y1="10"
       y2="52"
       gradientUnits="userSpaceOnUse"><stop
         offset="0"
         stop-color="#3ad1ff"
         id="stop3"
         style="stop-color:#773bbd;stop-opacity:0.98039216" /><stop
         offset="1"
         stop-color="#3a94ff"
         id="stop4"
         style="stop-color:#00a6cf;stop-opacity:1" /></linearGradient><filter
       id="b"
       width="1.3184444"
       height="1.2731426"
       x="-0.15922221"
       y="-0.13657129"
       color-interpolation-filters="sRGB"><feGaussianBlur
         stdDeviation="2.39"
         id="feGaussianBlur4" /></filter><linearGradient
       inkscape:collect="always"
       xlink:href="#linearGradient6"
       id="linearGradient7"
       x1="31.618399"
       y1="10.139693"
       x2="31.618399"
       y2="52.3339"
       gradientUnits="userSpaceOnUse" /></defs><rect
     style="fill:#12192f;fill-opacity:1;stroke-width:1.01786"
     width="56.999996"
     height="56.999996"
     x="3.5000019"
     y="3.5000019"
     rx="2.8499999"
     ry="2.8499999"
     id="rect2" /><path
     d="M28.62 52.821c-2.396-.456-4.948-1.562-7.085-3.072-2.4-1.696-4.881-4.679-6.074-7.304-1.199-2.638-1.684-5.829-1.365-8.974.24-2.38.515-3.484 1.334-5.38 2.274-5.257 6.722-8.88 12.614-10.277.964-.229 1.633-.498 2.046-.825.613-.484.615-.49.984-2.878.46-2.981.453-2.958.925-3.077.635-.158 3.599.264 5.049.72 2.333.734 3.999 1.69 5.987 3.432.613.537 2.196.977 2.296.977.6 0 2.268.783 2.941 1.437 2.01 1.949 2.28 4.405.749 6.788-.411.64-.958.353-.958 1.177 0 .551-.095 1.125-.21 1.276-.17.221-1.672.342-4.922.622-2.96.256-4.75 1.014-4.931 1.196-.541.54.707.653 6.46 1.106 5.378.424 5.863.572 5.454.98-.088.087-2.445.5-5.725 1.161l-5.965 1.203-3.748-1.446c-2.062-.795-3.813-1.245-3.892-1.245-.246 0-2.05 2.996-1.991 3.305.074.383.829.174 1.81.308.678.093.867.042 1.568-.421 1.562-1.032 2.96-1.034 3.829-.003.53.63.549 1.057.059 1.4s-.845.33-1.567-.057c-1.014-.542-1.657.166-1.29 1.138.238.628.103.97-.381.97-.27 0-.462-.168-.65-.563-.267-.56-.27-.842-1.742-.94-1.591-.108-2.344.442-3.339-.185-.786-.495-1.52-1.356-1.52-1.783 0-.409.779-1.96 1.578-3.144.743-1.1.766-1.367.117-1.367-.345 0-.626.161-.952.545-.574.676-1.92 3.468-1.92 3.983 0 .71.544 1.496 1.99 2.447 1.145.752 1.494.801 1.74 1.357.368.836 1.014 2.266 1.154 3.569.117 1.081.352.802.783.046.438-.769 1.65-.92 1.65-.206 0 .172-.188.413-.418.535-.758.406-.705 1.09.119 1.531.244.13.485.07 1.052-.26.404-.237.85-.43.99-.43.33 0 .777.642.777 1.119 0 1.063-.838 1.731-2.17 1.731-1.59 0-2.81-.854-3.47-2.432-.352-.842-1.728-2.361-2.297-2.971-.562-.603-.86-.707-1.33-.64-.525.076-.784.573-.787 1.852-.005 2.47.775 4.998 3.582 6.381 4.612 2.273 9.037 2.3 13.803.082 3.518-1.636 6.23-4.341 6.426-7.182.072-1.044.03-1.32-.307-1.969-.699-1.348-2.871-2.13-4.35-1.46-.481.219-.849.842-1.085 1.523-.689 2.126.324 3.001 1.489 3.508.478.208 1.321.06 1.47-.535.167-.663-.157-.93-1.063-.874-.685.043-.779.007-.825-.319-.07-.488.663-.961 1.454-.939.467.013.737.001 1.163.465.66.719.545 1.559.2 2.215-.416.795-1.193 1.328-2.345 1.324-1.64-.005-2.966-.917-3.353-2.307-.232-.833-.22-2.165.072-3.15.85-2.855 5.652-3.44 7.937-1.224 1.101 1.069 1.66 2.282 1.556 4.205-.223 4.17-4.426 8.189-9.224 10.541-2.843 1.394-4.439 1.767-7.897 1.847-1.97.046-3.23-.005-4.06-.163z"
     filter="url(#b)"
     opacity=".1"
     id="path4" /><path
     id="path5"
     d="M 32.337891 10 C 32.19324 10.002691 32.077422 10.013453 31.998047 10.033203 C 31.526047 10.152203 31.534219 10.130328 31.074219 13.111328 C 30.705219 15.499328 30.702844 15.504281 30.089844 15.988281 C 29.676844 16.315281 29.008922 16.585453 28.044922 16.814453 C 22.152922 18.211453 17.703686 21.834797 15.429688 27.091797 C 14.610685 28.987797 14.335703 30.090703 14.095703 32.470703 C 13.776703 35.615703 14.261938 38.807313 15.460938 41.445312 C 16.653937 44.070312 19.135156 47.052047 21.535156 48.748047 C 23.672156 50.258047 26.223141 51.364314 28.619141 51.820312 C 29.449141 51.978313 30.709688 52.030375 32.679688 51.984375 C 36.137687 51.904375 37.733172 51.530719 40.576172 50.136719 C 45.374172 47.784719 49.577781 43.765703 49.800781 39.595703 C 49.904781 37.672703 49.345141 36.459625 48.244141 35.390625 C 45.959141 33.174625 41.156641 33.760234 40.306641 36.615234 C 40.014641 37.600234 40.002375 38.932625 40.234375 39.765625 C 40.621375 41.155625 41.947891 42.067266 43.587891 42.072266 C 44.739891 42.076266 45.517594 41.543047 45.933594 40.748047 C 46.278594 40.092047 46.392422 39.252203 45.732422 38.533203 C 45.306422 38.069203 45.037312 38.081359 44.570312 38.068359 C 43.779312 38.046359 43.045234 38.519813 43.115234 39.007812 C 43.161234 39.333813 43.256406 39.369172 43.941406 39.326172 C 44.847406 39.270172 45.170906 39.536219 45.003906 40.199219 C 44.854906 40.794219 44.011203 40.942375 43.533203 40.734375 C 42.368203 40.227375 41.355922 39.352562 42.044922 37.226562 C 42.280922 36.545562 42.649859 35.922125 43.130859 35.703125 C 44.609859 35.033125 46.781469 35.816063 47.480469 37.164062 C 47.817469 37.813063 47.859109 38.088814 47.787109 39.132812 C 47.591109 41.973813 44.879328 44.678453 41.361328 46.314453 C 36.595328 48.532453 32.170594 48.505422 27.558594 46.232422 C 24.751594 44.849422 23.971563 42.321562 23.976562 39.851562 C 23.979563 38.572562 24.238672 38.076 24.763672 38 C 25.233672 37.933 25.53175 38.037625 26.09375 38.640625 C 26.66275 39.250625 28.038625 40.769328 28.390625 41.611328 C 29.050625 43.189328 30.269375 44.042969 31.859375 44.042969 C 33.191375 44.042969 34.029297 43.3755 34.029297 42.3125 C 34.029297 41.8355 33.583906 41.193359 33.253906 41.193359 C 33.113906 41.193359 32.667672 41.386047 32.263672 41.623047 C 31.696672 41.953047 31.454937 42.012814 31.210938 41.882812 C 30.386937 41.441812 30.333797 40.757562 31.091797 40.351562 C 31.321797 40.229563 31.509766 39.988406 31.509766 39.816406 C 31.509766 39.102406 30.297375 39.254438 29.859375 40.023438 C 29.428375 40.779437 29.193172 41.057564 29.076172 39.976562 C 28.936172 38.673564 28.291828 37.244203 27.923828 36.408203 C 27.677828 35.852203 27.328594 35.802781 26.183594 35.050781 C 24.737594 34.099781 24.193359 33.313516 24.193359 32.603516 C 24.193359 32.088516 25.539281 29.297094 26.113281 28.621094 C 26.439281 28.237094 26.719453 28.076172 27.064453 28.076172 C 27.713453 28.076172 27.690266 28.343359 26.947266 29.443359 C 26.148266 30.627359 25.369141 32.178891 25.369141 32.587891 C 25.369141 33.014891 26.104625 33.874141 26.890625 34.369141 C 27.885625 34.996141 28.637516 34.446688 30.228516 34.554688 C 31.700516 34.652687 31.703703 34.934141 31.970703 35.494141 C 32.158703 35.889141 32.351094 36.058594 32.621094 36.058594 C 33.105094 36.058594 33.239953 35.715891 33.001953 35.087891 C 32.634953 34.115891 33.278969 33.407219 34.292969 33.949219 C 35.014969 34.336219 35.369375 34.350812 35.859375 34.007812 C 36.349375 33.664814 36.330781 33.237422 35.800781 32.607422 C 34.931781 31.576422 33.532703 31.577375 31.970703 32.609375 C 31.269703 33.072375 31.080344 33.12425 30.402344 33.03125 C 29.421344 32.89725 28.66775 33.105656 28.59375 32.722656 C 28.535211 32.41607 30.3101 29.464071 30.578125 29.417969 C 30.579133 29.417878 30.583023 29.417969 30.583984 29.417969 C 30.662984 29.417969 32.414563 29.867109 34.476562 30.662109 L 38.224609 32.109375 L 44.189453 30.90625 C 47.469453 30.24525 49.826062 29.831141 49.914062 29.744141 C 50.323063 29.336141 49.838938 29.189625 44.460938 28.765625 C 38.707937 28.312625 37.459 28.198203 38 27.658203 C 38.181 27.476203 39.971641 26.718891 42.931641 26.462891 C 46.181641 26.182891 47.683516 26.062797 47.853516 25.841797 C 47.968516 25.690797 48.0625 25.115453 48.0625 24.564453 C 48.0625 23.740453 48.610484 24.028672 49.021484 23.388672 C 50.552484 21.005672 50.281484 18.548609 48.271484 16.599609 C 47.598484 15.945609 45.930078 15.162109 45.330078 15.162109 C 45.230078 15.162109 43.648156 14.722547 43.035156 14.185547 C 41.047156 12.443547 39.381828 11.487906 37.048828 10.753906 C 35.780078 10.354906 33.350443 9.9811602 32.337891 10 z M 35 15 A 5 5 0 0 1 40 20 A 5 5 0 0 1 35 25 A 5 5 0 0 1 30 20 A 5 5 0 0 1 35 15 z M 34 17 A 2 2 0 0 0 32 19 A 2 2 0 0 0 34 21 A 2 2 0 0 0 36 19 A 2 2 0 0 0 34 17 z M 46.357422 17.931641 C 46.396826 17.929866 46.435585 17.92966 46.474609 17.931641 C 47.151028 17.965975 47.760876 18.555938 47.945312 19.4375 L 47.945312 19.439453 C 48.172312 20.524453 47.669266 21.639641 46.822266 21.931641 L 46 18 C 46.11911 17.959079 46.239209 17.936964 46.357422 17.931641 z "
     style="fill-opacity:1;fill:url(#linearGradient7)" /></svg>
