<?xml version="1.0" encoding="UTF-8" standalone="no"?>
<svg
   width="64"
   height="64"
   version="1.1"
   id="svg60"
   sodipodi:docname="gnucash-icon.svg"
   xml:space="preserve"
   inkscape:version="1.4.3 (0d15f75042, 2025-12-25)"
   xmlns:inkscape="http://www.inkscape.org/namespaces/inkscape"
   xmlns:sodipodi="http://sodipodi.sourceforge.net/DTD/sodipodi-0.dtd"
   xmlns="http://www.w3.org/2000/svg"
   xmlns:svg="http://www.w3.org/2000/svg"><sodipodi:namedview
     id="namedview60"
     pagecolor="#505050"
     bordercolor="#eeeeee"
     borderopacity="1"
     inkscape:showpageshadow="0"
     inkscape:pageopacity="0"
     inkscape:pagecheckerboard="0"
     inkscape:deskcolor="#505050"
     inkscape:zoom="6.485495"
     inkscape:cx="53.041441"
     inkscape:cy="12.643599"
     inkscape:window-width="2560"
     inkscape:window-height="1411"
     inkscape:window-x="0"
     inkscape:window-y="0"
     inkscape:window-maximized="1"
     inkscape:current-layer="svg60" /><defs
     id="defs12"><radialGradient
       id="b"
       cx="17.984"
       cy="40.604"
       r="21.031"
       gradientTransform="matrix(1.2711,0,0,0.45018,8.279,27.74)"
       gradientUnits="userSpaceOnUse"><stop
         offset="0"
         stop-color="#555753"
         id="stop1" /><stop
         offset="1"
         stop-color="#555753"
         stop-opacity="0"
         id="stop2" /></radialGradient><radialGradient
       id="c"
       cx="24.013"
       cy="31.644"
       r="14.987"
       gradientTransform="matrix(3.3235,0,0,2.7721,-47.796,-41.867)"
       gradientUnits="userSpaceOnUse"><stop
         offset="0"
         stop-color="#d3d7cf"
         id="stop3" /><stop
         offset="1"
         stop-color="#d3d7cf"
         stop-opacity="0"
         id="stop4" /></radialGradient><radialGradient
       id="d"
       cx="24.5"
       cy="18.593"
       r="14.5"
       gradientTransform="matrix(2.9403,0,0,2.4333,-39.537,-16.367)"
       gradientUnits="userSpaceOnUse"><stop
         offset="0"
         stop-color="#babdb6"
         id="stop5" /><stop
         offset="1"
         stop-color="#babdb6"
         stop-opacity="0"
         id="stop6" /></radialGradient><linearGradient
       id="a"
       x1="7.937"
       x2="7.937"
       y1="15.081"
       y2="1.852"
       gradientTransform="matrix(3.7796,0,0,3.7796,-2.1586633,-24.516247)"
       gradientUnits="userSpaceOnUse"><stop
         offset="0"
         stop-color="#f1efeb"
         id="stop7" /><stop
         offset="1"
         stop-color="#fdfcfc"
         id="stop8" /></linearGradient><linearGradient
       id="e"
       x1="24.613"
       x2="29.182"
       y1="20.16"
       y2="12.246"
       gradientTransform="translate(8,8)"
       gradientUnits="userSpaceOnUse"><stop
         offset="0"
         stop-color="#204a87"
         id="stop9" /><stop
         offset="1"
         stop-color="#204a87"
         stop-opacity="0"
         id="stop10" /></linearGradient><linearGradient
       id="f"
       x1="18"
       x2="18"
       y1="39"
       y2="45.78"
       gradientTransform="matrix(1,0,0,0.83333,8,14.499)"
       gradientUnits="userSpaceOnUse"><stop
         offset="0"
         stop-color="#eeeeec"
         id="stop11" /><stop
         offset="1"
         stop-color="#eeeeec"
         stop-opacity="0"
         id="stop12" /></linearGradient></defs><g
     id="g60"
     transform="matrix(1.1875,0,0,1.1875,-6,-6.2375006)"><ellipse
       cx="32"
       cy="46.499001"
       fill="url(#b)"
       fill-rule="evenodd"
       opacity="0.5"
       rx="24"
       ry="8.5"
       id="ellipse12"
       style="fill:url(#b)" /><ellipse
       cx="49.526001"
       cy="46.001999"
       fill="#edd400"
       fill-rule="evenodd"
       stroke="#d6ae00"
       stroke-width="0.2"
       rx="5.0029998"
       ry="2.4979999"
       id="ellipse13" /><ellipse
       cx="49.522999"
       cy="46.001999"
       fill="none"
       opacity="0.6"
       rx="4.0040002"
       ry="1.497"
       id="ellipse14" /><ellipse
       cx="49.535"
       cy="44.008999"
       fill="#edd400"
       fill-rule="evenodd"
       stroke="#d6ae00"
       stroke-width="0.2"
       rx="5.0029998"
       ry="2.4979999"
       id="ellipse15" /><ellipse
       cx="49.533001"
       cy="44.008999"
       fill="none"
       opacity="0.6"
       rx="4.0040002"
       ry="1.497"
       id="ellipse16" /><rect
       width="35.041"
       height="34.995998"
       x="14.473"
       y="9.5010004"
       fill="#eeeeec"
       fill-rule="evenodd"
       stroke="#c7c9c5"
       stroke-width="0.2"
       rx="2"
       ry="2"
       id="rect16" /><ellipse
       cx="49.535"
       cy="42.008999"
       fill="#edd400"
       fill-rule="evenodd"
       stroke="#d6ae00"
       stroke-width="0.2"
       rx="5.0029998"
       ry="2.4979999"
       id="ellipse17" /><rect
       width="29.974001"
       height="25"
       x="17.025999"
       y="12.999"
       fill="url(#c)"
       fill-rule="evenodd"
       rx="1.625"
       ry="1.625"
       id="rect17"
       style="fill:url(#c)" /><ellipse
       cx="49.533001"
       cy="42.008999"
       fill="none"
       opacity="0.6"
       rx="4.0040002"
       ry="1.497"
       id="ellipse18" /><path
       fill="url(#d)"
       fill-rule="evenodd"
       d="m 22.031,12.999 v 4 H 18 v 1 h 4.031 v 4 H 18 v 1 h 4.031 v 4 H 18 v 1 h 4.031 v 4 H 18 v 1 h 4.031 v 4 h 1 v -4 h 4 v 4 h 1 v -4 h 4 v 4 h 1 v -4 h 4 v 4 h 1 v -4 h 4 v 4 h 1 v -4 H 47 v -1 h -3.97 v -4 H 47 v -1 h -3.97 v -4 H 47 v -1 h -3.97 v -4 H 47 v -1 h -3.97 v -4 h -1 v 4 h -4 v -4 h -1 v 4 h -4 v -4 h -1 v 4 h -4 v -4 h -1 v 4 h -4 v -4 z m 1,5 h 4 v 4 h -4 z m 5,0 h 4 v 4 h -4 z m 5,0 h 4 v 4 h -4 z m 5,0 h 4 v 4 h -4 z m -15,5 h 4 v 4 h -4 z m 5,0 h 4 v 4 h -4 z m 5,0 h 4 v 4 h -4 z m 5,0 h 4 v 4 h -4 z m -15,5 h 4 v 4 h -4 z m 5,0 h 4 v 4 h -4 z m 5,0 h 4 v 4 h -4 z m 5,0 h 4 v 4 h -4 z"
       id="path18"
       style="fill:url(#d)" /><ellipse
       cx="49.522999"
       cy="40.004002"
       fill="#edd400"
       fill-rule="evenodd"
       stroke="#d6ae00"
       stroke-width="0.2"
       rx="5.0029998"
       ry="2.4979999"
       id="ellipse19" /><path
       fill="url(#e)"
       fill-rule="evenodd"
       d="m 36.531,19.999 -4.883,8.817 -8.61,-4.797 -6.007,9.48 0.875,0.5 5.412,-8.727 8.702,4.781 5.386,-9.554 z"
       id="path19"
       style="fill:url(#e)" /><path
       fill="#888a85"
       fill-rule="evenodd"
       d="m 47,36.999 v 1 H 17 v -1 z"
       id="path20" /><ellipse
       cx="49.533001"
       cy="40.001999"
       fill="none"
       opacity="0.6"
       rx="4.0040002"
       ry="1.497"
       id="ellipse20" /><path
       fill="#888a85"
       fill-rule="evenodd"
       d="m 17.026,12.999 h 1 v 25 h -1 z"
       id="path21" /><path
       fill="#4e9a06"
       fill-rule="evenodd"
       stroke="#2e5c02"
       stroke-width="0.2"
       d="m 9.5,41.488 h 24 v 6.025 h -24 z"
       id="path22" /><path
       fill="#59af05"
       fill-rule="evenodd"
       stroke="#2e5c02"
       stroke-width="0.2"
       d="M 12.326,35.5 H 32.598 L 33.5,41.51 H 9.5 Z"
       id="path23" /><path
       fill="#2e5c02"
       fill-rule="evenodd"
       d="m 10,45.488 h 23 v 0.2 H 10 Z m 0,-2 h 23 v 0.2 H 10 Z"
       id="path24" /><path
       fill="none"
       stroke="#ffffff"
       stroke-width="0.2"
       d="m 12.938,36.551 -1.969,3.938 h 21.344 l -0.594,-3.938 z"
       opacity="0.25"
       id="path25" /><path
       fill="#eeeeec"
       fill-rule="evenodd"
       stroke="#555753"
       stroke-width="0.2"
       d="m 19.531,41.473 h 4.937 v 6.109 h -4.937 z"
       id="path26" /><ellipse
       cx="22"
       cy="38.499001"
       fill="#2e5c02"
       fill-rule="evenodd"
       rx="5"
       ry="1.5"
       id="ellipse26" /><path
       fill="#d3d7cf"
       fill-rule="evenodd"
       stroke="#555753"
       stroke-width="0.2"
       d="m 20.5,35.495 -1,5.637 v 6.372 h 5 v -6.426 l -1.094,-5.583 z"
       id="path27" /><path
       fill="#4e9a06"
       fill-rule="evenodd"
       stroke="#2e5c02"
       stroke-width="0.2"
       d="M 13.491,46.47 H 37.5 v 6.04 H 13.491 Z"
       id="path28" /><path
       fill="#57ae06"
       fill-rule="evenodd"
       stroke="#2e5c02"
       stroke-width="0.2"
       d="M 15.451,40.504 H 35.66 l 1.84,5.994 h -24 z"
       id="path29" /><ellipse
       cx="44.515999"
       cy="48.995998"
       fill="#ecd300"
       fill-rule="evenodd"
       stroke="#d6ae00"
       stroke-width="0.2"
       rx="5.0029998"
       ry="2.4979999"
       id="ellipse29" /><ellipse
       cx="49.535"
       cy="38.001999"
       fill="#edd400"
       fill-rule="evenodd"
       stroke="#d6ae00"
       stroke-width="0.2"
       rx="5.0029998"
       ry="2.4979999"
       id="ellipse30" /><path
       fill="#2e5c02"
       fill-rule="evenodd"
       d="m 14,50.452 h 23 v 0.2 H 14 Z"
       id="path30" /><ellipse
       cx="44.514"
       cy="48.995998"
       fill="none"
       opacity="0.6"
       rx="4.0040002"
       ry="1.497"
       id="ellipse31" /><path
       fill="#2e5c02"
       fill-rule="evenodd"
       d="m 14,48.452 h 23 v 0.2 H 14 Z"
       id="path31" /><ellipse
       cx="44.526001"
       cy="47.001999"
       fill="#ecd300"
       fill-rule="evenodd"
       stroke="#d6ae00"
       stroke-width="0.2"
       rx="5.0029998"
       ry="2.4979999"
       id="ellipse32" /><ellipse
       cx="49.533001"
       cy="38.001999"
       fill="none"
       opacity="0.6"
       rx="4.0040002"
       ry="1.497"
       id="ellipse33" /><ellipse
       cx="44.522999"
       cy="47.001999"
       fill="none"
       opacity="0.6"
       rx="4.0040002"
       ry="1.497"
       id="ellipse34" /><ellipse
       cx="44.526001"
       cy="45.001999"
       fill="#ecd300"
       fill-rule="evenodd"
       stroke="#d6ae00"
       stroke-width="0.2"
       rx="5.0029998"
       ry="2.4979999"
       id="ellipse35" /><ellipse
       cx="49.535"
       cy="36.007"
       fill="#edd400"
       fill-rule="evenodd"
       stroke="#d6ae00"
       stroke-width="0.2"
       rx="5.0029998"
       ry="2.4979999"
       id="ellipse36" /><path
       fill="none"
       stroke="#ffffff"
       stroke-width="0.2"
       d="m 16.219,41.53 -1.281,3.938 H 36.094 L 34.875,41.53 Z"
       opacity="0.25"
       id="path36" /><ellipse
       cx="44.522999"
       cy="45.001999"
       fill="none"
       opacity="0.6"
       rx="4.0040002"
       ry="1.497"
       id="ellipse37" /><ellipse
       cx="44.513"
       cy="42.997002"
       fill="#ecd300"
       fill-rule="evenodd"
       stroke="#d6ae00"
       stroke-width="0.2"
       rx="5.0029998"
       ry="2.4979999"
       id="ellipse38" /><ellipse
       cx="44.522999"
       cy="42.995998"
       fill="none"
       opacity="0.6"
       rx="4.0040002"
       ry="1.497"
       id="ellipse39" /><ellipse
       cx="49.522999"
       cy="34.001999"
       fill="#edd400"
       fill-rule="evenodd"
       stroke="#d6ae00"
       stroke-width="0.2"
       rx="5.0029998"
       ry="2.4979999"
       id="ellipse40" /><ellipse
       cx="44.526001"
       cy="40.995998"
       fill="#ecd300"
       fill-rule="evenodd"
       stroke="#d6ae00"
       stroke-width="0.2"
       rx="5.0029998"
       ry="2.4979999"
       id="ellipse41" /><ellipse
       cx="44.522999"
       cy="40.995998"
       fill="none"
       opacity="0.6"
       rx="4.0040002"
       ry="1.497"
       id="ellipse42" /><ellipse
       cx="17.969"
       cy="40.484001"
       fill="#2e5c02"
       fill-rule="evenodd"
       rx="1"
       ry="0.5"
       id="ellipse43" /><ellipse
       cx="32.969002"
       cy="40.484001"
       fill="#2e5c02"
       fill-rule="evenodd"
       rx="1"
       ry="0.5"
       id="ellipse44" /><ellipse
       cx="26"
       cy="43.499001"
       fill="#2e5c02"
       fill-rule="evenodd"
       rx="5"
       ry="1.5"
       id="ellipse45" /><ellipse
       cx="17.483999"
       cy="44.484001"
       fill="#2e5c02"
       fill-rule="evenodd"
       rx="1.516"
       ry="0.5"
       id="ellipse46" /><ellipse
       cx="33.5"
       cy="44.499001"
       fill="#2e5c02"
       fill-rule="evenodd"
       rx="1.5"
       ry="0.5"
       id="ellipse47" /><path
       fill="#d3d7cf"
       fill-rule="evenodd"
       stroke="#555753"
       stroke-width="0.2"
       d="m 24.5,40.52 -1,5.625 v 6.358 h 5 V 46.091 L 27.406,40.52 Z"
       id="path47" /><path
       fill="#888a85"
       fill-rule="evenodd"
       d="m 24,46.999 h 4 v 5 h -4 z"
       id="path48" /><path
       fill="url(#f)"
       fill-rule="evenodd"
       d="m 24,46.999 h 4 v 5 h -4 z"
       id="path49"
       style="fill:url(#f)" /><ellipse
       cx="32.5"
       cy="42.499001"
       fill="#2e5c02"
       fill-rule="evenodd"
       rx="1.5"
       ry="0.5"
       id="ellipse49" /><ellipse
       cx="18.5"
       cy="42.499001"
       fill="#2e5c02"
       fill-rule="evenodd"
       rx="1.5"
       ry="0.5"
       id="ellipse50" /><path
       fill="#ffffff"
       fill-rule="evenodd"
       d="m 17,12.999 h 30 c -12.161,3.91 -11.338,18 -30,18 z"
       opacity="0.2"
       id="path50" /><ellipse
       cx="13.484"
       cy="39.499001"
       fill="#2e5c02"
       fill-rule="evenodd"
       rx="1.516"
       ry="0.5"
       id="ellipse51" /><ellipse
       cx="30.5"
       cy="39.499001"
       fill="#2e5c02"
       fill-rule="evenodd"
       rx="1.5"
       ry="0.5"
       id="ellipse52" /><ellipse
       cx="29.5"
       cy="37.499001"
       fill="#2e5c02"
       fill-rule="evenodd"
       rx="1.5"
       ry="0.5"
       id="ellipse53" /><ellipse
       cx="14.5"
       cy="37.499001"
       fill="#2e5c02"
       fill-rule="evenodd"
       rx="1.5"
       ry="0.5"
       id="ellipse54" /><ellipse
       cx="49.535"
       cy="32.000999"
       fill="#edd400"
       fill-rule="evenodd"
       stroke="#d6ae00"
       stroke-width="0.2"
       rx="5.0029998"
       ry="2.4979999"
       id="ellipse55" /><ellipse
       cx="49.535"
       cy="30.000999"
       fill="#edd400"
       fill-rule="evenodd"
       stroke="#d6ae00"
       stroke-width="0.2"
       rx="5.0029998"
       ry="2.4979999"
       id="ellipse56" /><ellipse
       cx="49.515999"
       cy="27.997"
       fill="#fce94f"
       fill-rule="evenodd"
       stroke="#d6ae00"
       stroke-width="0.2"
       rx="5.0029998"
       ry="2.4979999"
       id="ellipse57" /><ellipse
       cx="44.506001"
       cy="38.995998"
       fill="#fce94f"
       fill-rule="evenodd"
       stroke="#d6ae00"
       stroke-width="0.2"
       rx="5.0029998"
       ry="2.4979999"
       id="ellipse58" /><ellipse
       cx="44.504002"
       cy="38.995998"
       fill="none"
       stroke="#ffffff"
       stroke-width="0.2"
       opacity="0.5"
       rx="4.0040002"
       ry="1.497"
       id="ellipse59" /><ellipse
       cx="49.506001"
       cy="27.996"
       fill="none"
       stroke="#ffffff"
       stroke-width="0.2"
       opacity="0.5"
       rx="4.0040002"
       ry="1.497"
       id="ellipse60" /></g></svg>
